<?xml version="1.0" standalone="no"?>
<!DOCTYPE svg PUBLIC "-//W3C//DTD SVG 1.1//EN" "http://www.w3.org/Graphics/SVG/1.1/DTD/svg11.dtd" >
<svg xmlns="http://www.w3.org/2000/svg" xmlns:xlink="http://www.w3.org/1999/xlink" version="1.1">
<metadata></metadata>
<defs>
<font id="sf_ui_displayheavy" horiz-adv-x="1477" >
<font-face units-per-em="2048" ascent="1638" descent="-410" />
<missing-glyph horiz-adv-x="414" />
<glyph horiz-adv-x="0" />
<glyph unicode="&#xd;" horiz-adv-x="0" />
<glyph unicode=" "  horiz-adv-x="414" />
<glyph unicode="&#x09;" horiz-adv-x="414" />
<glyph unicode="&#xa0;" horiz-adv-x="414" />
<glyph unicode="!" horiz-adv-x="701" d="M161 147q0 75 55.5 127t134.5 52q78 0 133.5 -52t55.5 -127t-55.5 -127.5t-133.5 -52.5q-79 0 -134.5 52.5t-55.5 127.5zM169 1443h364l-31 -970h-302z" />
<glyph unicode="&#x22;" horiz-adv-x="993" d="M94 832v611h297v-611h-297zM601 832v611h298v-611h-298z" />
<glyph unicode="#" horiz-adv-x="1305" d="M18 370l48 253h202l43 217h-197l48 251h198l71 353h262l-69 -353h195l70 353h264l-70 -353h210l-48 -251h-213l-42 -217h205l-47 -253h-208l-73 -370h-264l74 370h-196l-74 -370h-262l73 370h-200zM504 597h237l55 269h-238z" />
<glyph unicode="$" horiz-adv-x="1372" d="M88 420h347q4 -66 56.5 -113t132.5 -55v322l-119 26q-192 42 -291 148.5t-99 270.5q0 194 133.5 310.5t375.5 134.5v136h144v-137q223 -21 354.5 -138t133.5 -296h-336q-2 60 -45 106t-107 56v-311l119 -22q397 -77 397 -415q0 -198 -133.5 -315.5t-382.5 -137.5v-126 h-144v124q-253 13 -394 126.5t-142 305.5zM466 1053q0 -112 158 -144v284q-70 -5 -114 -43.5t-44 -96.5zM768 252q82 6 128 46t46 104q0 115 -174 148v-298z" />
<glyph unicode="%" horiz-adv-x="1680" d="M42 1117q0 175 92 276.5t251 101.5q160 0 251.5 -101t91.5 -277t-92.5 -279.5t-250.5 -103.5t-250.5 103.5t-92.5 279.5zM152 0l1052 1443h300l-1051 -1443h-301zM300 1116q0 -83 22.5 -131t62.5 -48t63 48t23 132q0 83 -22.5 128.5t-63.5 45.5q-40 0 -62.5 -46 t-22.5 -129zM952 359q0 175 92 276.5t251 101.5q160 0 251.5 -101t91.5 -277t-92.5 -279.5t-250.5 -103.5t-250.5 103.5t-92.5 279.5zM1210 358q0 -83 22.5 -131t62.5 -48t63 48t23 132q0 83 -22.5 128.5t-63.5 45.5q-40 0 -62.5 -46t-22.5 -129z" />
<glyph unicode="&#x26;" horiz-adv-x="1472" d="M60 374q0 121 62 210.5t197 165.5q3 1 20.5 11t33 18.5t16.5 8.5q-98 99 -138.5 173.5t-40.5 154.5q0 148 122.5 245.5t309.5 97.5q188 0 305 -93t117 -241q0 -221 -283 -378l231 -249q42 74 42 214v94h285v-119q0 -114 -33 -219.5t-91 -180.5l277 -287h-380l-100 106 q-74 -63 -189.5 -98t-248.5 -35q-238 0 -376 107.5t-138 293.5zM383 404q0 -84 63 -135t165 -51q69 0 129.5 22t93.5 60l-290 311q-17 -6 -36 -18q-67 -43 -96 -87t-29 -102zM503 1098q0 -45 27 -88t96 -108q81 43 118.5 90t37.5 106q0 61 -38.5 100t-99.5 39t-101 -39.5 t-40 -99.5z" />
<glyph unicode="'" horiz-adv-x="485" d="M94 832v611h297v-611h-297z" />
<glyph unicode="(" horiz-adv-x="749" d="M110 600q0 268 69 464.5t211 378.5h334q-102 -118 -174.5 -351t-72.5 -490q0 -249 61.5 -458.5t182.5 -420.5h-340q-124 155 -197.5 382t-73.5 495z" />
<glyph unicode=")" horiz-adv-x="749" d="M25 1443h333q143 -181 212 -378t69 -465q0 -269 -74 -496t-198 -381h-339q121 211 182.5 420.5t61.5 458.5q0 256 -72.5 489t-174.5 352z" />
<glyph unicode="*" horiz-adv-x="997" d="M92 958l277 100l-277 99l117 204l226 -193l-54 292h235l-53 -292l225 193l117 -204l-277 -99l277 -100l-117 -203l-223 188l51 -288h-235l51 289l-223 -189z" />
<glyph unicode="+" horiz-adv-x="1372" d="M130 431v305h399v423h314v-423h399v-305h-399v-425h-314v425h-399z" />
<glyph unicode="," horiz-adv-x="599" d="M83 -278l74 583h322l-130 -583h-266z" />
<glyph unicode="-" horiz-adv-x="918" d="M130 431v305h658v-305h-658z" />
<glyph unicode="." horiz-adv-x="595" d="M112 173q0 77 54 131.5t131 54.5q78 0 132 -54.5t54 -131.5t-54 -131.5t-132 -54.5q-77 0 -131 54.5t-54 131.5z" />
<glyph unicode="/" horiz-adv-x="737" d="M0 -274l401 1718h336l-407 -1718h-330z" />
<glyph unicode="0" horiz-adv-x="1380" d="M79 724q0 354 164.5 555t447.5 201q282 0 446 -201t164 -554t-163.5 -557t-446.5 -204q-284 0 -448 203t-164 557zM452 725q0 -229 64.5 -352t174.5 -123t173.5 122.5t63.5 351.5t-63.5 349.5t-173.5 120.5t-174.5 -121t-64.5 -348z" />
<glyph unicode="1" horiz-adv-x="1023" d="M83 877v316l367 250h366v-1443h-365v1121h-7z" />
<glyph unicode="2" horiz-adv-x="1275" d="M73 992v7q0 214 155 347t407 133q244 0 392.5 -119t148.5 -310q0 -54 -17 -108.5t-40 -96t-62.5 -90t-67.5 -77t-73 -71.5l-345 -318v-7h623v-282h-1100v245l563 518q91 87 127.5 147.5t36.5 127.5q0 70 -55 117.5t-143 47.5q-93 0 -153.5 -57.5t-60.5 -146.5v-7h-336z " />
<glyph unicode="3" horiz-adv-x="1330" d="M72 429h350q5 -82 67 -129.5t166 -47.5q98 0 159.5 49.5t61.5 129.5q0 84 -60 132t-165 48h-176v253h175q93 0 149 47.5t56 125.5q0 79 -55 124t-153 45q-94 0 -153 -52t-62 -136h-332q4 209 158 335t405 126q241 0 386.5 -107t145.5 -285q0 -129 -83 -219t-217 -114v-8 q162 -15 257.5 -107t95.5 -239q0 -198 -164.5 -317t-434.5 -119q-253 0 -409.5 127t-167.5 338z" />
<glyph unicode="4" horiz-adv-x="1373" d="M69 234v307q97 187 222.5 393.5t327.5 508.5h510v-923h180v-286h-180v-234h-347v234h-713zM380 507h412v688h-7q-145 -216 -233.5 -362.5t-171.5 -315.5v-10z" />
<glyph unicode="5" horiz-adv-x="1323" d="M113 422h333q13 -78 78.5 -127t157.5 -49q103 0 167.5 65t64.5 168q0 107 -64 173.5t-167 66.5q-71 0 -129.5 -31t-93.5 -87h-324l68 842h966v-282h-682l-27 -356h7q42 79 125 123.5t195 44.5q206 0 339 -137t133 -348q0 -235 -160.5 -379.5t-420.5 -144.5 q-245 0 -403.5 128t-162.5 330z" />
<glyph unicode="6" horiz-adv-x="1364" d="M80 716q0 355 169.5 559t458.5 204q218 0 373.5 -115t184.5 -297h-357q-18 59 -73.5 95t-128.5 36q-137 0 -214 -128.5t-66 -347.5h7q42 108 140 171.5t235 63.5q204 0 339.5 -135t135.5 -340q0 -228 -162 -373t-415 -145q-152 0 -276 60t-203 173q-148 195 -148 519z M476 472q0 -95 66 -160t161 -65q96 0 162.5 65t66.5 159q0 95 -65.5 159t-162.5 64t-162.5 -64t-65.5 -158z" />
<glyph unicode="7" horiz-adv-x="1199" d="M57 1161v282h1073v-283l-581 -1160h-384l604 1154v7h-712z" />
<glyph unicode="8" horiz-adv-x="1394" d="M79 391q0 146 98.5 247.5t256.5 121.5v7q-132 26 -214.5 117t-82.5 213q0 167 156.5 274.5t402.5 107.5q247 0 403 -108t156 -275q0 -120 -82 -211.5t-213 -117.5v-7q158 -21 256 -122.5t98 -247.5q0 -191 -170.5 -308.5t-447.5 -117.5q-279 0 -448 117.5t-169 309.5z M464 418q0 -87 65 -144.5t167 -57.5q103 0 168 57.5t65 144.5t-65 144t-168 57q-102 0 -167 -57t-65 -144zM499 1049q0 -76 56 -127t141 -51q86 0 142 51t56 127q0 77 -56 128t-142 51q-85 0 -141 -51t-56 -128z" />
<glyph unicode="9" horiz-adv-x="1370" d="M80 962q0 226 164 371.5t416 145.5q154 0 278.5 -59.5t204.5 -172.5q148 -195 148 -519q0 -356 -168 -560t-463 -204q-220 0 -376.5 115.5t-184.5 297.5h358q18 -59 75.5 -95.5t133.5 -36.5q135 0 210.5 127t63.5 351h-3h-2h-1q-37 -108 -135.5 -172t-239.5 -64 q-204 0 -341.5 135t-137.5 340zM435 973q0 -95 66 -158.5t163 -63.5q96 0 161.5 63.5t65.5 157.5q0 95 -65.5 160.5t-160.5 65.5q-96 0 -163 -65.5t-67 -159.5z" />
<glyph unicode=":" horiz-adv-x="595" d="M112 173q0 77 54 131.5t131 54.5q78 0 132 -54.5t54 -131.5t-54 -131.5t-132 -54.5q-77 0 -131 54.5t-54 131.5zM112 877q0 77 54 131t131 54q78 0 132 -54t54 -131t-54 -131.5t-132 -54.5q-77 0 -131 54.5t-54 131.5z" />
<glyph unicode=";" horiz-adv-x="595" d="M51 -278l74 583h322l-129 -583h-267zM112 877q0 77 54 131t131 54q78 0 132 -54t54 -131t-54 -131.5t-132 -54.5q-77 0 -131 54.5t-54 131.5z" />
<glyph unicode="&#x3c;" horiz-adv-x="1372" d="M190 448v270l992 495v-346l-630 -277v-11l630 -271v-346z" />
<glyph unicode="=" horiz-adv-x="1372" d="M143 176v303h1086v-303h-1086zM143 688v303h1086v-303h-1086z" />
<glyph unicode="&#x3e;" horiz-adv-x="1372" d="M190 -38v346l630 272v10l-630 277v346l992 -495v-269z" />
<glyph unicode="?" horiz-adv-x="1141" d="M52 1023q2 198 138.5 315.5t374.5 117.5q227 0 364.5 -110t137.5 -290q0 -110 -52.5 -190.5t-163.5 -144.5q-103 -60 -139 -104t-36 -114v-47h-312l-3 40q-14 127 25 203.5t145 137.5q102 60 136.5 102t34.5 108q0 61 -44.5 99t-115.5 38q-72 0 -117.5 -44t-47.5 -117 h-325zM337 147q0 75 55 127t134 52q78 0 133.5 -52t55.5 -127t-55.5 -127.5t-133.5 -52.5q-79 0 -134 52t-55 128z" />
<glyph unicode="@" horiz-adv-x="1819" d="M70 622q0 244 108 434t303 295t445 105q178 0 328.5 -54t256.5 -151t165.5 -236.5t59.5 -304.5q0 -235 -108 -372.5t-294 -137.5q-97 0 -163 39.5t-86 111.5h-17q-62 -152 -235 -152q-156 0 -251 116t-95 306q0 182 91 294.5t239 112.5q82 0 144 -37.5t92 -104.5h17v118 h229v-508q0 -53 22.5 -83t64.5 -30q66 0 105 81t39 222q0 272 -165 433t-442 161q-288 0 -467.5 -184t-179.5 -479q0 -301 186.5 -474t501.5 -173q149 0 240 28v-178q-114 -30 -261 -30q-192 0 -354 59.5t-276.5 166.5t-178.5 263t-64 343zM749 614q0 -98 38.5 -153 t107.5 -55t108 55.5t39 152.5t-39.5 152.5t-107.5 55.5t-107 -55.5t-39 -152.5z" />
<glyph unicode="A" d="M29 0l485 1443h449l485 -1443h-390l-91 317h-472l-92 -317h-374zM566 581h329l-160 556h-8z" />
<glyph unicode="B" horiz-adv-x="1352" d="M109 0v1443h675q213 0 334.5 -96.5t121.5 -263.5q0 -120 -81 -208t-202 -105v-8q148 -7 249 -105t101 -241q0 -190 -137 -303t-368 -113h-693zM476 260h222q114 0 175 48.5t61 139.5q0 88 -62 136t-176 48h-220v-372zM476 855h193q100 0 156.5 44.5t56.5 122.5 q0 76 -51.5 118.5t-143.5 42.5h-211v-328z" />
<glyph unicode="C" horiz-adv-x="1488" d="M69 722q0 351 188 548.5t513 197.5q181 0 328 -72.5t233.5 -204t91.5 -299.5h-353q-13 127 -96 204.5t-204 77.5q-151 0 -239 -121t-88 -330q0 -212 88 -333t240 -121q121 0 202.5 74t98.5 201h353q-13 -256 -194 -412.5t-461 -156.5q-326 0 -513.5 197.5t-187.5 549.5z " />
<glyph unicode="D" horiz-adv-x="1459" d="M109 0v1443h589q328 0 509.5 -185t181.5 -528q0 -345 -182 -537.5t-509 -192.5h-589zM476 296h173q180 0 273.5 109t93.5 324q0 202 -96 310t-271 108h-173v-851z" />
<glyph unicode="E" horiz-adv-x="1196" d="M109 0v1443h989v-296h-622v-287h585v-270h-585v-294h622v-296h-989z" />
<glyph unicode="F" horiz-adv-x="1144" d="M109 0v1443h982v-296h-615v-328h559v-281h-559v-538h-367z" />
<glyph unicode="G" horiz-adv-x="1510" d="M69 724q0 350 188 547t516 197q261 0 441 -140t208 -361h-363q-27 96 -103 151t-182 55q-156 0 -243.5 -117t-87.5 -327q0 -213 94 -336t253 -123q124 0 204 67t88 176l1 22h-264v252h618v-177q0 -296 -174 -465.5t-481 -169.5q-335 0 -524 197.5t-189 551.5z" />
<glyph unicode="H" horiz-adv-x="1527" d="M109 0v1443h367v-566h575v566h366v-1443h-366v581h-575v-581h-367z" />
<glyph unicode="I" horiz-adv-x="585" d="M109 0v1443h367v-1443h-367z" />
<glyph unicode="J" horiz-adv-x="1210" d="M25 470h353q1 -86 47.5 -136.5t125.5 -50.5q81 0 124 50.5t43 146.5v963h366v-965q0 -242 -139.5 -373.5t-389.5 -131.5q-243 0 -386.5 134t-143.5 363z" />
<glyph unicode="K" horiz-adv-x="1401" d="M109 0v1443h367v-634h8l491 634h394l-503 -641l532 -802h-431l-368 564l-123 -156v-408h-367z" />
<glyph unicode="L" horiz-adv-x="1132" d="M109 0v1443h367v-1147h597v-296h-964z" />
<glyph unicode="M" horiz-adv-x="1802" d="M109 0v1443h424l364 -927h8l364 927h424v-1443h-323v901h-7l-357 -886h-210l-356 886h-8v-901h-323z" />
<glyph unicode="N" horiz-adv-x="1479" d="M109 0v1443h293l612 -839h8v839h348v-1443h-290l-615 847h-8v-847h-348z" />
<glyph unicode="O" horiz-adv-x="1564" d="M69 721q0 345 192.5 546t520.5 201t520 -201t192 -546t-192 -545.5t-520 -200.5q-329 0 -521 200.5t-192 545.5zM443 721q0 -205 92 -326.5t247 -121.5q154 0 246.5 121.5t92.5 326.5q0 206 -92.5 327.5t-246.5 121.5t-246.5 -121.5t-92.5 -327.5z" />
<glyph unicode="P" horiz-adv-x="1315" d="M109 0v1443h633q233 0 376 -140t143 -371q0 -230 -150 -369.5t-392 -139.5h-243v-423h-367zM476 699h166q118 0 183 60t65 172t-64.5 171.5t-181.5 59.5h-168v-463z" />
<glyph unicode="Q" horiz-adv-x="1563" d="M69 721q0 344 192.5 545.5t520.5 201.5q327 0 519 -201.5t192 -545.5q0 -182 -54.5 -326t-158.5 -235l179 -281h-341l-87 133q-114 -37 -249 -37q-330 0 -521.5 199t-191.5 547zM443 721q0 -206 92.5 -329.5t246.5 -123.5q43 0 76 10l-146 229h311l32 -43q65 105 65 257 q0 206 -92 330t-246 124t-246.5 -124t-92.5 -330z" />
<glyph unicode="R" horiz-adv-x="1358" d="M109 0v1443h620q268 0 411 -125t143 -351q0 -136 -65 -246.5t-181 -161.5l288 -559h-412l-247 505h-190v-505h-367zM476 756h217q101 0 158 55t57 149q0 93 -59 149.5t-157 56.5h-216v-410z" />
<glyph unicode="S" horiz-adv-x="1334" d="M63 418h349q10 -73 83.5 -119t176.5 -46q106 0 171 42.5t65 108.5q0 60 -50.5 93.5t-174.5 59.5l-189 37q-199 38 -301 143.5t-102 270.5q0 208 160.5 334t413.5 126q268 0 421.5 -120.5t156.5 -325.5h-338q-5 78 -70 123t-166 45q-96 0 -154.5 -40t-58.5 -106 q0 -58 50.5 -93.5t164.5 -58.5l187 -35q213 -41 313 -141t100 -271q0 -215 -165 -342.5t-444 -127.5q-277 0 -436.5 117t-162.5 326z" />
<glyph unicode="T" horiz-adv-x="1259" d="M46 1147v296h1167v-296h-400v-1147h-367v1147h-400z" />
<glyph unicode="U" horiz-adv-x="1461" d="M109 512v931h367v-892q0 -127 66.5 -197.5t188.5 -70.5t188 70.5t66 197.5v892h367v-931q0 -243 -170 -390t-451 -147q-282 0 -452 147t-170 390z" />
<glyph unicode="V" horiz-adv-x="1440" d="M29 1443h417l278 -1084h8l277 1084h402l-460 -1443h-462z" />
<glyph unicode="W" horiz-adv-x="2022" d="M41 1443h379l195 -975h8l241 975h294l241 -975h8l195 975h379l-377 -1443h-346l-243 901h-8l-243 -901h-346z" />
<glyph unicode="X" horiz-adv-x="1458" d="M42 0l441 723v8l-440 712h428l265 -488h7l267 488h407l-459 -716v-7l455 -720h-412l-280 468h-8l-281 -468h-390z" />
<glyph unicode="Y" horiz-adv-x="1419" d="M29 1443h394l287 -600h7l286 600h387l-497 -947v-496h-367v496z" />
<glyph unicode="Z" horiz-adv-x="1307" d="M84 0v233l686 907v7h-675v296h1106v-233l-683 -907v-7h705v-296h-1139z" />
<glyph unicode="[" horiz-adv-x="803" d="M117 -240v1684h639v-257h-299v-1171h312v-256h-652z" />
<glyph unicode="\" horiz-adv-x="737" d="M0 1443h337l400 -1718h-329z" />
<glyph unicode="]" horiz-adv-x="803" d="M34 16h312v1171h-299v257h639v-1684h-652v256z" />
<glyph unicode="^" horiz-adv-x="1021" d="M24 826l340 603h297l337 -603h-313l-166 325h-18l-174 -325h-303z" />
<glyph unicode="_" horiz-adv-x="872" d="M-42 -107h956v-266h-956v266z" />
<glyph unicode="`" horiz-adv-x="1013" d="M236 1585h312l227 -316h-275z" />
<glyph unicode="a" horiz-adv-x="1191" d="M45 322q0 155 115.5 241t335.5 100l261 16v64q0 67 -44.5 103.5t-120.5 36.5q-71 0 -117 -33.5t-54 -86.5h-319q7 169 144.5 271.5t362.5 102.5q222 0 358 -103.5t136 -271.5v-762h-344v160h-7q-44 -82 -135.5 -128.5t-195.5 -46.5q-159 0 -267.5 94.5t-108.5 242.5z M396 346q0 -53 40.5 -84t109.5 -31q88 0 149.5 47.5t61.5 122.5v77l-205 -14q-75 -5 -115.5 -36t-40.5 -82z" />
<glyph unicode="b" horiz-adv-x="1293" d="M95 0v1515h354v-597h8q43 100 131 155t206 55q211 0 328 -150t117 -421t-116.5 -421.5t-325.5 -150.5q-121 0 -210.5 54t-132.5 152h-7v-191h-352zM448 556q0 -133 58.5 -212.5t156.5 -79.5t156 79.5t58 213.5q0 133 -58.5 212.5t-155.5 79.5t-156 -80t-59 -213z" />
<glyph unicode="c" horiz-adv-x="1185" d="M54 557q0 268 151 424t410 156q232 0 373.5 -126t149.5 -334h-325q-9 87 -60.5 138.5t-131.5 51.5q-98 0 -153.5 -81.5t-55.5 -228.5q0 -149 55 -229.5t154 -80.5q81 0 131.5 47.5t60.5 134.5h326q-8 -210 -148.5 -331.5t-373.5 -121.5q-261 0 -412 155t-151 426z" />
<glyph unicode="d" horiz-adv-x="1289" d="M54 559q0 265 120 417t328 152q119 0 207.5 -57.5t126.5 -152.5h7v597h355v-1515h-353v191h-6q-35 -91 -127 -148.5t-213 -57.5q-207 0 -326 153t-119 421zM416 557q0 -136 57.5 -214.5t157.5 -78.5q99 0 156.5 78t57.5 214q0 135 -57.5 214t-156.5 79t-157 -78.5 t-58 -213.5z" />
<glyph unicode="e" horiz-adv-x="1205" d="M54 551q0 269 149 427.5t403 158.5q249 0 397.5 -151.5t148.5 -405.5v-101h-753v-22q0 -102 62 -165.5t162 -63.5q74 0 128 32.5t74 89.5h320q-26 -171 -168.5 -272.5t-358.5 -101.5q-264 0 -414 153t-150 422zM403 682h414q-5 92 -61.5 147.5t-144.5 55.5 q-85 0 -143 -57t-65 -146z" />
<glyph unicode="f" horiz-adv-x="789" d="M29 851v262h149v97q0 164 90 234.5t302 70.5q74 0 156 -11v-234q-37 7 -81 7q-64 0 -93 -22.5t-29 -71.5v-70h204v-262h-195v-851h-354v851h-149z" />
<glyph unicode="g" horiz-adv-x="1287" d="M54 560q0 265 120 416.5t329 151.5q118 0 207.5 -57.5t128.5 -152.5h6v195h353v-1091q0 -198 -157 -316.5t-417 -118.5q-236 0 -384 92.5t-155 247.5h344q11 -47 67.5 -75.5t133.5 -28.5q97 0 155 46.5t58 126.5v211h-7q-34 -89 -125.5 -142.5t-213.5 -53.5 q-201 0 -322 146.5t-121 402.5zM416 558q0 -135 57 -209.5t157 -74.5t157.5 74.5t57.5 208.5t-58 213t-157 79t-156.5 -78.5t-57.5 -212.5z" />
<glyph unicode="h" horiz-adv-x="1290" d="M95 0v1515h347v-611h7q44 111 137 169.5t222 58.5q186 0 292 -111.5t106 -308.5v-712h-355v636q0 96 -52.5 151.5t-143.5 55.5t-148.5 -60.5t-57.5 -155.5v-627h-354z" />
<glyph unicode="i" horiz-adv-x="537" d="M86 1380q0 74 53 124.5t129 50.5t129.5 -50.5t53.5 -124.5q0 -75 -53 -125t-130 -50q-76 0 -129 50t-53 125zM91 0v1113h355v-1113h-355z" />
<glyph unicode="j" horiz-adv-x="537" d="M-80 -107q20 -2 42 -2q69 0 99 25t30 83v1114h355v-1127q0 -169 -109.5 -259.5t-313.5 -90.5q-65 0 -103 4v253zM86 1380q0 74 53 124.5t129 50.5t129.5 -50.5t53.5 -124.5q0 -75 -53 -125t-130 -50q-76 0 -129 50t-53 125z" />
<glyph unicode="k" horiz-adv-x="1179" d="M95 0v1515h354v-828h7l327 426h396l-400 -477l423 -636h-408l-277 424l-68 -79v-345h-354z" />
<glyph unicode="l" horiz-adv-x="545" d="M95 0v1515h354v-1515h-354z" />
<glyph unicode="m" horiz-adv-x="1868" d="M89 0v1113h344v-214h7q33 107 119 170t199 63q124 0 205 -61.5t105 -174.5h7q33 108 126.5 172t217.5 64q163 0 264 -104.5t101 -273.5v-754h-354v664q0 89 -40.5 134.5t-119.5 45.5q-75 0 -119.5 -50t-44.5 -134v-660h-338v669q0 84 -41.5 129.5t-118.5 45.5 q-74 0 -119.5 -51t-45.5 -135v-658h-354z" />
<glyph unicode="n" horiz-adv-x="1276" d="M89 0v1113h344v-209h7q45 111 136 169.5t219 58.5q186 0 291.5 -111t105.5 -308v-713h-355v637q0 97 -50.5 151.5t-141.5 54.5q-90 0 -146 -60t-56 -155v-628h-354z" />
<glyph unicode="o" horiz-adv-x="1242" d="M54 557q0 269 153 424.5t414 155.5q262 0 414.5 -154.5t152.5 -425.5q0 -275 -151 -428t-416 -153t-416 153.5t-151 427.5zM413 557q0 -153 55 -236.5t153 -83.5t153 83.5t55 236.5q0 149 -56 234t-152 85q-97 0 -152.5 -84.5t-55.5 -234.5z" />
<glyph unicode="p" horiz-adv-x="1287" d="M89 -339v1452h352v-195h7q42 99 131 154.5t208 55.5q211 0 328.5 -150t117.5 -421t-116.5 -421.5t-325.5 -150.5q-121 0 -210 54t-131 151h-7v-529h-354zM442 556q0 -134 58 -213t156 -79t156 79.5t58 213.5q0 133 -58.5 212.5t-155.5 79.5t-155.5 -80t-58.5 -213z" />
<glyph unicode="q" horiz-adv-x="1287" d="M54 559q0 265 120 417t329 152q119 0 208.5 -57.5t127.5 -152.5h6v195h353v-1452h-355v529h-7q-35 -91 -126.5 -148t-212.5 -57q-206 0 -324.5 153t-118.5 421zM416 557q0 -137 57 -215t157 -78t157.5 78t57.5 214q0 134 -58 213.5t-157 79.5t-156.5 -78.5t-57.5 -213.5z " />
<glyph unicode="r" horiz-adv-x="816" d="M89 0v1113h344v-209h7q61 224 263 224q48 0 90 -14v-304q-46 20 -114 20q-114 0 -175 -62.5t-61 -179.5v-588h-354z" />
<glyph unicode="s" horiz-adv-x="1128" d="M43 349h344q8 -63 57.5 -98t129.5 -35q74 0 116.5 25.5t42.5 70.5q0 35 -28.5 56t-94.5 35l-209 44q-163 34 -247.5 118t-84.5 211q0 166 133.5 263.5t360.5 97.5q225 0 357 -100t134 -271h-324q-2 60 -48.5 95.5t-122.5 35.5q-67 0 -108 -27t-41 -71q0 -67 128 -94 l230 -48q167 -35 241.5 -107t74.5 -198q0 -171 -142 -273.5t-375 -102.5q-237 0 -375 100.5t-149 272.5z" />
<glyph unicode="t" horiz-adv-x="797" d="M29 851v262h149v246h354v-246h201v-262h-201v-475q0 -117 129 -117q37 0 72 5v-252q-61 -14 -156 -14q-214 0 -306.5 71.5t-92.5 235.5v546h-149z" />
<glyph unicode="u" horiz-adv-x="1276" d="M84 399v714h354v-636q0 -99 53.5 -153t142.5 -54q87 0 142.5 59.5t55.5 155.5v628h355v-1113h-345v210h-7q-38 -109 -127.5 -169t-214.5 -60q-183 0 -296 112t-113 306z" />
<glyph unicode="v" horiz-adv-x="1150" d="M-2 1113h381l199 -814h7l196 814h370l-370 -1113h-408z" />
<glyph unicode="w" horiz-adv-x="1729" d="M15 1113h357l145 -791h7l174 791h338l176 -791h7l145 791h350l-288 -1113h-382l-179 755h-7l-178 -755h-376z" />
<glyph unicode="x" horiz-adv-x="1163" d="M17 0l336 554l-336 559h401l170 -359h7l169 359h383l-336 -552l335 -561h-384l-187 369h-7l-183 -369h-368z" />
<glyph unicode="y" horiz-adv-x="1194" d="M6 1113h391l205 -845h7l205 845h374l-358 -1111q-71 -222 -203.5 -315.5t-372.5 -93.5q-119 0 -129 2v268q5 -1 62 -1q176 0 194 98l5 31z" />
<glyph unicode="z" horiz-adv-x="1095" d="M68 0v189l529 651v7h-516v266h929v-217l-482 -623v-7h499v-266h-959z" />
<glyph unicode="{" horiz-adv-x="891" d="M108 453v310q91 0 126.5 45.5t35.5 161.5v158q0 209 106.5 298.5t353.5 89.5h128v-250h-45q-121 0 -162.5 -40.5t-41.5 -157.5v-213q0 -110 -53 -165.5t-169 -65.5v-33q109 -9 165.5 -73.5t56.5 -180.5v-230q0 -116 42 -157t162 -41h45v-249h-128q-246 0 -353 92 t-107 305v191q0 116 -35 160.5t-127 44.5z" />
<glyph unicode="|" horiz-adv-x="686" d="M173 -275v1718h340v-1718h-340z" />
<glyph unicode="}" horiz-adv-x="891" d="M34 -91h44q120 0 161.5 41t41.5 157v230q0 115 57.5 180t167.5 74v33q-117 10 -171 65.5t-54 165.5v213q0 117 -41 157.5t-162 40.5h-44v250h129q247 0 352 -89.5t105 -298.5v-158q0 -116 36 -161.5t128 -45.5v-310q-92 0 -128 -44.5t-36 -160.5v-191q0 -214 -106 -305.5 t-351 -91.5h-129v249z" />
<glyph unicode="~" horiz-adv-x="1178" d="M44 512q-13 214 76.5 340t253.5 126q70 0 133.5 -31.5t133.5 -101.5q39 -40 66.5 -55.5t59.5 -15.5q100 0 103 178h263q13 -214 -76 -340t-253 -126q-69 0 -131 31t-132 100q-41 41 -69 57t-61 16q-100 0 -103 -178h-264z" />
<glyph unicode="&#xa2;" horiz-adv-x="1372" d="M115 691q0 223 120 372.5t322 191.5v196h279v-191q178 -31 294 -148.5t127 -285.5h-324q-14 77 -74 125t-143 48q-108 0 -177.5 -83t-69.5 -225q0 -145 69 -228.5t177 -83.5q87 0 145 43t73 121h324q-13 -170 -127 -283t-294 -143v-189h-279v195q-203 42 -322.5 192 t-119.5 376z" />
<glyph unicode="&#xa3;" horiz-adv-x="1372" d="M110 0v274q135 15 217.5 101t82.5 213q0 12 -2 36h-292v240h218q-57 141 -57 234q0 183 151.5 283.5t428.5 100.5q91 0 191.5 -14.5t154.5 -35.5v-276q-54 22 -136 36t-157 14q-128 0 -198 -46.5t-70 -130.5q0 -65 37 -165h385v-240h-314v-11q0 -94 -45.5 -178.5 t-114.5 -126.5v-10h676v-298h-1156z" />
<glyph unicode="&#xa5;" horiz-adv-x="1372" d="M6 1443h391l285 -595h11l282 595h391l-409 -777h181v-182h-268v-120h268v-182h-268v-182h-367v182h-268v182h268v120h-268v182h181z" />
<glyph unicode="&#xa8;" horiz-adv-x="1013" d="M143 1398q0 59 42 100t105 41t105.5 -41t42.5 -100q0 -58 -42.5 -99.5t-105.5 -41.5q-62 0 -104.5 41.5t-42.5 99.5zM576 1398q0 59 42 100t105 41t105 -41t42 -100t-42 -100t-105 -41t-105 41t-42 100z" />
<glyph unicode="&#xa9;" horiz-adv-x="1692" d="M60 663q0 161 62 306.5t167.5 250.5t251 167t305.5 62q214 0 395 -105t286 -286t105 -395q0 -161 -62 -306.5t-167.5 -251t-251 -167.5t-305.5 -62t-305.5 62t-251 167.5t-167.5 251t-62 306.5zM236 663q0 -125 48.5 -238.5t130 -195t194.5 -129.5t237 -48 q125 0 237.5 48t194.5 129.5t130 195t48 238.5q0 167 -81.5 307.5t-222 221.5t-306.5 81q-124 0 -237 -48t-194.5 -129t-130 -194.5t-48.5 -238.5zM486 664q0 178 100.5 281.5t272.5 103.5q149 0 243 -80.5t105 -212.5h-214q-8 52 -42.5 83t-87.5 31q-68 0 -106 -54.5 t-38 -151.5q0 -100 37.5 -154t106.5 -54q53 0 87.5 28t42.5 79h214q-11 -132 -103.5 -209t-242.5 -77q-174 0 -274.5 103.5t-100.5 283.5z" />
<glyph unicode="&#xab;" horiz-adv-x="1384" d="M101 562v8l347 409h307l-344 -408v-8l344 -410h-314zM629 562v8l348 409h306l-344 -408v-8l344 -410h-313z" />
<glyph unicode="&#xad;" horiz-adv-x="918" d="M130 431v305h658v-305h-658z" />
<glyph unicode="&#xae;" horiz-adv-x="1166" d="M69 955q0 211 151 361.5t363 150.5q140 0 258 -68.5t187 -186.5t69 -257q0 -104 -40.5 -198.5t-109.5 -163.5t-164 -109.5t-200 -40.5q-212 0 -363 150.5t-151 361.5zM217 955q0 -152 107 -259t259 -107t259 107t107 259t-107 259t-259 107t-259 -107t-107 -259zM376 731 v461h248q80 0 128.5 -41.5t48.5 -109.5q0 -50 -25 -87.5t-67 -51.5l116 -171h-161l-95 151h-56v-151h-137zM513 979h79q66 0 66 53q0 55 -64 55h-81v-108z" />
<glyph unicode="&#xb4;" horiz-adv-x="1013" d="M237 1269l227 316h312l-264 -316h-275z" />
<glyph unicode="&#xb8;" horiz-adv-x="1013" d="M343 -310q36 -12 105 -12q100 0 100 45q0 28 -25 39.5t-87 11.5h-56v114l63 126l164 -14l-48 -102q80 0 126.5 -43.5t46.5 -119.5q0 -92 -65 -141.5t-187 -49.5q-90 0 -137 15v131z" />
<glyph unicode="&#xbb;" horiz-adv-x="1384" d="M101 153l344 410v8l-344 408h306l348 -409v-8l-341 -409h-313zM629 153l344 410v8l-344 408h306l348 -409v-8l-341 -409h-313z" />
<glyph unicode="&#xc0;" d="M29 0l485 1443h449l485 -1443h-390l-91 317h-472l-92 -317h-374zM333 1877h313l232 -316h-269zM566 581h329l-160 556h-8z" />
<glyph unicode="&#xc1;" d="M29 0l485 1443h449l485 -1443h-390l-91 317h-472l-92 -317h-374zM566 581h329l-160 556h-8zM594 1554l232 316h313l-276 -316h-269z" />
<glyph unicode="&#xc2;" d="M29 0l485 1443h449l485 -1443h-390l-91 317h-472l-92 -317h-374zM338 1539l263 328h274l263 -328h-250l-147 194h-6l-147 -194h-250zM566 581h329l-160 556h-8z" />
<glyph unicode="&#xc3;" d="M29 0l485 1443h449l485 -1443h-390l-91 317h-472l-92 -317h-374zM372 1560q0 131 67 207t167 76q49 0 92 -20t68.5 -43.5t53.5 -43.5t51 -20q64 0 67 114h181q0 -130 -67.5 -208.5t-166.5 -78.5q-48 0 -90.5 20t-67.5 43.5t-53.5 43.5t-51.5 20q-33 0 -50 -30.5 t-19 -79.5h-181zM566 581h329l-160 556h-8z" />
<glyph unicode="&#xc8;" horiz-adv-x="1196" d="M109 0v1443h989v-296h-622v-287h585v-270h-585v-294h622v-296h-989zM198 1877h313l232 -316h-269z" />
<glyph unicode="&#xc9;" horiz-adv-x="1196" d="M109 0v1443h989v-296h-622v-287h585v-270h-585v-294h622v-296h-989zM459 1554l232 316h313l-276 -316h-269z" />
<glyph unicode="&#xca;" horiz-adv-x="1196" d="M109 0v1443h989v-296h-622v-287h585v-270h-585v-294h622v-296h-989zM203 1539l263 328h274l263 -328h-250l-147 194h-6l-147 -194h-250z" />
<glyph unicode="&#xcc;" horiz-adv-x="585" d="M-112 1877h313l232 -316h-269zM109 0v1443h367v-1443h-367z" />
<glyph unicode="&#xcd;" horiz-adv-x="585" d="M109 0v1443h367v-1443h-367zM149 1554l232 316h313l-276 -316h-269z" />
<glyph unicode="&#xd2;" horiz-adv-x="1564" d="M69 721q0 345 192.5 546t520.5 201t520 -201t192 -546t-192 -545.5t-520 -200.5q-329 0 -521 200.5t-192 545.5zM377 1877h313l232 -316h-269zM443 721q0 -205 92 -326.5t247 -121.5q154 0 246.5 121.5t92.5 326.5q0 206 -92.5 327.5t-246.5 121.5t-246.5 -121.5 t-92.5 -327.5z" />
<glyph unicode="&#xd3;" horiz-adv-x="1564" d="M69 721q0 345 192.5 546t520.5 201t520 -201t192 -546t-192 -545.5t-520 -200.5q-329 0 -521 200.5t-192 545.5zM443 721q0 -205 92 -326.5t247 -121.5q154 0 246.5 121.5t92.5 326.5q0 206 -92.5 327.5t-246.5 121.5t-246.5 -121.5t-92.5 -327.5zM638 1554l232 316h313 l-276 -316h-269z" />
<glyph unicode="&#xd4;" horiz-adv-x="1564" d="M69 721q0 345 192.5 546t520.5 201t520 -201t192 -546t-192 -545.5t-520 -200.5q-329 0 -521 200.5t-192 545.5zM382 1539l263 328h274l263 -328h-250l-147 194h-6l-147 -194h-250zM443 721q0 -205 92 -326.5t247 -121.5q154 0 246.5 121.5t92.5 326.5q0 206 -92.5 327.5 t-246.5 121.5t-246.5 -121.5t-92.5 -327.5z" />
<glyph unicode="&#xd5;" horiz-adv-x="1564" d="M69 721q0 345 192.5 546t520.5 201t520 -201t192 -546t-192 -545.5t-520 -200.5q-329 0 -521 200.5t-192 545.5zM416 1560q0 131 67 207t167 76q49 0 92 -20t68.5 -43.5t53.5 -43.5t51 -20q64 0 67 114h181q0 -130 -67.5 -208.5t-166.5 -78.5q-48 0 -90.5 20t-67.5 43.5 t-53.5 43.5t-51.5 20q-33 0 -50 -30.5t-19 -79.5h-181zM443 721q0 -205 92 -326.5t247 -121.5q154 0 246.5 121.5t92.5 326.5q0 206 -92.5 327.5t-246.5 121.5t-246.5 -121.5t-92.5 -327.5z" />
<glyph unicode="&#xd9;" horiz-adv-x="1461" d="M109 512v931h367v-892q0 -127 66.5 -197.5t188.5 -70.5t188 70.5t66 197.5v892h367v-931q0 -243 -170 -390t-451 -147q-282 0 -452 147t-170 390zM326 1877h313l232 -316h-269z" />
<glyph unicode="&#xda;" horiz-adv-x="1461" d="M109 512v931h367v-892q0 -127 66.5 -197.5t188.5 -70.5t188 70.5t66 197.5v892h367v-931q0 -243 -170 -390t-451 -147q-282 0 -452 147t-170 390zM587 1554l232 316h313l-276 -316h-269z" />
<glyph unicode="&#xdd;" horiz-adv-x="1419" d="M29 1443h394l287 -600h7l286 600h387l-497 -947v-496h-367v496zM566 1554l232 316h313l-276 -316h-269z" />
<glyph unicode="&#xe0;" horiz-adv-x="1191" d="M45 322q0 155 115.5 241t335.5 100l261 16v64q0 67 -44.5 103.5t-120.5 36.5q-71 0 -117 -33.5t-54 -86.5h-319q7 169 144.5 271.5t362.5 102.5q222 0 358 -103.5t136 -271.5v-762h-344v160h-7q-44 -82 -135.5 -128.5t-195.5 -46.5q-159 0 -267.5 94.5t-108.5 242.5z M214 1585h312l227 -316h-275zM396 346q0 -53 40.5 -84t109.5 -31q88 0 149.5 47.5t61.5 122.5v77l-205 -14q-75 -5 -115.5 -36t-40.5 -82z" />
<glyph unicode="&#xe1;" horiz-adv-x="1191" d="M45 322q0 155 115.5 241t335.5 100l261 16v64q0 67 -44.5 103.5t-120.5 36.5q-71 0 -117 -33.5t-54 -86.5h-319q7 169 144.5 271.5t362.5 102.5q222 0 358 -103.5t136 -271.5v-762h-344v160h-7q-44 -82 -135.5 -128.5t-195.5 -46.5q-159 0 -267.5 94.5t-108.5 242.5z M396 346q0 -53 40.5 -84t109.5 -31q88 0 149.5 47.5t61.5 122.5v77l-205 -14q-75 -5 -115.5 -36t-40.5 -82zM461 1269l227 316h312l-264 -316h-275z" />
<glyph unicode="&#xe2;" horiz-adv-x="1191" d="M45 322q0 155 115.5 241t335.5 100l261 16v64q0 67 -44.5 103.5t-120.5 36.5q-71 0 -117 -33.5t-54 -86.5h-319q7 169 144.5 271.5t362.5 102.5q222 0 358 -103.5t136 -271.5v-762h-344v160h-7q-44 -82 -135.5 -128.5t-195.5 -46.5q-159 0 -267.5 94.5t-108.5 242.5z M210 1255l260 327h269l261 -327h-256l-135 184h-8l-136 -184h-255zM396 346q0 -53 40.5 -84t109.5 -31q88 0 149.5 47.5t61.5 122.5v77l-205 -14q-75 -5 -115.5 -36t-40.5 -82z" />
<glyph unicode="&#xe3;" horiz-adv-x="1191" d="M45 322q0 155 115.5 241t335.5 100l261 16v64q0 67 -44.5 103.5t-120.5 36.5q-71 0 -117 -33.5t-54 -86.5h-319q7 169 144.5 271.5t362.5 102.5q222 0 358 -103.5t136 -271.5v-762h-344v160h-7q-44 -82 -135.5 -128.5t-195.5 -46.5q-159 0 -267.5 94.5t-108.5 242.5z M240 1275q0 131 67 207t167 76q49 0 92 -20t68.5 -43.5t53.5 -43.5t51 -20q64 0 67 114h181q0 -130 -67.5 -208.5t-166.5 -78.5q-48 0 -90.5 20t-67.5 43.5t-53.5 43.5t-51.5 20q-33 0 -50 -30.5t-19 -79.5h-181zM396 346q0 -53 40.5 -84t109.5 -31q88 0 149.5 47.5 t61.5 122.5v77l-205 -14q-75 -5 -115.5 -36t-40.5 -82z" />
<glyph unicode="&#xe8;" horiz-adv-x="1205" d="M54 551q0 269 149 427.5t403 158.5q249 0 397.5 -151.5t148.5 -405.5v-101h-753v-22q0 -102 62 -165.5t162 -63.5q74 0 128 32.5t74 89.5h320q-26 -171 -168.5 -272.5t-358.5 -101.5q-264 0 -414 153t-150 422zM214 1585h312l227 -316h-275zM403 682h414 q-5 92 -61.5 147.5t-144.5 55.5q-85 0 -143 -57t-65 -146z" />
<glyph unicode="&#xe9;" horiz-adv-x="1205" d="M54 551q0 269 149 427.5t403 158.5q249 0 397.5 -151.5t148.5 -405.5v-101h-753v-22q0 -102 62 -165.5t162 -63.5q74 0 128 32.5t74 89.5h320q-26 -171 -168.5 -272.5t-358.5 -101.5q-264 0 -414 153t-150 422zM403 682h414q-5 92 -61.5 147.5t-144.5 55.5 q-85 0 -143 -57t-65 -146zM461 1269l227 316h312l-264 -316h-275z" />
<glyph unicode="&#xea;" horiz-adv-x="1205" d="M54 551q0 269 149 427.5t403 158.5q249 0 397.5 -151.5t148.5 -405.5v-101h-753v-22q0 -102 62 -165.5t162 -63.5q74 0 128 32.5t74 89.5h320q-26 -171 -168.5 -272.5t-358.5 -101.5q-264 0 -414 153t-150 422zM210 1255l260 327h269l261 -327h-256l-135 184h-8 l-136 -184h-255zM403 682h414q-5 92 -61.5 147.5t-144.5 55.5q-85 0 -143 -57t-65 -146z" />
<glyph unicode="&#xec;" horiz-adv-x="537" d="M-123 1585h312l227 -316h-275zM91 0v1113h355v-1113h-355z" />
<glyph unicode="&#xed;" horiz-adv-x="537" d="M91 0v1113h355v-1113h-355zM124 1269l227 316h312l-264 -316h-275z" />
<glyph unicode="&#xf2;" horiz-adv-x="1242" d="M54 557q0 269 153 424.5t414 155.5q262 0 414.5 -154.5t152.5 -425.5q0 -275 -151 -428t-416 -153t-416 153.5t-151 427.5zM230 1585h312l227 -316h-275zM413 557q0 -153 55 -236.5t153 -83.5t153 83.5t55 236.5q0 149 -56 234t-152 85q-97 0 -152.5 -84.5t-55.5 -234.5z " />
<glyph unicode="&#xf3;" horiz-adv-x="1242" d="M54 557q0 269 153 424.5t414 155.5q262 0 414.5 -154.5t152.5 -425.5q0 -275 -151 -428t-416 -153t-416 153.5t-151 427.5zM413 557q0 -153 55 -236.5t153 -83.5t153 83.5t55 236.5q0 149 -56 234t-152 85q-97 0 -152.5 -84.5t-55.5 -234.5zM477 1269l227 316h312 l-264 -316h-275z" />
<glyph unicode="&#xf4;" horiz-adv-x="1242" d="M54 557q0 269 153 424.5t414 155.5q262 0 414.5 -154.5t152.5 -425.5q0 -275 -151 -428t-416 -153t-416 153.5t-151 427.5zM226 1255l260 327h269l261 -327h-256l-135 184h-8l-136 -184h-255zM413 557q0 -153 55 -236.5t153 -83.5t153 83.5t55 236.5q0 149 -56 234 t-152 85q-97 0 -152.5 -84.5t-55.5 -234.5z" />
<glyph unicode="&#xf5;" horiz-adv-x="1242" d="M54 557q0 269 153 424.5t414 155.5q262 0 414.5 -154.5t152.5 -425.5q0 -275 -151 -428t-416 -153t-416 153.5t-151 427.5zM256 1275q0 131 67 207t167 76q49 0 92 -20t68.5 -43.5t53.5 -43.5t51 -20q64 0 67 114h181q0 -130 -67.5 -208.5t-166.5 -78.5q-48 0 -90.5 20 t-67.5 43.5t-53.5 43.5t-51.5 20q-33 0 -50 -30.5t-19 -79.5h-181zM413 557q0 -153 55 -236.5t153 -83.5t153 83.5t55 236.5q0 149 -56 234t-152 85q-97 0 -152.5 -84.5t-55.5 -234.5z" />
<glyph unicode="&#xf9;" horiz-adv-x="1276" d="M84 399v714h354v-636q0 -99 53.5 -153t142.5 -54q87 0 142.5 59.5t55.5 155.5v628h355v-1113h-345v210h-7q-38 -109 -127.5 -169t-214.5 -60q-183 0 -296 112t-113 306zM246 1585h312l227 -316h-275z" />
<glyph unicode="&#xfa;" horiz-adv-x="1276" d="M84 399v714h354v-636q0 -99 53.5 -153t142.5 -54q87 0 142.5 59.5t55.5 155.5v628h355v-1113h-345v210h-7q-38 -109 -127.5 -169t-214.5 -60q-183 0 -296 112t-113 306zM493 1269l227 316h312l-264 -316h-275z" />
<glyph unicode="&#xfd;" horiz-adv-x="1194" d="M6 1113h391l205 -845h7l205 845h374l-358 -1111q-71 -222 -203.5 -315.5t-372.5 -93.5q-119 0 -129 2v268q5 -1 62 -1q176 0 194 98l5 31zM453 1269l227 316h312l-264 -316h-275z" />
<glyph unicode="&#x102;" d="M29 0l485 1443h449l485 -1443h-390l-91 317h-472l-92 -317h-374zM363 1865h208q3 -71 47.5 -115t119.5 -44t119.5 44t47.5 115h208q-4 -140 -104 -233t-271 -93t-271 93t-104 233zM566 581h329l-160 556h-8z" />
<glyph unicode="&#x103;" horiz-adv-x="1191" d="M45 322q0 155 115.5 241t335.5 100l261 16v64q0 67 -44.5 103.5t-120.5 36.5q-71 0 -117 -33.5t-54 -86.5h-319q7 169 144.5 271.5t362.5 102.5q222 0 358 -103.5t136 -271.5v-762h-344v160h-7q-44 -82 -135.5 -128.5t-195.5 -46.5q-159 0 -267.5 94.5t-108.5 242.5z M227 1581h210q2 -71 47 -116t121 -45t121 45t47 116h210q-4 -142 -105 -235.5t-273 -93.5t-273 93.5t-105 235.5zM396 346q0 -53 40.5 -84t109.5 -31q88 0 149.5 47.5t61.5 122.5v77l-205 -14q-75 -5 -115.5 -36t-40.5 -82z" />
<glyph unicode="&#x110;" horiz-adv-x="1510" d="M82 600v252h66v591h589q328 0 509.5 -185t181.5 -528q0 -345 -182 -537.5t-509 -192.5h-589v600h-66zM515 296h173q180 0 273.5 109t93.5 324q0 202 -96 310t-271 108h-173v-295h258v-252h-258v-304z" />
<glyph unicode="&#x111;" horiz-adv-x="1340" d="M77 559q0 267 119.5 419t328.5 152q111 0 196.5 -52t126.5 -144h19v315h-203v164h203v139h354v-139h78v-164h-78v-1249h-352v174h-19q-41 -90 -127.5 -140.5t-202.5 -50.5q-207 0 -325 153t-118 423zM440 557q0 -139 57 -217.5t157 -78.5q101 0 158.5 78.5t57.5 216.5 q0 137 -58 216.5t-158 79.5t-157 -79t-57 -216z" />
<glyph unicode="&#x128;" horiz-adv-x="585" d="M-73 1560q0 131 67 207t167 76q49 0 92 -20t68.5 -43.5t53.5 -43.5t51 -20q64 0 67 114h181q0 -130 -67.5 -208.5t-166.5 -78.5q-48 0 -90.5 20t-67.5 43.5t-53.5 43.5t-51.5 20q-33 0 -50 -30.5t-19 -79.5h-181zM109 0v1443h367v-1443h-367z" />
<glyph unicode="&#x129;" horiz-adv-x="537" d="M-97 1275q0 131 67 207t167 76q49 0 92 -20t68.5 -43.5t53.5 -43.5t51 -20q64 0 67 114h181q0 -130 -67.5 -208.5t-166.5 -78.5q-48 0 -90.5 20t-67.5 43.5t-53.5 43.5t-51.5 20q-33 0 -50 -30.5t-19 -79.5h-181zM91 0v1113h355v-1113h-355z" />
<glyph unicode="&#x168;" horiz-adv-x="1461" d="M109 512v931h367v-892q0 -127 66.5 -197.5t188.5 -70.5t188 70.5t66 197.5v892h367v-931q0 -243 -170 -390t-451 -147q-282 0 -452 147t-170 390zM365 1560q0 131 67 207t167 76q49 0 92 -20t68.5 -43.5t53.5 -43.5t51 -20q64 0 67 114h181q0 -130 -67.5 -208.5 t-166.5 -78.5q-48 0 -90.5 20t-67.5 43.5t-53.5 43.5t-51.5 20q-33 0 -50 -30.5t-19 -79.5h-181z" />
<glyph unicode="&#x169;" horiz-adv-x="1276" d="M84 399v714h354v-636q0 -99 53.5 -153t142.5 -54q87 0 142.5 59.5t55.5 155.5v628h355v-1113h-345v210h-7q-38 -109 -127.5 -169t-214.5 -60q-183 0 -296 112t-113 306zM272 1275q0 131 67 207t167 76q49 0 92 -20t68.5 -43.5t53.5 -43.5t51 -20q64 0 67 114h181 q0 -130 -67.5 -208.5t-166.5 -78.5q-48 0 -90.5 20t-67.5 43.5t-53.5 43.5t-51.5 20q-33 0 -50 -30.5t-19 -79.5h-181z" />
<glyph unicode="&#x1a0;" horiz-adv-x="1625" d="M70 723q0 341 190 543t512 202q95 0 180.5 -20t135.5 -44t103 -44t91 -20q86 0 86 104v193h269v-304q0 -92 -45.5 -147.5t-120.5 -55.5q-41 0 -63 10l-5 -6q91 -163 91 -419q0 -338 -193.5 -539t-519.5 -201q-327 0 -519 202t-192 546zM443 721q0 -205 92 -326.5 t247 -121.5q154 0 246.5 121.5t92.5 326.5q0 206 -92.5 327.5t-246.5 121.5t-246.5 -121.5t-92.5 -327.5z" />
<glyph unicode="&#x1a1;" horiz-adv-x="1365" d="M54 550q0 266 149.5 426.5t399.5 160.5q75 0 141.5 -15.5t112.5 -37.5t84 -44.5t71.5 -38t59.5 -15.5q41 0 60.5 25t19.5 80v138h255v-199q0 -125 -59 -196.5t-162 -71.5q-8 0 -28 2l-6 -7q36 -102 36 -208q0 -269 -151 -421t-419 -152q-262 0 -413 154t-151 420z M413 557q0 -151 55 -235.5t153 -84.5t153 84.5t55 235.5q0 149 -55.5 234t-152.5 85t-152.5 -85.5t-55.5 -233.5z" />
<glyph unicode="&#x1af;" horiz-adv-x="1655" d="M109 512v931h367v-892q0 -127 67 -197.5t188 -70.5t187.5 70.5t66.5 197.5v892h370v-26q43 -10 67 -1q24 4 34 26.5t10 69.5v143h256v-204q0 -136 -72 -210t-205 -74q-15 0 -51.5 3t-41.5 7v-665q0 -243 -170 -390t-451 -147t-451.5 147t-170.5 390z" />
<glyph unicode="&#x1b0;" horiz-adv-x="1484" d="M84 399v714h354v-636q0 -97 52 -152t144 -55q88 0 143 60t55 155v628h355v-23q46 -9 69 4q22 6 31 26t9 66v143h255v-199q0 -286 -258 -286q-94 0 -106 9v-853h-345v210h-7q-38 -109 -127.5 -169t-214.5 -60q-186 0 -297.5 114t-111.5 304z" />
<glyph unicode="&#x2c6;" horiz-adv-x="1014" d="M112 1255l260 327h269l261 -327h-256l-135 184h-8l-136 -184h-255z" />
<glyph unicode="&#x2da;" horiz-adv-x="1024" d="M278 1450q0 93 69 160t165 67q95 0 163.5 -67t68.5 -160t-68.5 -160t-163.5 -67t-164.5 67t-69.5 160zM417 1450q0 -37 28.5 -64.5t66.5 -27.5t66 27.5t28 64.5q0 38 -28 65.5t-66 27.5t-66.5 -27.5t-28.5 -65.5z" />
<glyph unicode="&#x2dc;" horiz-adv-x="1013" d="M133 1275q0 131 67 207t167 76q49 0 92 -20t68.5 -43.5t53.5 -43.5t51 -20q64 0 67 114h181q0 -130 -67.5 -208.5t-166.5 -78.5q-48 0 -90.5 20t-67.5 43.5t-53.5 43.5t-51.5 20q-33 0 -50 -30.5t-19 -79.5h-181z" />
<glyph unicode="&#x1ea0;" d="M29 0l485 1443h449l485 -1443h-390l-91 317h-472l-92 -317h-374zM566 581h329l-160 556h-8zM574 -329q0 68 47.5 115.5t116.5 47.5t116.5 -47.5t47.5 -115.5t-47.5 -115.5t-116.5 -47.5t-116.5 47.5t-47.5 115.5z" />
<glyph unicode="&#x1ea1;" horiz-adv-x="1191" d="M45 322q0 155 115.5 241t335.5 100l261 16v64q0 67 -44.5 103.5t-120.5 36.5q-71 0 -117 -33.5t-54 -86.5h-319q7 169 144.5 271.5t362.5 102.5q222 0 358 -103.5t136 -271.5v-762h-344v160h-7q-44 -82 -135.5 -128.5t-195.5 -46.5q-159 0 -267.5 94.5t-108.5 242.5z M396 346q0 -53 40.5 -84t109.5 -31q88 0 149.5 47.5t61.5 122.5v77l-205 -14q-75 -5 -115.5 -36t-40.5 -82zM431 -329q0 68 47.5 115.5t116.5 47.5t116.5 -47.5t47.5 -115.5t-47.5 -115.5t-116.5 -47.5t-116.5 47.5t-47.5 115.5z" />
<glyph unicode="&#x1ea2;" d="M29 0l485 1443h449l485 -1443h-390l-91 317h-472l-92 -317h-374zM541 1799v150q54 28 154 28q119 0 188.5 -57.5t69.5 -157.5q0 -77 -56.5 -145t-146.5 -106l-99 120q44 16 71.5 47t27.5 64q0 35 -27 55t-74 20q-62 0 -108 -18zM566 581h329l-160 556h-8z" />
<glyph unicode="&#x1ea3;" horiz-adv-x="1191" d="M45 322q0 155 115.5 241t335.5 100l261 16v64q0 67 -44.5 103.5t-120.5 36.5q-71 0 -117 -33.5t-54 -86.5h-319q7 169 144.5 271.5t362.5 102.5q222 0 358 -103.5t136 -271.5v-762h-344v160h-7q-44 -82 -135.5 -128.5t-195.5 -46.5q-159 0 -267.5 94.5t-108.5 242.5z M396 346q0 -53 40.5 -84t109.5 -31q88 0 149.5 47.5t61.5 122.5v77l-205 -14q-75 -5 -115.5 -36t-40.5 -82zM434 1513v150q68 28 158 28q117 0 186.5 -60.5t69.5 -162.5q0 -74 -53.5 -140t-149.5 -111l-97 116q53 26 75 52.5t22 65.5q0 36 -30 58.5t-79 22.5q-51 0 -102 -19 z" />
<glyph unicode="&#x1ea4;" d="M29 0l485 1443h449l485 -1443h-390l-91 317h-472l-92 -317h-374zM344 1545l258 287h274l257 -287h-257l-132 158h-10l-133 -158h-257zM566 581h329l-160 556h-8zM802 1907l198 263h290l-237 -263h-251z" />
<glyph unicode="&#x1ea5;" horiz-adv-x="1191" d="M45 322q0 155 115.5 241t335.5 100l261 16v64q0 67 -44.5 103.5t-120.5 36.5q-71 0 -117 -33.5t-54 -86.5h-319q7 169 144.5 271.5t362.5 102.5q222 0 358 -103.5t136 -271.5v-762h-344v160h-7q-44 -82 -135.5 -128.5t-195.5 -46.5q-159 0 -267.5 94.5t-108.5 242.5z M209 1255l256 317h280l256 -317h-255l-137 180h-8l-137 -180h-255zM396 346q0 -53 40.5 -84t109.5 -31q88 0 149.5 47.5t61.5 122.5v77l-205 -14q-75 -5 -115.5 -36t-40.5 -82zM747 1627l196 285h286l-232 -285h-250z" />
<glyph unicode="&#x1ea6;" d="M29 0l485 1443h449l485 -1443h-390l-91 317h-472l-92 -317h-374zM344 1545l257 287h274l257 -287h-257l-132 158h-10l-132 -158h-257zM566 581h329l-160 556h-8zM611 2170h290l198 -263h-251z" />
<glyph unicode="&#x1ea7;" horiz-adv-x="1191" d="M45 322q0 155 115.5 241t335.5 100l261 16v64q0 67 -44.5 103.5t-120.5 36.5q-71 0 -117 -33.5t-54 -86.5h-319q7 169 144.5 271.5t362.5 102.5q222 0 358 -103.5t136 -271.5v-762h-344v160h-7q-44 -82 -135.5 -128.5t-195.5 -46.5q-159 0 -267.5 94.5t-108.5 242.5z M209 1255l256 317h280l256 -317h-255l-137 180h-8l-137 -180h-255zM396 346q0 -53 40.5 -84t109.5 -31q88 0 149.5 47.5t61.5 122.5v77l-205 -14q-75 -5 -115.5 -36t-40.5 -82zM589 1912h286l195 -285h-249z" />
<glyph unicode="&#x1ea8;" d="M29 0l485 1443h449l485 -1443h-390l-91 317h-472l-92 -317h-374zM344 1545l258 287h273l258 -287h-257l-133 158h-9l-133 -158h-257zM566 581h329l-160 556h-8zM852 1999v148q54 27 151 27q116 0 183.5 -56.5t67.5 -153.5q0 -74 -45.5 -138t-124.5 -97l-100 118 q72 28 72 96q0 34 -26.5 54t-72.5 20q-56 0 -105 -18z" />
<glyph unicode="&#x1ea9;" horiz-adv-x="1191" d="M45 322q0 155 115.5 241t335.5 100l261 16v64q0 67 -44.5 103.5t-120.5 36.5q-71 0 -117 -33.5t-54 -86.5h-319q7 169 144.5 271.5t362.5 102.5q222 0 358 -103.5t136 -271.5v-762h-344v160h-7q-44 -82 -135.5 -128.5t-195.5 -46.5q-159 0 -267.5 94.5t-108.5 242.5z M209 1255l256 317h280l256 -317h-255l-137 180h-8l-137 -180h-255zM396 346q0 -53 40.5 -84t109.5 -31q88 0 149.5 47.5t61.5 122.5v77l-205 -14q-75 -5 -115.5 -36t-40.5 -82zM739 1762v148q54 21 125 21q115 0 183 -55t68 -149q0 -168 -181 -240l-97 109q42 18 65.5 46.5 t23.5 60.5q0 34 -26.5 53.5t-71.5 19.5q-54 0 -89 -14z" />
<glyph unicode="&#x1eaa;" d="M29 0l485 1443h449l485 -1443h-390l-91 317h-472l-92 -317h-374zM344 1545l257 282h274l257 -282h-257l-132 154h-10l-132 -154h-257zM367 1913q0 128 66 202t167 74q49 0 92 -19.5t67.5 -42.5t52 -42.5t50.5 -19.5q65 0 70 109h179q0 -128 -66.5 -204t-166.5 -76 q-49 0 -91 19.5t-66 42.5t-52 42.5t-52 19.5q-64 0 -71 -105h-179zM566 581h329l-160 556h-8z" />
<glyph unicode="&#x1eab;" horiz-adv-x="1191" d="M45 322q0 155 115.5 241t335.5 100l261 16v64q0 67 -44.5 103.5t-120.5 36.5q-71 0 -117 -33.5t-54 -86.5h-319q7 169 144.5 271.5t362.5 102.5q222 0 358 -103.5t136 -271.5v-762h-344v160h-7q-44 -82 -135.5 -128.5t-195.5 -46.5q-159 0 -267.5 94.5t-108.5 242.5z M209 1255l256 302h280l256 -302h-255l-137 167h-8l-137 -167h-255zM232 1647q0 131 67 206.5t167 75.5q49 0 92 -19.5t68 -43.5t53 -43.5t51 -19.5q64 0 67 113h181q0 -130 -67.5 -208.5t-166.5 -78.5q-48 0 -90.5 20t-67.5 43.5t-53 43.5t-51 20q-33 0 -50 -30t-19 -79 h-181zM396 346q0 -53 40.5 -84t109.5 -31q88 0 149.5 47.5t61.5 122.5v77l-205 -14q-75 -5 -115.5 -36t-40.5 -82z" />
<glyph unicode="&#x1eac;" d="M29 0l485 1443h449l485 -1443h-390l-91 317h-472l-92 -317h-374zM338 1539l263 328h274l263 -328h-250l-147 194h-6l-147 -194h-250zM566 581h329l-160 556h-8zM574 -329q0 68 47.5 115.5t116.5 47.5t116.5 -47.5t47.5 -115.5t-47.5 -115.5t-116.5 -47.5t-116.5 47.5 t-47.5 115.5z" />
<glyph unicode="&#x1ead;" horiz-adv-x="1191" d="M45 322q0 155 115.5 241t335.5 100l261 16v64q0 67 -44.5 103.5t-120.5 36.5q-71 0 -117 -33.5t-54 -86.5h-319q7 169 144.5 271.5t362.5 102.5q222 0 358 -103.5t136 -271.5v-762h-344v160h-7q-44 -82 -135.5 -128.5t-195.5 -46.5q-159 0 -267.5 94.5t-108.5 242.5z M210 1255l260 327h269l261 -327h-256l-135 184h-8l-136 -184h-255zM396 346q0 -53 40.5 -84t109.5 -31q88 0 149.5 47.5t61.5 122.5v77l-205 -14q-75 -5 -115.5 -36t-40.5 -82zM431 -329q0 68 47.5 115.5t116.5 47.5t116.5 -47.5t47.5 -115.5t-47.5 -115.5t-116.5 -47.5 t-116.5 47.5t-47.5 115.5z" />
<glyph unicode="&#x1eae;" d="M29 0l485 1443h449l485 -1443h-390l-91 317h-472l-92 -317h-374zM362 1850h210q2 -57 47.5 -97t118.5 -40t118.5 40t47.5 97h210q-1 -127 -103 -216t-273 -89t-273 89t-103 216zM566 581h329l-160 556h-8zM591 1907l198 263h290l-237 -263h-251z" />
<glyph unicode="&#x1eaf;" horiz-adv-x="1191" d="M45 322q0 155 115.5 241t335.5 100l261 16v64q0 67 -44.5 103.5t-120.5 36.5q-71 0 -117 -33.5t-54 -86.5h-319q7 169 144.5 271.5t362.5 102.5q222 0 358 -103.5t136 -271.5v-762h-344v160h-7q-44 -82 -135.5 -128.5t-195.5 -46.5q-159 0 -267.5 94.5t-108.5 242.5z M229 1581h209q2 -73 46 -117t121 -44t121 44t46 117h209q-4 -141 -104 -233.5t-272 -92.5t-272 92.5t-104 233.5zM396 346q0 -53 40.5 -84t109.5 -31q88 0 149.5 47.5t61.5 122.5v77l-205 -14q-75 -5 -115.5 -36t-40.5 -82zM470 1627l196 285h285l-232 -285h-249z" />
<glyph unicode="&#x1eb0;" d="M29 0l485 1443h449l485 -1443h-390l-91 317h-472l-92 -317h-374zM362 1850h210q2 -57 47.5 -97t118.5 -40t118.5 40t47.5 97h210q-1 -127 -103 -216t-273 -89t-273 89t-103 216zM397 2170h290l198 -263h-251zM566 581h329l-160 556h-8z" />
<glyph unicode="&#x1eb1;" horiz-adv-x="1191" d="M45 322q0 155 115.5 241t335.5 100l261 16v64q0 67 -44.5 103.5t-120.5 36.5q-71 0 -117 -33.5t-54 -86.5h-319q7 169 144.5 271.5t362.5 102.5q222 0 358 -103.5t136 -271.5v-762h-344v160h-7q-44 -82 -135.5 -128.5t-195.5 -46.5q-159 0 -267.5 94.5t-108.5 242.5z M229 1581h209q2 -73 46 -117t121 -44t121 44t46 117h209q-4 -141 -104 -233.5t-272 -92.5t-272 92.5t-104 233.5zM278 1896h279l173 -276h-215zM396 346q0 -53 40.5 -84t109.5 -31q88 0 149.5 47.5t61.5 122.5v77l-205 -14q-75 -5 -115.5 -36t-40.5 -82z" />
<glyph unicode="&#x1eb2;" d="M29 0l485 1443h449l485 -1443h-390l-91 317h-472l-92 -317h-374zM363 1838h211q4 -55 50 -90t114 -35t114.5 35t50.5 90h211q-3 -128 -108.5 -210.5t-267.5 -82.5q-161 0 -266.5 82.5t-108.5 210.5zM534 2037v142q22 11 66 19t82 8q109 0 172.5 -49.5t63.5 -134.5 q0 -67 -56.5 -134t-136.5 -95l-85 101q42 16 67 42t25 55q0 30 -27 48.5t-71 18.5q-56 0 -100 -21zM566 581h329l-160 556h-8z" />
<glyph unicode="&#x1eb3;" horiz-adv-x="1191" d="M45 322q0 155 115.5 241t335.5 100l261 16v64q0 67 -44.5 103.5t-120.5 36.5q-71 0 -117 -33.5t-54 -86.5h-319q7 169 144.5 271.5t362.5 102.5q222 0 358 -103.5t136 -271.5v-762h-344v160h-7q-44 -82 -135.5 -128.5t-195.5 -46.5q-159 0 -267.5 94.5t-108.5 242.5z M229 1581h209q2 -73 46 -117t121 -44t121 44t46 117h209q-4 -141 -104 -233.5t-272 -92.5t-272 92.5t-104 233.5zM396 346q0 -53 40.5 -84t109.5 -31q88 0 149.5 47.5t61.5 122.5v77l-205 -14q-75 -5 -115.5 -36t-40.5 -82zM423 1802v136q45 21 117 21q110 0 173 -51 t63 -139q0 -153 -168 -218l-91 102q44 22 62.5 44t18.5 50q0 32 -24.5 51t-66.5 19q-47 0 -84 -15z" />
<glyph unicode="&#x1eb4;" d="M29 0l485 1443h449l485 -1443h-390l-91 317h-472l-92 -317h-374zM363 1838h210q5 -53 49.5 -89t115.5 -36t115.5 36t49.5 89h210q-2 -122 -103.5 -207.5t-271.5 -85.5t-271.5 85.5t-103.5 207.5zM363 1921q0 122 67.5 194.5t169.5 72.5q49 0 92 -19t68 -42t52 -42t49 -19 q62 0 69 108h183q0 -127 -67.5 -203t-167.5 -76q-40 0 -75 12.5t-59 30.5t-45 36.5t-42 31t-40 12.5q-32 0 -50 -27.5t-21 -69.5h-183zM566 581h329l-160 556h-8z" />
<glyph unicode="&#x1eb5;" horiz-adv-x="1191" d="M45 322q0 155 115.5 241t335.5 100l261 16v64q0 67 -44.5 103.5t-120.5 36.5q-71 0 -117 -33.5t-54 -86.5h-319q7 169 144.5 271.5t362.5 102.5q222 0 358 -103.5t136 -271.5v-762h-344v160h-7q-44 -82 -135.5 -128.5t-195.5 -46.5q-159 0 -267.5 94.5t-108.5 242.5z M229 1581h209q2 -73 46 -117t121 -44t121 44t46 117h209q-4 -141 -104 -233.5t-272 -92.5t-272 92.5t-104 233.5zM232 1654q0 126 67 200.5t167 74.5q49 0 92 -19.5t68 -43.5t53 -43.5t51 -19.5q64 0 67 113h181q0 -130 -67.5 -208.5t-166.5 -78.5q-48 0 -90.5 20 t-67.5 43.5t-53 43.5t-51 20q-33 0 -50 -29t-19 -73h-181zM396 346q0 -53 40.5 -84t109.5 -31q88 0 149.5 47.5t61.5 122.5v77l-205 -14q-75 -5 -115.5 -36t-40.5 -82z" />
<glyph unicode="&#x1eb6;" d="M29 0l485 1443h449l485 -1443h-390l-91 317h-472l-92 -317h-374zM363 1865h208q3 -71 47.5 -115t119.5 -44t119.5 44t47.5 115h208q-4 -140 -104 -233t-271 -93t-271 93t-104 233zM566 581h329l-160 556h-8zM574 -329q0 68 47.5 115.5t116.5 47.5t116.5 -47.5 t47.5 -115.5t-47.5 -115.5t-116.5 -47.5t-116.5 47.5t-47.5 115.5z" />
<glyph unicode="&#x1eb7;" horiz-adv-x="1191" d="M45 322q0 155 115.5 241t335.5 100l261 16v64q0 67 -44.5 103.5t-120.5 36.5q-71 0 -117 -33.5t-54 -86.5h-319q7 169 144.5 271.5t362.5 102.5q222 0 358 -103.5t136 -271.5v-762h-344v160h-7q-44 -82 -135.5 -128.5t-195.5 -46.5q-159 0 -267.5 94.5t-108.5 242.5z M227 1581h210q2 -71 47 -116t121 -45t121 45t47 116h210q-4 -142 -105 -235.5t-273 -93.5t-273 93.5t-105 235.5zM396 346q0 -53 40.5 -84t109.5 -31q88 0 149.5 47.5t61.5 122.5v77l-205 -14q-75 -5 -115.5 -36t-40.5 -82zM431 -329q0 68 47.5 115.5t116.5 47.5 t116.5 -47.5t47.5 -115.5t-47.5 -115.5t-116.5 -47.5t-116.5 47.5t-47.5 115.5z" />
<glyph unicode="&#x1eb8;" horiz-adv-x="1196" d="M109 0v1443h989v-296h-622v-287h585v-270h-585v-294h622v-296h-989zM439 -329q0 68 47.5 115.5t116.5 47.5t116.5 -47.5t47.5 -115.5t-47.5 -115.5t-116.5 -47.5t-116.5 47.5t-47.5 115.5z" />
<glyph unicode="&#x1eb9;" horiz-adv-x="1205" d="M54 551q0 269 149 427.5t403 158.5q249 0 397.5 -151.5t148.5 -405.5v-101h-753v-22q0 -102 62 -165.5t162 -63.5q74 0 128 32.5t74 89.5h320q-26 -171 -168.5 -272.5t-358.5 -101.5q-264 0 -414 153t-150 422zM403 682h414q-5 92 -61.5 147.5t-144.5 55.5 q-85 0 -143 -57t-65 -146zM443 -329q0 68 47.5 115.5t116.5 47.5t116.5 -47.5t47.5 -115.5t-47.5 -115.5t-116.5 -47.5t-116.5 47.5t-47.5 115.5z" />
<glyph unicode="&#x1eba;" horiz-adv-x="1196" d="M109 0v1443h989v-296h-622v-287h585v-270h-585v-294h622v-296h-989zM406 1799v150q54 28 154 28q119 0 188.5 -57.5t69.5 -157.5q0 -77 -56.5 -145t-146.5 -106l-99 120q44 16 71.5 47t27.5 64q0 35 -27 55t-74 20q-62 0 -108 -18z" />
<glyph unicode="&#x1ebb;" horiz-adv-x="1205" d="M54 551q0 269 149 427.5t403 158.5q249 0 397.5 -151.5t148.5 -405.5v-101h-753v-22q0 -102 62 -165.5t162 -63.5q74 0 128 32.5t74 89.5h320q-26 -171 -168.5 -272.5t-358.5 -101.5q-264 0 -414 153t-150 422zM403 682h414q-5 92 -61.5 147.5t-144.5 55.5 q-85 0 -143 -57t-65 -146zM434 1513v150q68 28 158 28q117 0 186.5 -60.5t69.5 -162.5q0 -74 -53.5 -140t-149.5 -111l-97 116q53 26 75 52.5t22 65.5q0 36 -30 58.5t-79 22.5q-51 0 -102 -19z" />
<glyph unicode="&#x1ebc;" horiz-adv-x="1196" d="M109 0v1443h989v-296h-622v-287h585v-270h-585v-294h622v-296h-989zM237 1560q0 131 67 207t167 76q49 0 92 -20t68.5 -43.5t53.5 -43.5t51 -20q64 0 67 114h181q0 -130 -67.5 -208.5t-166.5 -78.5q-48 0 -90.5 20t-67.5 43.5t-53.5 43.5t-51.5 20q-33 0 -50 -30.5 t-19 -79.5h-181z" />
<glyph unicode="&#x1ebd;" horiz-adv-x="1205" d="M54 551q0 269 149 427.5t403 158.5q249 0 397.5 -151.5t148.5 -405.5v-101h-753v-22q0 -102 62 -165.5t162 -63.5q74 0 128 32.5t74 89.5h320q-26 -171 -168.5 -272.5t-358.5 -101.5q-264 0 -414 153t-150 422zM240 1275q0 131 67 207t167 76q49 0 92 -20t68.5 -43.5 t53.5 -43.5t51 -20q64 0 67 114h181q0 -130 -67.5 -208.5t-166.5 -78.5q-48 0 -90.5 20t-67.5 43.5t-53.5 43.5t-51.5 20q-33 0 -50 -30.5t-19 -79.5h-181zM403 682h414q-5 92 -61.5 147.5t-144.5 55.5q-85 0 -143 -57t-65 -146z" />
<glyph unicode="&#x1ebe;" horiz-adv-x="1196" d="M109 0v1443h989v-296h-622v-287h585v-270h-585v-294h622v-296h-989zM209 1545l258 287h274l257 -287h-257l-132 158h-10l-133 -158h-257zM667 1907l198 263h290l-237 -263h-251z" />
<glyph unicode="&#x1ebf;" horiz-adv-x="1205" d="M54 551q0 269 149 427.5t403 158.5q249 0 397.5 -151.5t148.5 -405.5v-101h-753v-22q0 -102 62 -165.5t162 -63.5q74 0 128 32.5t74 89.5h320q-26 -171 -168.5 -272.5t-358.5 -101.5q-264 0 -414 153t-150 422zM209 1255l256 317h280l256 -317h-255l-137 180h-8 l-137 -180h-255zM403 682h414q-5 92 -61.5 147.5t-144.5 55.5q-85 0 -143 -57t-65 -146zM747 1627l196 285h286l-232 -285h-250z" />
<glyph unicode="&#x1ec0;" horiz-adv-x="1196" d="M109 0v1443h989v-296h-622v-287h585v-270h-585v-294h622v-296h-989zM209 1545l257 287h274l257 -287h-257l-132 158h-10l-132 -158h-257zM476 2170h290l198 -263h-251z" />
<glyph unicode="&#x1ec1;" horiz-adv-x="1205" d="M54 551q0 269 149 427.5t403 158.5q249 0 397.5 -151.5t148.5 -405.5v-101h-753v-22q0 -102 62 -165.5t162 -63.5q74 0 128 32.5t74 89.5h320q-26 -171 -168.5 -272.5t-358.5 -101.5q-264 0 -414 153t-150 422zM209 1255l256 317h280l256 -317h-255l-137 180h-8 l-137 -180h-255zM403 682h414q-5 92 -61.5 147.5t-144.5 55.5q-85 0 -143 -57t-65 -146zM589 1912h286l195 -285h-249z" />
<glyph unicode="&#x1ec2;" horiz-adv-x="1196" d="M109 0v1443h989v-296h-622v-287h585v-270h-585v-294h622v-296h-989zM209 1545l258 287h273l258 -287h-257l-133 158h-9l-133 -158h-257zM717 1999v148q54 27 151 27q116 0 183.5 -56.5t67.5 -153.5q0 -74 -45.5 -138t-124.5 -97l-100 118q72 28 72 96q0 34 -26.5 54 t-72.5 20q-56 0 -105 -18z" />
<glyph unicode="&#x1ec3;" horiz-adv-x="1205" d="M54 551q0 269 149 427.5t403 158.5q249 0 397.5 -151.5t148.5 -405.5v-101h-753v-22q0 -102 62 -165.5t162 -63.5q74 0 128 32.5t74 89.5h320q-26 -171 -168.5 -272.5t-358.5 -101.5q-264 0 -414 153t-150 422zM209 1255l256 317h280l256 -317h-255l-137 180h-8 l-137 -180h-255zM403 682h414q-5 92 -61.5 147.5t-144.5 55.5q-85 0 -143 -57t-65 -146zM739 1762v148q54 21 125 21q115 0 183 -55t68 -149q0 -168 -181 -240l-97 109q42 18 65.5 46.5t23.5 60.5q0 34 -26.5 53.5t-71.5 19.5q-54 0 -89 -14z" />
<glyph unicode="&#x1ec4;" horiz-adv-x="1196" d="M109 0v1443h989v-296h-622v-287h585v-270h-585v-294h622v-296h-989zM209 1545l257 282h274l257 -282h-257l-132 154h-10l-132 -154h-257zM232 1913q0 128 66 202t167 74q49 0 92 -19.5t67.5 -42.5t52 -42.5t50.5 -19.5q65 0 70 109h179q0 -128 -66.5 -204t-166.5 -76 q-49 0 -91 19.5t-66 42.5t-52 42.5t-52 19.5q-64 0 -71 -105h-179z" />
<glyph unicode="&#x1ec5;" horiz-adv-x="1205" d="M54 551q0 269 149 427.5t403 158.5q249 0 397.5 -151.5t148.5 -405.5v-101h-753v-22q0 -102 62 -165.5t162 -63.5q74 0 128 32.5t74 89.5h320q-26 -171 -168.5 -272.5t-358.5 -101.5q-264 0 -414 153t-150 422zM209 1255l256 302h280l256 -302h-255l-137 167h-8 l-137 -167h-255zM232 1647q0 131 67 206.5t167 75.5q49 0 92 -19.5t68 -43.5t53 -43.5t51 -19.5q64 0 67 113h181q0 -130 -67.5 -208.5t-166.5 -78.5q-48 0 -90.5 20t-67.5 43.5t-53 43.5t-51 20q-33 0 -50 -30t-19 -79h-181zM403 682h414q-5 92 -61.5 147.5t-144.5 55.5 q-85 0 -143 -57t-65 -146z" />
<glyph unicode="&#x1ec6;" horiz-adv-x="1196" d="M109 0v1443h989v-296h-622v-287h585v-270h-585v-294h622v-296h-989zM203 1539l263 328h274l263 -328h-250l-147 194h-6l-147 -194h-250zM439 -329q0 68 47.5 115.5t116.5 47.5t116.5 -47.5t47.5 -115.5t-47.5 -115.5t-116.5 -47.5t-116.5 47.5t-47.5 115.5z" />
<glyph unicode="&#x1ec7;" horiz-adv-x="1205" d="M54 551q0 269 149 427.5t403 158.5q249 0 397.5 -151.5t148.5 -405.5v-101h-753v-22q0 -102 62 -165.5t162 -63.5q74 0 128 32.5t74 89.5h320q-26 -171 -168.5 -272.5t-358.5 -101.5q-264 0 -414 153t-150 422zM210 1255l260 327h269l261 -327h-256l-135 184h-8 l-136 -184h-255zM403 682h414q-5 92 -61.5 147.5t-144.5 55.5q-85 0 -143 -57t-65 -146zM443 -329q0 68 47.5 115.5t116.5 47.5t116.5 -47.5t47.5 -115.5t-47.5 -115.5t-116.5 -47.5t-116.5 47.5t-47.5 115.5z" />
<glyph unicode="&#x1ec8;" horiz-adv-x="585" d="M96 1799v150q54 28 154 28q119 0 188.5 -57.5t69.5 -157.5q0 -77 -56.5 -145t-146.5 -106l-99 120q44 16 71.5 47t27.5 64q0 35 -27 55t-74 20q-62 0 -108 -18zM109 0v1443h367v-1443h-367z" />
<glyph unicode="&#x1ec9;" horiz-adv-x="537" d="M91 0v1113h355v-1113h-355zM97 1513v150q68 28 158 28q117 0 186.5 -60.5t69.5 -162.5q0 -74 -53.5 -140t-149.5 -111l-97 116q53 26 75 52.5t22 65.5q0 36 -30 58.5t-79 22.5q-51 0 -102 -19z" />
<glyph unicode="&#x1eca;" horiz-adv-x="585" d="M109 0v1443h367v-1443h-367zM129 -329q0 68 47.5 115.5t116.5 47.5t116.5 -47.5t47.5 -115.5t-47.5 -115.5t-116.5 -47.5t-116.5 47.5t-47.5 115.5z" />
<glyph unicode="&#x1ecb;" horiz-adv-x="537" d="M86 1380q0 74 53 124.5t129 50.5t129.5 -50.5t53.5 -124.5q0 -75 -53 -125t-130 -50q-76 0 -129 50t-53 125zM91 0v1113h355v-1113h-355zM104 -329q0 68 47.5 115.5t116.5 47.5t116.5 -47.5t47.5 -115.5t-47.5 -115.5t-116.5 -47.5t-116.5 47.5t-47.5 115.5z" />
<glyph unicode="&#x1ecc;" horiz-adv-x="1564" d="M69 721q0 345 192.5 546t520.5 201t520 -201t192 -546t-192 -545.5t-520 -200.5q-329 0 -521 200.5t-192 545.5zM443 721q0 -205 92 -326.5t247 -121.5q154 0 246.5 121.5t92.5 326.5q0 206 -92.5 327.5t-246.5 121.5t-246.5 -121.5t-92.5 -327.5zM618 -329 q0 68 47.5 115.5t116.5 47.5t116.5 -47.5t47.5 -115.5t-47.5 -115.5t-116.5 -47.5t-116.5 47.5t-47.5 115.5z" />
<glyph unicode="&#x1ecd;" horiz-adv-x="1242" d="M54 557q0 269 153 424.5t414 155.5q262 0 414.5 -154.5t152.5 -425.5q0 -275 -151 -428t-416 -153t-416 153.5t-151 427.5zM413 557q0 -153 55 -236.5t153 -83.5t153 83.5t55 236.5q0 149 -56 234t-152 85q-97 0 -152.5 -84.5t-55.5 -234.5zM457 -329q0 68 47.5 115.5 t116.5 47.5t116.5 -47.5t47.5 -115.5t-47.5 -115.5t-116.5 -47.5t-116.5 47.5t-47.5 115.5z" />
<glyph unicode="&#x1ece;" horiz-adv-x="1564" d="M69 721q0 345 192.5 546t520.5 201t520 -201t192 -546t-192 -545.5t-520 -200.5q-329 0 -521 200.5t-192 545.5zM443 721q0 -205 92 -326.5t247 -121.5q154 0 246.5 121.5t92.5 326.5q0 206 -92.5 327.5t-246.5 121.5t-246.5 -121.5t-92.5 -327.5zM585 1799v150 q54 28 154 28q119 0 188.5 -57.5t69.5 -157.5q0 -77 -56.5 -145t-146.5 -106l-99 120q44 16 71.5 47t27.5 64q0 35 -27 55t-74 20q-62 0 -108 -18z" />
<glyph unicode="&#x1ecf;" horiz-adv-x="1242" d="M54 557q0 269 153 424.5t414 155.5q262 0 414.5 -154.5t152.5 -425.5q0 -275 -151 -428t-416 -153t-416 153.5t-151 427.5zM413 557q0 -153 55 -236.5t153 -83.5t153 83.5t55 236.5q0 149 -56 234t-152 85q-97 0 -152.5 -84.5t-55.5 -234.5zM450 1513v150q68 28 158 28 q117 0 186.5 -60.5t69.5 -162.5q0 -74 -53.5 -140t-149.5 -111l-97 116q53 26 75 52.5t22 65.5q0 36 -30 58.5t-79 22.5q-51 0 -102 -19z" />
<glyph unicode="&#x1ed0;" horiz-adv-x="1564" d="M69 721q0 345 192.5 546t520.5 201t520 -201t192 -546t-192 -545.5t-520 -200.5q-329 0 -521 200.5t-192 545.5zM388 1545l258 287h274l257 -287h-257l-132 158h-10l-133 -158h-257zM443 721q0 -205 92 -326.5t247 -121.5q154 0 246.5 121.5t92.5 326.5 q0 206 -92.5 327.5t-246.5 121.5t-246.5 -121.5t-92.5 -327.5zM846 1907l198 263h290l-237 -263h-251z" />
<glyph unicode="&#x1ed1;" horiz-adv-x="1242" d="M54 557q0 269 153 424.5t414 155.5q262 0 414.5 -154.5t152.5 -425.5q0 -275 -151 -428t-416 -153t-416 153.5t-151 427.5zM225 1255l256 317h280l256 -317h-255l-137 180h-8l-137 -180h-255zM413 557q0 -153 55 -236.5t153 -83.5t153 83.5t55 236.5q0 149 -56 234 t-152 85q-97 0 -152.5 -84.5t-55.5 -234.5zM763 1627l196 285h286l-232 -285h-250z" />
<glyph unicode="&#x1ed2;" horiz-adv-x="1564" d="M69 721q0 345 192.5 546t520.5 201t520 -201t192 -546t-192 -545.5t-520 -200.5q-329 0 -521 200.5t-192 545.5zM388 1545l257 287h274l257 -287h-257l-132 158h-10l-132 -158h-257zM443 721q0 -205 92 -326.5t247 -121.5q154 0 246.5 121.5t92.5 326.5 q0 206 -92.5 327.5t-246.5 121.5t-246.5 -121.5t-92.5 -327.5zM655 2170h290l198 -263h-251z" />
<glyph unicode="&#x1ed3;" horiz-adv-x="1242" d="M54 557q0 269 153 424.5t414 155.5q262 0 414.5 -154.5t152.5 -425.5q0 -275 -151 -428t-416 -153t-416 153.5t-151 427.5zM225 1255l256 317h280l256 -317h-255l-137 180h-8l-137 -180h-255zM413 557q0 -153 55 -236.5t153 -83.5t153 83.5t55 236.5q0 149 -56 234 t-152 85q-97 0 -152.5 -84.5t-55.5 -234.5zM605 1912h286l195 -285h-249z" />
<glyph unicode="&#x1ed4;" horiz-adv-x="1564" d="M69 721q0 345 192.5 546t520.5 201t520 -201t192 -546t-192 -545.5t-520 -200.5q-329 0 -521 200.5t-192 545.5zM388 1545l258 287h273l258 -287h-257l-133 158h-9l-133 -158h-257zM443 721q0 -205 92 -326.5t247 -121.5q154 0 246.5 121.5t92.5 326.5q0 206 -92.5 327.5 t-246.5 121.5t-246.5 -121.5t-92.5 -327.5zM896 1999v148q54 27 151 27q116 0 183.5 -56.5t67.5 -153.5q0 -74 -45.5 -138t-124.5 -97l-100 118q72 28 72 96q0 34 -26.5 54t-72.5 20q-56 0 -105 -18z" />
<glyph unicode="&#x1ed5;" horiz-adv-x="1242" d="M54 557q0 269 153 424.5t414 155.5q262 0 414.5 -154.5t152.5 -425.5q0 -275 -151 -428t-416 -153t-416 153.5t-151 427.5zM225 1255l256 317h280l256 -317h-255l-137 180h-8l-137 -180h-255zM413 557q0 -153 55 -236.5t153 -83.5t153 83.5t55 236.5q0 149 -56 234 t-152 85q-97 0 -152.5 -84.5t-55.5 -234.5zM755 1762v148q54 21 125 21q115 0 183 -55t68 -149q0 -168 -181 -240l-97 109q42 18 65.5 46.5t23.5 60.5q0 34 -26.5 53.5t-71.5 19.5q-54 0 -89 -14z" />
<glyph unicode="&#x1ed6;" horiz-adv-x="1564" d="M69 721q0 345 192.5 546t520.5 201t520 -201t192 -546t-192 -545.5t-520 -200.5q-329 0 -521 200.5t-192 545.5zM388 1545l257 282h274l257 -282h-257l-132 154h-10l-132 -154h-257zM411 1913q0 128 66 202t167 74q49 0 92 -19.5t67.5 -42.5t52 -42.5t50.5 -19.5 q65 0 70 109h179q0 -128 -66.5 -204t-166.5 -76q-49 0 -91 19.5t-66 42.5t-52 42.5t-52 19.5q-64 0 -71 -105h-179zM443 721q0 -205 92 -326.5t247 -121.5q154 0 246.5 121.5t92.5 326.5q0 206 -92.5 327.5t-246.5 121.5t-246.5 -121.5t-92.5 -327.5z" />
<glyph unicode="&#x1ed7;" horiz-adv-x="1242" d="M54 557q0 269 153 424.5t414 155.5q262 0 414.5 -154.5t152.5 -425.5q0 -275 -151 -428t-416 -153t-416 153.5t-151 427.5zM225 1255l256 302h280l256 -302h-255l-137 167h-8l-137 -167h-255zM248 1647q0 131 67 206.5t167 75.5q49 0 92 -19.5t68 -43.5t53 -43.5 t51 -19.5q64 0 67 113h181q0 -130 -67.5 -208.5t-166.5 -78.5q-48 0 -90.5 20t-67.5 43.5t-53 43.5t-51 20q-33 0 -50 -30t-19 -79h-181zM413 557q0 -153 55 -236.5t153 -83.5t153 83.5t55 236.5q0 149 -56 234t-152 85q-97 0 -152.5 -84.5t-55.5 -234.5z" />
<glyph unicode="&#x1ed8;" horiz-adv-x="1564" d="M69 721q0 345 192.5 546t520.5 201t520 -201t192 -546t-192 -545.5t-520 -200.5q-329 0 -521 200.5t-192 545.5zM382 1539l263 328h274l263 -328h-250l-147 194h-6l-147 -194h-250zM443 721q0 -205 92 -326.5t247 -121.5q154 0 246.5 121.5t92.5 326.5q0 206 -92.5 327.5 t-246.5 121.5t-246.5 -121.5t-92.5 -327.5zM618 -329q0 68 47.5 115.5t116.5 47.5t116.5 -47.5t47.5 -115.5t-47.5 -115.5t-116.5 -47.5t-116.5 47.5t-47.5 115.5z" />
<glyph unicode="&#x1ed9;" horiz-adv-x="1242" d="M54 557q0 269 153 424.5t414 155.5q262 0 414.5 -154.5t152.5 -425.5q0 -275 -151 -428t-416 -153t-416 153.5t-151 427.5zM226 1255l260 327h269l261 -327h-256l-135 184h-8l-136 -184h-255zM413 557q0 -153 55 -236.5t153 -83.5t153 83.5t55 236.5q0 149 -56 234 t-152 85q-97 0 -152.5 -84.5t-55.5 -234.5zM457 -329q0 68 47.5 115.5t116.5 47.5t116.5 -47.5t47.5 -115.5t-47.5 -115.5t-116.5 -47.5t-116.5 47.5t-47.5 115.5z" />
<glyph unicode="&#x1eda;" horiz-adv-x="1625" d="M70 723q0 341 190 543t512 202q95 0 180.5 -20t135.5 -44t103 -44t91 -20q86 0 86 104v193h269v-304q0 -92 -45.5 -147.5t-120.5 -55.5q-41 0 -63 10l-5 -6q91 -163 91 -419q0 -338 -193.5 -539t-519.5 -201q-327 0 -519 202t-192 546zM443 721q0 -205 92 -326.5 t247 -121.5q154 0 246.5 121.5t92.5 326.5q0 206 -92.5 327.5t-246.5 121.5t-246.5 -121.5t-92.5 -327.5zM638 1554l232 316h313l-276 -316h-269z" />
<glyph unicode="&#x1edb;" horiz-adv-x="1365" d="M54 550q0 266 149.5 426.5t399.5 160.5q75 0 141.5 -15.5t112.5 -37.5t84 -44.5t71.5 -38t59.5 -15.5q41 0 60.5 25t19.5 80v138h255v-199q0 -125 -59 -196.5t-162 -71.5q-8 0 -28 2l-6 -7q36 -102 36 -208q0 -269 -151 -421t-419 -152q-262 0 -413 154t-151 420z M413 557q0 -151 55 -235.5t153 -84.5t153 84.5t55 235.5q0 149 -55.5 234t-152.5 85t-152.5 -85.5t-55.5 -233.5zM477 1269l227 316h312l-264 -316h-275z" />
<glyph unicode="&#x1edc;" horiz-adv-x="1625" d="M70 723q0 341 190 543t512 202q95 0 180.5 -20t135.5 -44t103 -44t91 -20q86 0 86 104v193h269v-304q0 -92 -45.5 -147.5t-120.5 -55.5q-41 0 -63 10l-5 -6q91 -163 91 -419q0 -338 -193.5 -539t-519.5 -201q-327 0 -519 202t-192 546zM377 1877h313l232 -316h-269z M443 721q0 -205 92 -326.5t247 -121.5q154 0 246.5 121.5t92.5 326.5q0 206 -92.5 327.5t-246.5 121.5t-246.5 -121.5t-92.5 -327.5z" />
<glyph unicode="&#x1edd;" horiz-adv-x="1365" d="M54 550q0 266 149.5 426.5t399.5 160.5q75 0 141.5 -15.5t112.5 -37.5t84 -44.5t71.5 -38t59.5 -15.5q41 0 60.5 25t19.5 80v138h255v-199q0 -125 -59 -196.5t-162 -71.5q-8 0 -28 2l-6 -7q36 -102 36 -208q0 -269 -151 -421t-419 -152q-262 0 -413 154t-151 420z M230 1585h312l227 -316h-275zM413 557q0 -151 55 -235.5t153 -84.5t153 84.5t55 235.5q0 149 -55.5 234t-152.5 85t-152.5 -85.5t-55.5 -233.5z" />
<glyph unicode="&#x1ede;" horiz-adv-x="1625" d="M70 723q0 341 190 543t512 202q95 0 180.5 -20t135.5 -44t103 -44t91 -20q86 0 86 104v193h269v-304q0 -92 -45.5 -147.5t-120.5 -55.5q-41 0 -63 10l-5 -6q91 -163 91 -419q0 -338 -193.5 -539t-519.5 -201q-327 0 -519 202t-192 546zM443 721q0 -205 92 -326.5 t247 -121.5q154 0 246.5 121.5t92.5 326.5q0 206 -92.5 327.5t-246.5 121.5t-246.5 -121.5t-92.5 -327.5zM585 1799v150q54 28 154 28q119 0 188.5 -57.5t69.5 -157.5q0 -77 -56.5 -145t-146.5 -106l-99 120q44 16 71.5 47t27.5 64q0 35 -27 55t-74 20q-62 0 -108 -18z" />
<glyph unicode="&#x1edf;" horiz-adv-x="1365" d="M54 550q0 266 149.5 426.5t399.5 160.5q75 0 141.5 -15.5t112.5 -37.5t84 -44.5t71.5 -38t59.5 -15.5q41 0 60.5 25t19.5 80v138h255v-199q0 -125 -59 -196.5t-162 -71.5q-8 0 -28 2l-6 -7q36 -102 36 -208q0 -269 -151 -421t-419 -152q-262 0 -413 154t-151 420z M413 557q0 -151 55 -235.5t153 -84.5t153 84.5t55 235.5q0 149 -55.5 234t-152.5 85t-152.5 -85.5t-55.5 -233.5zM450 1513v150q68 28 158 28q117 0 186.5 -60.5t69.5 -162.5q0 -74 -53.5 -140t-149.5 -111l-97 116q53 26 75 52.5t22 65.5q0 36 -30 58.5t-79 22.5 q-51 0 -102 -19z" />
<glyph unicode="&#x1ee0;" horiz-adv-x="1625" d="M70 723q0 341 190 543t512 202q95 0 180.5 -20t135.5 -44t103 -44t91 -20q86 0 86 104v193h269v-304q0 -92 -45.5 -147.5t-120.5 -55.5q-41 0 -63 10l-5 -6q91 -163 91 -419q0 -338 -193.5 -539t-519.5 -201q-327 0 -519 202t-192 546zM416 1560q0 131 67 207t167 76 q49 0 92 -20t68.5 -43.5t53.5 -43.5t51 -20q64 0 67 114h181q0 -130 -67.5 -208.5t-166.5 -78.5q-48 0 -90.5 20t-67.5 43.5t-53.5 43.5t-51.5 20q-33 0 -50 -30.5t-19 -79.5h-181zM443 721q0 -205 92 -326.5t247 -121.5q154 0 246.5 121.5t92.5 326.5q0 206 -92.5 327.5 t-246.5 121.5t-246.5 -121.5t-92.5 -327.5z" />
<glyph unicode="&#x1ee1;" horiz-adv-x="1365" d="M54 550q0 266 149.5 426.5t399.5 160.5q75 0 141.5 -15.5t112.5 -37.5t84 -44.5t71.5 -38t59.5 -15.5q41 0 60.5 25t19.5 80v138h255v-199q0 -125 -59 -196.5t-162 -71.5q-8 0 -28 2l-6 -7q36 -102 36 -208q0 -269 -151 -421t-419 -152q-262 0 -413 154t-151 420z M256 1275q0 131 67 207t167 76q49 0 92 -20t68.5 -43.5t53.5 -43.5t51 -20q64 0 67 114h181q0 -130 -67.5 -208.5t-166.5 -78.5q-48 0 -90.5 20t-67.5 43.5t-53.5 43.5t-51.5 20q-33 0 -50 -30.5t-19 -79.5h-181zM413 557q0 -151 55 -235.5t153 -84.5t153 84.5t55 235.5 q0 149 -55.5 234t-152.5 85t-152.5 -85.5t-55.5 -233.5z" />
<glyph unicode="&#x1ee2;" horiz-adv-x="1625" d="M70 723q0 341 190 543t512 202q95 0 180.5 -20t135.5 -44t103 -44t91 -20q86 0 86 104v193h269v-304q0 -92 -45.5 -147.5t-120.5 -55.5q-41 0 -63 10l-5 -6q91 -163 91 -419q0 -338 -193.5 -539t-519.5 -201q-327 0 -519 202t-192 546zM443 721q0 -205 92 -326.5 t247 -121.5q154 0 246.5 121.5t92.5 326.5q0 206 -92.5 327.5t-246.5 121.5t-246.5 -121.5t-92.5 -327.5zM618 -329q0 68 47.5 115.5t116.5 47.5t116.5 -47.5t47.5 -115.5t-47.5 -115.5t-116.5 -47.5t-116.5 47.5t-47.5 115.5z" />
<glyph unicode="&#x1ee3;" horiz-adv-x="1365" d="M54 550q0 266 149.5 426.5t399.5 160.5q75 0 141.5 -15.5t112.5 -37.5t84 -44.5t71.5 -38t59.5 -15.5q41 0 60.5 25t19.5 80v138h255v-199q0 -125 -59 -196.5t-162 -71.5q-8 0 -28 2l-6 -7q36 -102 36 -208q0 -269 -151 -421t-419 -152q-262 0 -413 154t-151 420z M413 557q0 -151 55 -235.5t153 -84.5t153 84.5t55 235.5q0 149 -55.5 234t-152.5 85t-152.5 -85.5t-55.5 -233.5zM457 -329q0 68 47.5 115.5t116.5 47.5t116.5 -47.5t47.5 -115.5t-47.5 -115.5t-116.5 -47.5t-116.5 47.5t-47.5 115.5z" />
<glyph unicode="&#x1ee4;" horiz-adv-x="1461" d="M109 512v931h367v-892q0 -127 66.5 -197.5t188.5 -70.5t188 70.5t66 197.5v892h367v-931q0 -243 -170 -390t-451 -147q-282 0 -452 147t-170 390zM567 -329q0 68 47.5 115.5t116.5 47.5t116.5 -47.5t47.5 -115.5t-47.5 -115.5t-116.5 -47.5t-116.5 47.5t-47.5 115.5z" />
<glyph unicode="&#x1ee5;" horiz-adv-x="1276" d="M84 399v714h354v-636q0 -99 53.5 -153t142.5 -54q87 0 142.5 59.5t55.5 155.5v628h355v-1113h-345v210h-7q-38 -109 -127.5 -169t-214.5 -60q-183 0 -296 112t-113 306zM473 -329q0 68 47.5 115.5t116.5 47.5t116.5 -47.5t47.5 -115.5t-47.5 -115.5t-116.5 -47.5 t-116.5 47.5t-47.5 115.5z" />
<glyph unicode="&#x1ee6;" horiz-adv-x="1461" d="M109 512v931h367v-892q0 -127 66.5 -197.5t188.5 -70.5t188 70.5t66 197.5v892h367v-931q0 -243 -170 -390t-451 -147q-282 0 -452 147t-170 390zM534 1799v150q54 28 154 28q119 0 188.5 -57.5t69.5 -157.5q0 -77 -56.5 -145t-146.5 -106l-99 120q44 16 71.5 47t27.5 64 q0 35 -27 55t-74 20q-62 0 -108 -18z" />
<glyph unicode="&#x1ee7;" horiz-adv-x="1276" d="M84 399v714h354v-636q0 -99 53.5 -153t142.5 -54q87 0 142.5 59.5t55.5 155.5v628h355v-1113h-345v210h-7q-38 -109 -127.5 -169t-214.5 -60q-183 0 -296 112t-113 306zM466 1513v150q68 28 158 28q117 0 186.5 -60.5t69.5 -162.5q0 -74 -53.5 -140t-149.5 -111l-97 116 q53 26 75 52.5t22 65.5q0 36 -30 58.5t-79 22.5q-51 0 -102 -19z" />
<glyph unicode="&#x1ee8;" horiz-adv-x="1656" d="M109 512v931h367v-892q0 -127 67 -197.5t188 -70.5t187.5 70.5t66.5 197.5v892h370v-26q43 -10 67 -1q24 4 34 26.5t10 69.5v143h256v-204q0 -136 -72 -210t-205 -74q-15 0 -51.5 3t-41.5 7v-665q0 -243 -170 -390t-451 -147t-451.5 147t-170.5 390zM587 1554l232 316 h313l-276 -316h-269z" />
<glyph unicode="&#x1ee9;" horiz-adv-x="1484" d="M84 399v714h354v-636q0 -97 52 -152t144 -55q88 0 143 60t55 155v628h355v-23q46 -9 69 4q22 6 31 26t9 66v143h255v-199q0 -286 -258 -286q-94 0 -106 9v-853h-345v210h-7q-38 -109 -127.5 -169t-214.5 -60q-186 0 -297.5 114t-111.5 304zM493 1269l227 316h312 l-264 -316h-275z" />
<glyph unicode="&#x1eea;" horiz-adv-x="1656" d="M109 512v931h367v-892q0 -127 67 -197.5t188 -70.5t187.5 70.5t66.5 197.5v892h370v-26q43 -10 67 -1q24 4 34 26.5t10 69.5v143h256v-204q0 -136 -72 -210t-205 -74q-15 0 -51.5 3t-41.5 7v-665q0 -243 -170 -390t-451 -147t-451.5 147t-170.5 390zM326 1877h313 l232 -316h-269z" />
<glyph unicode="&#x1eeb;" horiz-adv-x="1484" d="M84 399v714h354v-636q0 -97 52 -152t144 -55q88 0 143 60t55 155v628h355v-23q46 -9 69 4q22 6 31 26t9 66v143h255v-199q0 -286 -258 -286q-94 0 -106 9v-853h-345v210h-7q-38 -109 -127.5 -169t-214.5 -60q-186 0 -297.5 114t-111.5 304zM246 1585h312l227 -316h-275z " />
<glyph unicode="&#x1eec;" horiz-adv-x="1656" d="M109 512v931h367v-892q0 -127 67 -197.5t188 -70.5t187.5 70.5t66.5 197.5v892h370v-26q43 -10 67 -1q24 4 34 26.5t10 69.5v143h256v-204q0 -136 -72 -210t-205 -74q-15 0 -51.5 3t-41.5 7v-665q0 -243 -170 -390t-451 -147t-451.5 147t-170.5 390zM534 1799v150 q54 28 154 28q119 0 188.5 -57.5t69.5 -157.5q0 -77 -56.5 -145t-146.5 -106l-99 120q44 16 71.5 47t27.5 64q0 35 -27 55t-74 20q-62 0 -108 -18z" />
<glyph unicode="&#x1eed;" horiz-adv-x="1484" d="M84 399v714h354v-636q0 -97 52 -152t144 -55q88 0 143 60t55 155v628h355v-23q46 -9 69 4q22 6 31 26t9 66v143h255v-199q0 -286 -258 -286q-94 0 -106 9v-853h-345v210h-7q-38 -109 -127.5 -169t-214.5 -60q-186 0 -297.5 114t-111.5 304zM466 1513v150q68 28 158 28 q117 0 186.5 -60.5t69.5 -162.5q0 -74 -53.5 -140t-149.5 -111l-97 116q53 26 75 52.5t22 65.5q0 36 -30 58.5t-79 22.5q-51 0 -102 -19z" />
<glyph unicode="&#x1eee;" horiz-adv-x="1656" d="M109 512v931h367v-892q0 -127 67 -197.5t188 -70.5t187.5 70.5t66.5 197.5v892h370v-26q43 -10 67 -1q24 4 34 26.5t10 69.5v143h256v-204q0 -136 -72 -210t-205 -74q-15 0 -51.5 3t-41.5 7v-665q0 -243 -170 -390t-451 -147t-451.5 147t-170.5 390zM365 1560 q0 131 67 207t167 76q49 0 92 -20t68.5 -43.5t53.5 -43.5t51 -20q64 0 67 114h181q0 -130 -67.5 -208.5t-166.5 -78.5q-48 0 -90.5 20t-67.5 43.5t-53.5 43.5t-51.5 20q-33 0 -50 -30.5t-19 -79.5h-181z" />
<glyph unicode="&#x1eef;" horiz-adv-x="1484" d="M84 399v714h354v-636q0 -97 52 -152t144 -55q88 0 143 60t55 155v628h355v-23q46 -9 69 4q22 6 31 26t9 66v143h255v-199q0 -286 -258 -286q-94 0 -106 9v-853h-345v210h-7q-38 -109 -127.5 -169t-214.5 -60q-186 0 -297.5 114t-111.5 304zM272 1275q0 131 67 207t167 76 q49 0 92 -20t68.5 -43.5t53.5 -43.5t51 -20q64 0 67 114h181q0 -130 -67.5 -208.5t-166.5 -78.5q-48 0 -90.5 20t-67.5 43.5t-53.5 43.5t-51.5 20q-33 0 -50 -30.5t-19 -79.5h-181z" />
<glyph unicode="&#x1ef0;" horiz-adv-x="1656" d="M109 512v931h367v-892q0 -127 67 -197.5t188 -70.5t187.5 70.5t66.5 197.5v892h370v-26q43 -10 67 -1q24 4 34 26.5t10 69.5v143h256v-204q0 -136 -72 -210t-205 -74q-15 0 -51.5 3t-41.5 7v-665q0 -243 -170 -390t-451 -147t-451.5 147t-170.5 390zM567 -329 q0 68 47.5 115.5t116.5 47.5t116.5 -47.5t47.5 -115.5t-47.5 -115.5t-116.5 -47.5t-116.5 47.5t-47.5 115.5z" />
<glyph unicode="&#x1ef1;" horiz-adv-x="1484" d="M84 399v714h354v-636q0 -97 52 -152t144 -55q88 0 143 60t55 155v628h355v-23q46 -9 69 4q22 6 31 26t9 66v143h255v-199q0 -286 -258 -286q-94 0 -106 9v-853h-345v210h-7q-38 -109 -127.5 -169t-214.5 -60q-186 0 -297.5 114t-111.5 304zM473 -329q0 68 47.5 115.5 t116.5 47.5t116.5 -47.5t47.5 -115.5t-47.5 -115.5t-116.5 -47.5t-116.5 47.5t-47.5 115.5z" />
<glyph unicode="&#x1ef2;" horiz-adv-x="1419" d="M29 1443h394l287 -600h7l286 600h387l-497 -947v-496h-367v496zM305 1877h313l232 -316h-269z" />
<glyph unicode="&#x1ef3;" horiz-adv-x="1194" d="M6 1113h391l205 -845h7l205 845h374l-358 -1111q-71 -222 -203.5 -315.5t-372.5 -93.5q-119 0 -129 2v268q5 -1 62 -1q176 0 194 98l5 31zM206 1585h312l227 -316h-275z" />
<glyph unicode="&#x1ef4;" horiz-adv-x="1419" d="M29 1443h394l287 -600h7l286 600h387l-497 -947v-496h-367v496zM546 -329q0 68 47.5 115.5t116.5 47.5t116.5 -47.5t47.5 -115.5t-47.5 -115.5t-116.5 -47.5t-116.5 47.5t-47.5 115.5z" />
<glyph unicode="&#x1ef5;" horiz-adv-x="1194" d="M6 1113h391l205 -845h7l205 845h374l-358 -1111q-71 -222 -203.5 -315.5t-372.5 -93.5q-119 0 -129 2v268q5 -1 62 -1q176 0 194 98l5 31zM821 -329q0 68 47.5 115.5t116.5 47.5t116.5 -47.5t47.5 -115.5t-47.5 -115.5t-116.5 -47.5t-116.5 47.5t-47.5 115.5z" />
<glyph unicode="&#x1ef6;" horiz-adv-x="1419" d="M29 1443h394l287 -600h7l286 600h387l-497 -947v-496h-367v496zM513 1799v150q54 28 154 28q119 0 188.5 -57.5t69.5 -157.5q0 -77 -56.5 -145t-146.5 -106l-99 120q44 16 71.5 47t27.5 64q0 35 -27 55t-74 20q-62 0 -108 -18z" />
<glyph unicode="&#x1ef7;" horiz-adv-x="1194" d="M6 1113h391l205 -845h7l205 845h374l-358 -1111q-71 -222 -203.5 -315.5t-372.5 -93.5q-119 0 -129 2v268q5 -1 62 -1q176 0 194 98l5 31zM426 1513v150q68 28 158 28q117 0 186.5 -60.5t69.5 -162.5q0 -74 -53.5 -140t-149.5 -111l-97 116q53 26 75 52.5t22 65.5 q0 36 -30 58.5t-79 22.5q-51 0 -102 -19z" />
<glyph unicode="&#x1ef8;" horiz-adv-x="1419" d="M29 1443h394l287 -600h7l286 600h387l-497 -947v-496h-367v496zM344 1560q0 131 67 207t167 76q49 0 92 -20t68.5 -43.5t53.5 -43.5t51 -20q64 0 67 114h181q0 -130 -67.5 -208.5t-166.5 -78.5q-48 0 -90.5 20t-67.5 43.5t-53.5 43.5t-51.5 20q-33 0 -50 -30.5t-19 -79.5 h-181z" />
<glyph unicode="&#x1ef9;" horiz-adv-x="1194" d="M6 1113h391l205 -845h7l205 845h374l-358 -1111q-71 -222 -203.5 -315.5t-372.5 -93.5q-119 0 -129 2v268q5 -1 62 -1q176 0 194 98l5 31zM232 1275q0 131 67 207t167 76q49 0 92 -20t68.5 -43.5t53.5 -43.5t51 -20q64 0 67 114h181q0 -130 -67.5 -208.5t-166.5 -78.5 q-48 0 -90.5 20t-67.5 43.5t-53.5 43.5t-51.5 20q-33 0 -50 -30.5t-19 -79.5h-181z" />
<glyph unicode="&#x2000;" horiz-adv-x="1103" />
<glyph unicode="&#x2001;" horiz-adv-x="2206" />
<glyph unicode="&#x2002;" horiz-adv-x="1103" />
<glyph unicode="&#x2003;" horiz-adv-x="2206" />
<glyph unicode="&#x2004;" horiz-adv-x="735" />
<glyph unicode="&#x2005;" horiz-adv-x="551" />
<glyph unicode="&#x2006;" horiz-adv-x="367" />
<glyph unicode="&#x2007;" horiz-adv-x="367" />
<glyph unicode="&#x2008;" horiz-adv-x="275" />
<glyph unicode="&#x2009;" horiz-adv-x="441" />
<glyph unicode="&#x200a;" horiz-adv-x="122" />
<glyph unicode="&#x2010;" horiz-adv-x="918" d="M130 431v305h658v-305h-658z" />
<glyph unicode="&#x2011;" horiz-adv-x="918" d="M130 431v305h658v-305h-658z" />
<glyph unicode="&#x2012;" horiz-adv-x="918" d="M130 431v305h658v-305h-658z" />
<glyph unicode="&#x2013;" horiz-adv-x="1024" d="M0 427v315h1024v-315h-1024z" />
<glyph unicode="&#x2014;" horiz-adv-x="2048" d="M0 427v315h2048v-315h-2048z" />
<glyph unicode="&#x2018;" horiz-adv-x="622" d="M96 1443h323l90 -592h-283z" />
<glyph unicode="&#x2019;" horiz-adv-x="622" d="M113 851l90 592h324l-131 -592h-283z" />
<glyph unicode="&#x201a;" horiz-adv-x="622" d="M96 -450l90 634h324l-117 -634h-297z" />
<glyph unicode="&#x201c;" horiz-adv-x="1134" d="M109 1443h324l90 -592h-283zM594 1443h324l90 -592h-283z" />
<glyph unicode="&#x201d;" horiz-adv-x="1134" d="M126 851l90 592h324l-131 -592h-283zM611 851l90 592h324l-131 -592h-283z" />
<glyph unicode="&#x201e;" horiz-adv-x="1134" d="M96 -450l90 634h316l-109 -634h-297zM616 -450l89 634h317l-110 -634h-296z" />
<glyph unicode="&#x2026;" horiz-adv-x="1745" d="M112 173q0 77 54 131.5t131 54.5q78 0 132 -54.5t54 -131.5t-54 -131.5t-132 -54.5q-77 0 -131 54.5t-54 131.5zM687 173q0 77 54.5 131.5t131.5 54.5t131.5 -54.5t54.5 -131.5t-54.5 -131.5t-131.5 -54.5t-131.5 54.5t-54.5 131.5zM1261 173q0 77 54.5 131.5t131.5 54.5 t131.5 -54.5t54.5 -131.5t-54.5 -131.5t-131.5 -54.5t-131.5 54.5t-54.5 131.5z" />
<glyph unicode="&#x202f;" horiz-adv-x="441" />
<glyph unicode="&#x2039;" horiz-adv-x="855" d="M101 562v8l347 409h307l-344 -408v-8l344 -410h-314z" />
<glyph unicode="&#x203a;" horiz-adv-x="855" d="M101 153l344 410v8l-344 408h306l348 -409v-8l-341 -409h-313z" />
<glyph unicode="&#x205f;" horiz-adv-x="551" />
<glyph unicode="&#x20ac;" horiz-adv-x="1372" d="M99 484v170h141q-2 44 -2 68q0 20 2 56h-141v169h166q65 249 270.5 387t520.5 138q117 0 204 -25v-293q-88 18 -196 18q-145 0 -252 -58t-161 -167h532v-169h-578q-2 -36 -2 -56q0 -39 4 -68h576v-170h-526q55 -103 158 -158t242 -55q149 0 209 15v-299q-87 -16 -210 -16 q-310 0 -515 134.5t-272 378.5h-170z" />
<glyph unicode="&#x2122;" horiz-adv-x="2390" d="M73 1178v265h896v-265h-290v-651h-317v651h-289zM1132 527v916h379l203 -420h18l206 420h376v-916h-287v552h-19l-213 -457h-144l-211 457h-19v-552h-289z" />
<glyph unicode="&#x25fc;" horiz-adv-x="1115" d="M0 0v1115h1115v-1115h-1115z" />
</font>
</defs>
</svg>
