<?xml version="1.0" standalone="no"?>
<!DOCTYPE svg PUBLIC "-//W3C//DTD SVG 1.1//EN" "http://www.w3.org/Graphics/SVG/1.1/DTD/svg11.dtd" >
<svg xmlns="http://www.w3.org/2000/svg" xmlns:xlink="http://www.w3.org/1999/xlink" version="1.1">
<metadata></metadata>
<defs>
<font id="sf_ui_displayultralight" horiz-adv-x="1201" >
<font-face units-per-em="2048" ascent="1638" descent="-410" />
<missing-glyph horiz-adv-x="381" />
<glyph horiz-adv-x="0" />
<glyph unicode="&#xd;" horiz-adv-x="0" />
<glyph unicode=" "  horiz-adv-x="381" />
<glyph unicode="&#x09;" horiz-adv-x="381" />
<glyph unicode="&#xa0;" horiz-adv-x="381" />
<glyph unicode="!" horiz-adv-x="500" d="M192 48q0 24 17 40.5t41 16.5t41 -16.5t17 -40.5t-17 -41t-41 -17t-41 17t-17 41zM223 1443h54l-1 -1032h-52z" />
<glyph unicode="&#x22;" horiz-adv-x="494" d="M99 998v445h48v-445h-48zM346 998v445h49v-445h-49z" />
<glyph unicode="#" horiz-adv-x="1229" d="M41 451l8 46h258l91 454h-244l8 46h244l94 453h48l-94 -453h405l94 453h48l-94 -453h283l-9 -46h-282l-91 -454h269l-9 -46h-269l-95 -451h-49l95 451h-405l-94 -451h-49l96 451h-257zM355 496h405l90 455h-404z" />
<glyph unicode="$" horiz-adv-x="1179" d="M81 382h49q7 -143 133 -245.5t302 -109.5v696l-5 2q-245 59 -344 140t-99 225q0 157 126.5 262t321.5 111v133h44v-133q184 -7 313.5 -111.5t134.5 -248.5h-50q-5 123 -121.5 215t-276.5 99v-655l6 -1q261 -60 366.5 -148t105.5 -245q0 -162 -135 -271t-343 -117v-156 h-44v156q-202 7 -341 122t-143 280zM166 1092q0 -124 89 -195t310 -124v644q-171 -5 -285 -98t-114 -227zM609 27q181 6 304.5 104t123.5 236q0 136 -95.5 213.5t-332.5 133.5v-687z" />
<glyph unicode="%" horiz-adv-x="1395" d="M50 1110q0 156 63.5 248.5t175.5 92.5t175.5 -92.5t63.5 -248.5t-63.5 -248.5t-175.5 -92.5t-175.5 92.5t-63.5 248.5zM98 1110q0 -136 50.5 -217.5t140.5 -81.5q89 0 139.5 81t50.5 218q0 136 -50.5 217.5t-139.5 81.5t-140 -81.5t-51 -217.5zM123 0l1081 1443h59 l-1081 -1443h-59zM867 331q0 156 63.5 248.5t175.5 92.5t175.5 -92.5t63.5 -248.5t-63.5 -248.5t-175.5 -92.5t-175.5 92.5t-63.5 248.5zM915 331q0 -136 50.5 -217.5t140.5 -81.5q89 0 139.5 81t50.5 218q0 136 -50.5 217.5t-139.5 81.5t-140 -81.5t-51 -217.5z" />
<glyph unicode="&#x26;" horiz-adv-x="1375" d="M72 361q0 224 273 371q1 0 30 15.5t58 30.5l29 16q-132 132 -180.5 211t-48.5 160q0 125 98 211t240 86q140 0 233.5 -83.5t93.5 -210.5q0 -103 -85 -196t-276 -189l478 -503q64 96 102 213.5t38 219.5v88h49v-87q0 -110 -42.5 -238t-111.5 -227l244 -249h-65l-209 215 q-94 -109 -228.5 -172t-272.5 -63q-198 0 -322.5 107t-124.5 274zM121 360q0 -142 111.5 -238t287.5 -96q122 0 252.5 61.5t211.5 157.5l-490 514q-119 -64 -120 -64q-253 -135 -253 -335zM282 1164q0 -71 46 -143t178 -205q343 164 343 351q0 105 -81 177.5t-198 72.5 q-116 0 -202 -75.5t-86 -177.5z" />
<glyph unicode="'" horiz-adv-x="246" d="M99 998v445h48v-445h-48z" />
<glyph unicode="(" horiz-adv-x="550" d="M147 597q0 247 69.5 462.5t199.5 383.5h53q-127 -169 -199.5 -389.5t-72.5 -456.5q0 -235 72 -456t200 -392h-54q-128 166 -198 383.5t-70 464.5z" />
<glyph unicode=")" horiz-adv-x="550" d="M82 -251q127 172 199.5 392.5t72.5 455.5t-72.5 455.5t-199.5 390.5h53q129 -168 198.5 -383.5t69.5 -462.5t-69.5 -464.5t-198.5 -383.5h-53z" />
<glyph unicode="*" horiz-adv-x="943" d="M121 869l308 176l-308 175l23 41l306 -180l-2 356h47l-2 -356l306 180l23 -40l-308 -175l308 -176l-23 -41l-306 180l2 -355h-47l2 355l-306 -180z" />
<glyph unicode="+" horiz-adv-x="1178" d="M104 554v47h461v503h49v-503h460v-47h-460v-517h-49v517h-461z" />
<glyph unicode="," horiz-adv-x="490" d="M172 -211l56 384h53l-67 -384h-42z" />
<glyph unicode="-" horiz-adv-x="865" d="M104 554v47h656v-47h-656z" />
<glyph unicode="." horiz-adv-x="488" d="M187 47q0 24 17 41t40 17q24 0 40.5 -17t16.5 -41q0 -23 -16.5 -40t-40.5 -17q-23 0 -40 17t-17 40z" />
<glyph unicode="/" horiz-adv-x="497" d="M0 -332l448 1775h49l-449 -1775h-48z" />
<glyph unicode="0" horiz-adv-x="1181" d="M85 722q0 341 136 541t369 200t369 -200t136 -541q0 -342 -136 -542t-369 -200t-369 200t-136 542zM135 722q0 -320 122.5 -508t332.5 -188t332.5 188t122.5 508t-122.5 507.5t-332.5 187.5q-209 0 -332 -187.5t-123 -507.5z" />
<glyph unicode="1" horiz-adv-x="774" d="M85 1143v57q297 188 399 250h49v-1450h-49v1390h-2q-17 -10 -397 -247z" />
<glyph unicode="2" horiz-adv-x="1138" d="M128 1062q5 175 127 288t307 113q181 0 304 -112t123 -278q0 -113 -64 -221t-242 -296l-476 -505v-4h845v-47h-919v41l514 547q172 181 232 280.5t60 203.5q0 146 -109 245.5t-269 99.5q-162 0 -270.5 -100.5t-112.5 -254.5h-50z" />
<glyph unicode="3" horiz-adv-x="1126" d="M85 357h50q1 -92 58 -168t154.5 -119.5t214.5 -43.5q184 0 306 103.5t122 261.5t-121 247.5t-335 89.5h-158v46h158q175 0 284 90.5t109 233.5q0 137 -108 228t-271 91q-154 0 -262.5 -90t-117.5 -224h-49q8 155 130 257.5t299 102.5q184 0 306.5 -103.5t122.5 -259.5 q0 -134 -82.5 -226t-226.5 -119v-4q170 -11 271 -108.5t101 -251.5q0 -178 -136 -294.5t-343 -116.5q-201 0 -337.5 108.5t-138.5 268.5z" />
<glyph unicode="4" horiz-adv-x="1164" d="M68 379v47q333 501 729 1023l68 1v-1025h237v-46h-237v-379h-49v379h-748zM128 425h688v965h-2q-342 -446 -686 -962v-3z" />
<glyph unicode="5" horiz-adv-x="1163" d="M126 341h50q18 -135 136.5 -225t278.5 -90q189 0 314.5 123t125.5 308q0 184 -123 308.5t-305 124.5q-126 0 -232 -60.5t-168 -167.5h-54l89 781h747v-47h-704l-74 -659h2q62 92 168 145.5t227 53.5q204 0 340.5 -137t136.5 -341q0 -206 -140 -342t-351 -136 q-182 0 -314 103t-150 258z" />
<glyph unicode="6" horiz-adv-x="1166" d="M90 680q0 359 142 571t383 212q172 0 293.5 -97t144.5 -254h-50q-22 133 -131 219t-257 86q-231 0 -357.5 -220t-118.5 -607h4q35 155 166.5 254.5t300.5 99.5q204 0 341.5 -136.5t137.5 -338.5q0 -209 -137.5 -349t-342.5 -140q-112 0 -207.5 43.5t-162.5 125.5 q-149 179 -149 531zM169 487q0 -195 126.5 -328t313.5 -133q182 0 306 127.5t124 315.5q0 182 -124.5 305.5t-307.5 123.5q-115 0 -216.5 -56t-161.5 -151.5t-60 -203.5z" />
<glyph unicode="7" horiz-adv-x="1074" d="M84 1396v47h910v-50l-698 -1393h-56l701 1394v2h-857z" />
<glyph unicode="8" horiz-adv-x="1178" d="M94 395q0 140 95.5 242.5t248.5 129.5v2q-133 28 -213 115t-80 208q0 163 124 267t319 104q196 0 320 -104t124 -267q0 -117 -81 -205t-211 -118v-2q152 -27 248 -130t96 -242q0 -183 -136.5 -299t-359.5 -116q-222 0 -358 116.5t-136 298.5zM144 395q0 -160 122 -264.5 t322 -104.5t323 104.5t123 264.5q0 152 -122.5 249t-322.5 97q-199 0 -322 -97t-123 -249zM195 1091q0 -131 111 -216.5t282 -85.5q172 0 283 85.5t111 216.5q0 140 -108 233t-285 93q-176 0 -285 -93t-109 -233z" />
<glyph unicode="9" horiz-adv-x="1166" d="M77 967q0 140 61.5 253.5t171.5 178t246 64.5q230 0 370 -172q149 -178 149 -528q0 -359 -140 -571t-384 -212q-177 0 -296 97.5t-142 252.5h50q22 -132 126.5 -218t261.5 -86q220 0 344 194.5t132 533.5q1 33 -1 99h-1h-1q-33 -150 -166.5 -252t-301.5 -102 q-207 0 -343 134t-136 334zM127 967q0 -176 122 -299t309 -123q117 0 218.5 57.5t161 152.5t59.5 201q0 193 -126.5 327t-314.5 134q-184 0 -306.5 -129t-122.5 -321z" />
<glyph unicode=":" horiz-adv-x="488" d="M187 47q0 24 17 41t40 17q24 0 40.5 -17t16.5 -41q0 -23 -16.5 -40t-40.5 -17q-23 0 -40 17t-17 40zM187 827q0 24 17 40.5t40 16.5q24 0 40.5 -16.5t16.5 -40.5q0 -23 -16.5 -40t-40.5 -17q-23 0 -40 17t-17 40z" />
<glyph unicode=";" horiz-adv-x="488" d="M163 -211l56 384h53l-68 -384h-41zM187 827q0 24 17 40.5t40 16.5q24 0 40.5 -16.5t16.5 -40.5q0 -23 -16.5 -40t-40.5 -17q-23 0 -40 17t-17 40z" />
<glyph unicode="&#x3c;" horiz-adv-x="1179" d="M191 510v44l796 576v-56l-736 -539v-5l736 -537v-56z" />
<glyph unicode="=" horiz-adv-x="1179" d="M106 368v46h967v-46h-967zM106 741v46h967v-46h-967z" />
<glyph unicode="&#x3e;" horiz-adv-x="1179" d="M191 -7l737 537v5l-737 539v56l796 -575v-45l-796 -573v56z" />
<glyph unicode="?" horiz-adv-x="911" d="M62 1105q10 154 118.5 255t266.5 101q164 0 273 -100t109 -250q0 -99 -49 -175.5t-166 -159.5q-105 -75 -141.5 -133t-36.5 -149v-97h-49v99q0 99 40.5 165t151.5 148q107 79 153 148.5t46 151.5q0 133 -95.5 219.5t-235.5 86.5q-136 0 -230 -85.5t-107 -224.5h-48z M357 48q0 24 17 40.5t40 16.5q25 0 41.5 -16.5t16.5 -40.5t-16.5 -41t-41.5 -17q-23 0 -40 17t-17 41z" />
<glyph unicode="@" horiz-adv-x="1727" d="M65 609q0 235 105 423t292 293.5t421 105.5q174 0 322 -56t252 -155t163 -240.5t59 -306.5q0 -238 -79 -369t-222 -131q-103 0 -167.5 57t-72.5 157h-4q-39 -102 -110.5 -156.5t-167.5 -54.5q-155 0 -253 116t-98 300q0 185 98.5 303t252.5 118q95 0 172 -55.5 t105 -144.5h4v178h48v-551q0 -110 49.5 -166.5t145.5 -56.5q120 0 186 119t66 338q0 155 -55.5 288t-154 226.5t-238 146t-303.5 52.5t-307 -59t-244 -161.5t-159.5 -247t-58.5 -310.5q0 -139 36 -262.5t104 -220t161.5 -166.5t212.5 -107t252 -37q212 0 326 35v-46 q-106 -33 -326 -33q-177 0 -328.5 61.5t-258 170.5t-166.5 265t-60 340zM553 591q0 -164 84.5 -267t219.5 -103q127 0 203.5 105t76.5 278q0 168 -75 266t-205 98q-129 0 -216.5 -108.5t-87.5 -268.5z" />
<glyph unicode="A" d="M20 0l555 1443h51l555 -1443h-56l-189 501h-671l-190 -501h-55zM283 547h635l-315 827h-5z" />
<glyph unicode="B" horiz-adv-x="1139" d="M124 0v1443h464q188 0 305 -96.5t117 -252.5q0 -133 -78.5 -225.5t-214.5 -119.5v-4q161 -16 265.5 -113.5t104.5 -252.5q0 -174 -130 -276.5t-355 -102.5h-478zM174 46h426q204 0 321 90.5t117 243.5q0 157 -123 248t-337 91h-404v-673zM174 765h401q174 0 279.5 89.5 t105.5 238.5q0 137 -103 220.5t-273 83.5h-410v-632z" />
<glyph unicode="C" horiz-adv-x="1303" d="M63 732q0 337 169.5 534t459.5 197q215 0 377 -140.5t181 -343.5h-49q-20 184 -167 310.5t-342 126.5q-266 0 -422.5 -184.5t-156.5 -499.5q0 -324 157.5 -514.5t421.5 -190.5q203 0 347 115t162 298h49q-11 -134 -86.5 -239t-199 -163t-272.5 -58q-287 0 -458 204 t-171 548z" />
<glyph unicode="D" horiz-adv-x="1313" d="M124 0v1443h436q330 0 510 -188t180 -533q0 -346 -180 -534t-510 -188h-436zM175 47h384q308 0 474.5 175t166.5 500q0 324 -166.5 499t-474.5 175h-384v-1349z" />
<glyph unicode="E" horiz-adv-x="1050" d="M124 0v1443h826v-47h-776v-632h740v-46h-740v-671h776v-47h-826z" />
<glyph unicode="F" horiz-adv-x="1020" d="M124 0v1443h817v-47h-767v-634h706v-47h-706v-715h-50z" />
<glyph unicode="G" horiz-adv-x="1332" d="M63 731q0 329 171 530.5t451 201.5q213 0 368.5 -118t195.5 -309h-49q-42 172 -183 276t-332 104q-258 0 -415 -188t-157 -497q0 -313 159 -508.5t413 -195.5q244 0 384.5 143t140.5 392v100h-531v46h580v-144q0 -272 -153.5 -428t-420.5 -156q-182 0 -323.5 94.5 t-220 265.5t-78.5 391z" />
<glyph unicode="H" horiz-adv-x="1296" d="M124 0v1443h50v-678h948v678h50v-1443h-50v718h-948v-718h-50z" />
<glyph unicode="I" horiz-adv-x="298" d="M124 0v1443h50v-1443h-50z" />
<glyph unicode="J" horiz-adv-x="933" d="M41 315h49q7 -128 98.5 -208.5t229.5 -80.5q159 0 250 95t91 263v1059h50v-1062q0 -185 -104.5 -293.5t-286.5 -108.5q-160 0 -266 94t-111 242z" />
<glyph unicode="K" horiz-adv-x="1107" d="M124 0v1443h50v-836h4l784 836h64l-594 -635l664 -808h-64l-636 773l-222 -237v-536h-50z" />
<glyph unicode="L" horiz-adv-x="1009" d="M124 0v1443h50v-1396h775v-47h-825z" />
<glyph unicode="M" horiz-adv-x="1576" d="M124 0v1443h53l609 -1380h4l606 1380h55v-1443h-49v1328h-4l-584 -1327h-53l-584 1327h-4v-1328h-49z" />
<glyph unicode="N" horiz-adv-x="1315" d="M124 0v1443h55l958 -1348h4v1348h50v-1443h-46l-967 1359h-4v-1359h-50z" />
<glyph unicode="O" horiz-adv-x="1398" d="M63 722q0 340 172 540.5t464 200.5q291 0 463.5 -200.5t172.5 -540.5q0 -341 -172 -541.5t-464 -200.5q-293 0 -464.5 200.5t-171.5 541.5zM113 722q0 -318 159 -506.5t427 -188.5q267 0 426.5 188.5t159.5 506.5t-159 506t-427 188q-269 0 -427.5 -187.5t-158.5 -506.5z " />
<glyph unicode="P" horiz-adv-x="1087" d="M124 0v1443h448q212 0 337.5 -114t125.5 -307t-126 -307t-338 -114h-397v-601h-50zM174 648h394q192 0 304.5 100.5t112.5 273.5q0 174 -112.5 274t-304.5 100h-394v-748z" />
<glyph unicode="Q" horiz-adv-x="1398" d="M63 722q0 340 172 540.5t464 200.5q291 0 463.5 -200.5t172.5 -540.5q0 -224 -79 -393.5t-224 -260.5l183 -250h-59l-166 227q-130 -65 -291 -65q-293 0 -464.5 200.5t-171.5 541.5zM113 722q0 -318 159 -506.5t427 -188.5q145 0 263 58l-201 275h59l183 -252 q136 84 208.5 243t72.5 371q0 317 -159 505.5t-426 188.5q-268 0 -427 -188.5t-159 -505.5z" />
<glyph unicode="R" horiz-adv-x="1124" d="M124 0v1443h448q216 0 340 -108.5t124 -298.5q0 -158 -92 -263t-255 -133l381 -640h-57l-376 632q-36 -2 -66 -2h-397v-630h-50zM174 676h397q193 0 303.5 96.5t110.5 263.5q0 170 -110 265t-305 95h-396v-720z" />
<glyph unicode="S" horiz-adv-x="1114" d="M52 382h50q8 -156 139.5 -256t329.5 -100q193 0 316 99.5t123 251.5q0 120 -85 193t-277 121l-167 42q-202 50 -295.5 133.5t-93.5 215.5q0 163 135 272t326 109q200 0 336 -103.5t143 -257.5h-50q-7 135 -129 225t-300 90q-172 0 -291.5 -95.5t-119.5 -239.5 q0 -114 85 -185t270 -117l165 -41q207 -52 302.5 -136.5t95.5 -223.5q0 -175 -136.5 -287t-354.5 -112q-219 0 -364 113t-153 289z" />
<glyph unicode="T" horiz-adv-x="1117" d="M13 1396v47h1091v-47h-521v-1396h-49v1396h-521z" />
<glyph unicode="U" horiz-adv-x="1307" d="M124 499v944h50v-943q0 -218 129.5 -345.5t349.5 -127.5q221 0 350.5 127.5t129.5 345.5v943h50v-944q0 -237 -143.5 -378t-386.5 -141t-386 141t-143 378z" />
<glyph unicode="V" horiz-adv-x="1203" d="M20 1443h55l524 -1372h4l525 1372h54l-555 -1443h-51z" />
<glyph unicode="W" horiz-adv-x="1777" d="M41 1443h52l374 -1344h4l396 1344h43l395 -1344h5l374 1344h51l-406 -1443h-40l-398 1338h-5l-398 -1338h-41z" />
<glyph unicode="X" horiz-adv-x="1190" d="M41 0l524 721v1l-523 721h60l493 -680h1l494 680h59l-523 -721l522 -722h-60l-492 680h-1l-495 -680h-59z" />
<glyph unicode="Y" horiz-adv-x="1148" d="M21 1443h60l492 -758h4l491 758h59l-527 -812v-631h-50v631z" />
<glyph unicode="Z" horiz-adv-x="1147" d="M64 0v42l954 1350v4h-925v47h989v-43l-953 -1349v-4h954v-47h-1019z" />
<glyph unicode="[" horiz-adv-x="556" d="M149 -235v1678h346v-45h-297v-1589h312v-44h-361z" />
<glyph unicode="\" horiz-adv-x="497" d="M0 1443h49l448 -1775h-48z" />
<glyph unicode="]" horiz-adv-x="556" d="M46 -191h312v1589h-297v45h346v-1678h-361v44z" />
<glyph unicode="^" horiz-adv-x="749" d="M52 825l302 596h41l302 -596h-55l-266 530h-3l-266 -530h-55z" />
<glyph unicode="_" horiz-adv-x="801" d="M-66 -152h933v-44h-933v44z" />
<glyph unicode="`" horiz-adv-x="686" d="M210 1557h63l236 -303h-53z" />
<glyph unicode="a" horiz-adv-x="1021" d="M90 286q0 137 96 214t284 92l389 30v97q0 153 -86.5 240t-238.5 87q-151 0 -244 -74t-114 -209h-47q17 153 126 241t279 88q173 0 273.5 -99.5t100.5 -270.5v-722h-49v245h-1q-39 -116 -153.5 -188.5t-258.5 -72.5q-157 0 -256.5 84.5t-99.5 217.5zM140 286 q0 -111 87.5 -183.5t221.5 -72.5q169 0 289.5 107.5t120.5 258.5v182l-381 -29q-165 -13 -251.5 -80t-86.5 -183z" />
<glyph unicode="b" horiz-adv-x="1116" d="M130 0v1506h49v-745h2q38 150 151.5 240.5t266.5 90.5q200 0 326 -153.5t126 -399.5t-126 -400.5t-325 -154.5q-151 0 -265.5 91t-153.5 244h-2v-319h-49zM179 537q0 -222 116.5 -364t298.5 -142q181 0 294.5 141t113.5 367q0 225 -113 366t-294 141q-182 0 -299 -143 t-117 -366z" />
<glyph unicode="c" horiz-adv-x="1019" d="M65 538q0 254 127 404t342 150q163 0 280 -93.5t144 -238.5h-50q-26 126 -128.5 206t-245.5 80q-193 0 -306 -137.5t-113 -370.5t112.5 -370t306.5 -137q145 0 246 76t126 200h50q-26 -145 -141 -234t-281 -89q-215 0 -342 149.5t-127 404.5z" />
<glyph unicode="d" horiz-adv-x="1126" d="M65 538q0 246 128.5 400t330.5 154q156 0 272 -95t148 -236h2v745h50v-1506h-46v322h-2q-35 -146 -151.5 -242t-272.5 -96q-202 0 -330.5 154.5t-128.5 399.5zM115 539q0 -226 115 -367t296 -141q184 0 302 141.5t118 365.5t-118 366t-302 142q-181 0 -296 -141 t-115 -366z" />
<glyph unicode="e" horiz-adv-x="1056" d="M65 538q0 250 128 402t340 152q205 0 331.5 -143t126.5 -375v-38h-876v-2q0 -237 116 -370.5t311 -133.5q156 0 257.5 75t126.5 194h51q-28 -140 -144 -227.5t-292 -87.5q-219 0 -347.5 147t-128.5 407zM116 581h825q0 207 -112.5 336t-295.5 129q-180 0 -294 -127.5 t-123 -337.5z" />
<glyph unicode="f" horiz-adv-x="509" d="M20 1031v45h150v169q0 123 58.5 181.5t164.5 58.5q47 0 74 -10v-46q-30 10 -73 10q-174 0 -174 -201v-162h237v-45h-237v-1031h-50v1031h-150z" />
<glyph unicode="g" horiz-adv-x="1106" d="M65 538q0 246 126.5 400t327.5 154q156 0 270 -95.5t149 -241.5h2v321h46v-1076q0 -165 -123 -259.5t-321 -94.5q-167 0 -277 64t-134 169h53q21 -83 118.5 -135t242.5 -52q175 0 283.5 82t108.5 224v318h-2q-33 -142 -147 -236.5t-269 -94.5q-202 0 -328 153.5 t-126 399.5zM115 537q0 -225 112.5 -365.5t293.5 -140.5q184 0 300 141.5t116 365.5t-116 366t-300 142q-181 0 -293.5 -141t-112.5 -368z" />
<glyph unicode="h" horiz-adv-x="1075" d="M130 0v1506h49v-684h2q35 120 139.5 195t243.5 75q178 0 288 -108.5t110 -288.5v-695h-50v693q0 163 -97.5 258t-256.5 95q-166 0 -272.5 -112t-106.5 -289v-645h-49z" />
<glyph unicode="i" horiz-adv-x="309" d="M106 1414q0 20 14.5 34t34.5 14t34 -14t14 -34t-14.5 -34t-33.5 -14q-20 0 -34.5 14t-14.5 34zM130 0v1076h49v-1076h-49z" />
<glyph unicode="j" horiz-adv-x="309" d="M-113 -297h27q113 0 164.5 50t51.5 163v1160h49v-1156q0 -139 -65 -200.5t-198 -61.5h-29v45zM106 1414q0 20 14.5 34t34.5 14t34 -14t14 -34t-14.5 -34t-33.5 -14q-20 0 -34.5 14t-14.5 34z" />
<glyph unicode="k" horiz-adv-x="913" d="M130 0v1506h49v-1003h2l645 573h70l-517 -463l519 -613h-65l-493 583l-161 -142v-441h-49z" />
<glyph unicode="l" horiz-adv-x="309" d="M130 0v1506h49v-1506h-49z" />
<glyph unicode="m" horiz-adv-x="1628" d="M120 0v1076h46v-254h2q29 119 115.5 194.5t214.5 75.5q129 0 218.5 -78t111.5 -193h2q25 113 118 192t225 79q154 0 248 -101t94 -270v-721h-49v710q0 156 -80.5 246t-219.5 90q-145 0 -234.5 -106t-89.5 -276v-664h-49v708q0 151 -84 244.5t-215 93.5 q-145 0 -235 -112.5t-90 -300.5v-633h-49z" />
<glyph unicode="n" horiz-adv-x="1063" d="M120 0v1076h46v-254h2q35 121 139 195.5t243 74.5q179 0 289.5 -108t110.5 -288v-696h-49v694q0 161 -99 256.5t-259 95.5q-165 0 -269.5 -112t-104.5 -288v-646h-49z" />
<glyph unicode="o" horiz-adv-x="1078" d="M65 538q0 253 130.5 403.5t343.5 150.5t343.5 -150.5t130.5 -403.5t-130.5 -403.5t-343.5 -150.5q-214 0 -344 150.5t-130 403.5zM115 538q0 -233 116 -370t308 -137t308.5 137.5t116.5 369.5q0 233 -116.5 370.5t-308.5 137.5t-308 -137.5t-116 -370.5z" />
<glyph unicode="p" horiz-adv-x="1106" d="M120 -340v1416h46v-321h2q34 145 148.5 241t270.5 96q201 0 327.5 -154t126.5 -400q0 -247 -126 -400.5t-328 -153.5q-155 0 -269 94.5t-147 236.5h-2v-655h-49zM169 538q0 -224 116 -365.5t299 -141.5q181 0 294.5 140.5t113.5 365.5q0 226 -113.5 367.5t-294.5 141.5 q-183 0 -299 -142t-116 -366z" />
<glyph unicode="q" horiz-adv-x="1116" d="M65 538q0 245 128.5 399.5t330.5 154.5q156 0 272.5 -96t151.5 -241h2v321h46v-1416h-50v655h-2q-32 -141 -148.5 -236t-271.5 -95q-202 0 -330.5 154t-128.5 400zM115 537q0 -224 115 -365t296 -141q184 0 302 141.5t118 365.5t-118 366t-302 142q-181 0 -296 -142 t-115 -367z" />
<glyph unicode="r" horiz-adv-x="603" d="M120 0v1076h46v-223h2q35 117 110.5 178t186.5 61q59 0 108 -21v-51q-50 25 -116 25q-132 0 -210 -104.5t-78 -270.5v-670h-49z" />
<glyph unicode="s" horiz-adv-x="905" d="M56 304h50q10 -115 109 -194.5t242 -79.5q145 0 243.5 68.5t98.5 177.5q0 93 -62 148t-205 89l-169 39q-138 33 -204.5 94t-66.5 162q0 124 105 204t257 80q161 0 262.5 -88.5t115.5 -239.5h-48q-14 126 -101.5 204t-228.5 78q-129 0 -221 -67t-92 -170q0 -85 57 -133.5 t182 -77.5l167 -40q160 -39 231 -104.5t71 -174.5q0 -131 -110 -213t-281 -82q-169 0 -281.5 92.5t-120.5 227.5z" />
<glyph unicode="t" horiz-adv-x="527" d="M20 1031v45h160v288h49v-288h228v-45h-228v-796q0 -102 38.5 -146t124.5 -44l41 1h42v-46h-42q-42 -1 -44 -1q-110 0 -159.5 55t-49.5 180v797h-160z" />
<glyph unicode="u" horiz-adv-x="1063" d="M113 375v701h49v-694q0 -164 96.5 -257.5t253.5 -93.5q163 0 272.5 109t109.5 287v649h50v-1076h-46v251h-2q-33 -114 -143.5 -190.5t-246.5 -76.5q-175 0 -284 106.5t-109 284.5z" />
<glyph unicode="v" horiz-adv-x="888" d="M2 1076h53l388 -1028h2l388 1028h53l-408 -1076h-68z" />
<glyph unicode="w" horiz-adv-x="1406" d="M2 1076h55l294 -1021h2l317 1021h66l317 -1021h2l294 1021h55l-317 -1076h-66l-317 1016h-2l-317 -1016h-66z" />
<glyph unicode="x" horiz-adv-x="869" d="M2 0l403 548l-402 528h62l369 -489h2l369 489h62l-402 -527l401 -549h-60l-370 506h-3l-370 -506h-61z" />
<glyph unicode="y" horiz-adv-x="888" d="M2 1076h54l387 -1029h2l388 1029h54l-417 -1101q-74 -195 -130 -256.5t-162 -61.5q-26 0 -47 9v47q23 -9 53 -9q70 0 115.5 46t89.5 159l28 72z" />
<glyph unicode="z" horiz-adv-x="910" d="M58 0v47l734 982v2h-734v45h794v-47l-736 -982v-2h736v-45h-794z" />
<glyph unicode="{" horiz-adv-x="682" d="M89 583v91q96 0 135 51t39 178v292q0 167 74.5 236.5t252.5 69.5h48v-46h-71q-132 0 -193.5 -58.5t-61.5 -182.5v-347q0 -110 -39.5 -164.5t-126.5 -62.5v-20q87 -8 126.5 -62.5t39.5 -165.5v-412q0 -242 255 -242h71v-45h-48q-176 0 -251.5 72.5t-75.5 242.5v349 q0 126 -39 176t-135 50z" />
<glyph unicode="|" horiz-adv-x="329" d="M141 -332v1775h47v-1775h-47z" />
<glyph unicode="}" horiz-adv-x="683" d="M44 -262h71q255 0 255 242v412q0 111 39.5 165.5t126.5 62.5v20q-87 8 -126.5 62.5t-39.5 164.5v347q0 124 -62 182.5t-193 58.5h-71v46h48q178 0 252.5 -69.5t74.5 -236.5v-292q0 -127 39 -178t135 -51v-91q-96 0 -135 -50t-39 -176v-349q0 -170 -75.5 -242.5 t-251.5 -72.5h-48v45z" />
<glyph unicode="~" horiz-adv-x="1179" d="M142 560q0 125 60.5 201.5t159.5 76.5q54 0 101 -25.5t128 -98.5q67 -61 116 -87t96 -26q75 0 128 70t57 174h49q0 -122 -68.5 -206.5t-166.5 -84.5q-64 0 -112 24.5t-130 99.5q-72 66 -113 89.5t-85 23.5q-75 0 -122.5 -64t-49.5 -167h-48z" />
<glyph unicode="&#xa2;" horiz-adv-x="1179" d="M106 692q0 247 136 396t346 157v207h49v-207q165 -7 288 -97.5t148 -234.5h-50q-26 129 -142.5 208t-269.5 79q-197 0 -326.5 -137.5t-129.5 -370.5q0 -234 129 -372t327 -138q153 0 270 75.5t140 203.5h50q-23 -142 -145.5 -229.5t-288.5 -94.5v-224h-49v225 q-138 6 -246 72t-172 191t-64 291z" />
<glyph unicode="&#xa3;" horiz-adv-x="1179" d="M57 0v48q80 21 142 49t115.5 70t82.5 102.5t29 136.5q0 105 -68 284h-257v46h240q-27 71 -42.5 116t-29.5 113t-14 129q0 171 117.5 275t327.5 104q105 0 193.5 -18.5t132.5 -41.5v-49q-47 26 -133 44.5t-191 18.5q-190 0 -293.5 -92t-103.5 -242q0 -60 15.5 -129 t29 -108t43.5 -120h468v-46h-451q64 -168 64 -284q0 -77 -28 -141t-75 -105.5t-95.5 -67.5t-102.5 -42v-4h950v-46h-1066z" />
<glyph unicode="&#xa5;" horiz-adv-x="1179" d="M37 1443h60l491 -730h4l491 730h59l-499 -743h330v-44h-358v-220h358v-45h-358v-391h-50v391h-359v45h359v220h-359v44h331z" />
<glyph unicode="&#xa8;" horiz-adv-x="686" d="M149 1308q0 22 16 37.5t39 15.5q22 0 38 -15.5t16 -37.5t-16 -38t-38 -16t-38.5 16t-16.5 38zM428 1308q0 22 16 37.5t38 15.5q23 0 39 -15.5t16 -37.5t-16.5 -38t-38.5 -16t-38 16t-16 38z" />
<glyph unicode="&#xa9;" horiz-adv-x="1739" d="M107 626q0 161 59.5 303t161 243t242.5 159.5t300 58.5t300.5 -58.5t243 -159.5t160.5 -243t59 -303q0 -160 -59 -302t-160.5 -243.5t-243 -160t-300.5 -58.5t-300 58.5t-242.5 159.5t-161 243.5t-59.5 302.5zM154 626q0 -151 55.5 -285t151 -228.5t228 -149.5t281.5 -55 q199 0 363 93t258.5 258t94.5 367q0 203 -94.5 368t-258.5 257.5t-363 92.5q-149 0 -281.5 -54.5t-228 -149t-151 -228.5t-55.5 -286zM470 633q0 198 110 313.5t283 115.5q139 0 234.5 -75t116.5 -184h-47q-26 95 -106 155t-198 60q-152 0 -249 -103.5t-97 -281.5 q0 -179 97 -285t249 -106q124 0 202.5 57t99.5 147h48q-24 -112 -116 -180t-234 -68q-172 0 -282.5 118t-110.5 317z" />
<glyph unicode="&#xab;" horiz-adv-x="1150" d="M158 566v4l376 408h63l-370 -407v-6l370 -407h-63zM553 566v4l377 408h62l-369 -407v-6l369 -407h-62z" />
<glyph unicode="&#xad;" horiz-adv-x="865" d="M104 554v47h656v-47h-656z" />
<glyph unicode="&#xae;" horiz-adv-x="1247" d="M127 959q0 136 66 250.5t180 180t250 65.5q208 0 352.5 -144t144.5 -352q0 -207 -144.5 -351.5t-352.5 -144.5q-136 0 -250 66t-180 180t-66 250zM171 959q0 -190 131 -321t321 -131t321.5 131t131.5 321t-131 321t-322 131q-190 0 -321 -131t-131 -321zM437 706v541h197 q77 0 126 -43.5t49 -120.5q0 -65 -38.5 -107.5t-91.5 -48.5l157 -221h-53l-153 215h-149v-215h-44zM481 961h140q70 0 107.5 34t37.5 89t-38.5 88.5t-106.5 33.5h-140v-245z" />
<glyph unicode="&#xb4;" horiz-adv-x="686" d="M177 1254l236 303h63l-246 -303h-53z" />
<glyph unicode="&#xb8;" horiz-adv-x="686" d="M161 -402q45 -17 121 -17q72 0 121.5 36t49.5 88q0 54 -42.5 83.5t-121.5 29.5h-50v33l69 155l44 -6l-59 -140q94 0 150 -42t56 -112q0 -74 -60 -120.5t-156 -47.5q-76 0 -122 17v43z" />
<glyph unicode="&#xbb;" horiz-adv-x="1150" d="M158 158l370 407v6l-370 407h63l376 -408v-4l-376 -408h-63zM553 158l370 407v6l-370 407h63l376 -408v-4l-376 -408h-63z" />
<glyph unicode="&#xc0;" d="M20 0l555 1443h51l555 -1443h-56l-189 501h-671l-190 -501h-55zM279 1841h66l294 -287h-57zM283 547h635l-315 827h-5z" />
<glyph unicode="&#xc1;" d="M20 0l555 1443h51l555 -1443h-56l-189 501h-671l-190 -501h-55zM283 547h635l-315 827h-5zM562 1554l293 287h66l-303 -287h-56z" />
<glyph unicode="&#xc2;" d="M20 0l555 1443h51l555 -1443h-56l-189 501h-671l-190 -501h-55zM283 547h635l-315 827h-5zM311 1554l266 287h46l266 -287h-59l-229 249h-2l-229 -249h-59z" />
<glyph unicode="&#xc3;" d="M20 0l555 1443h51l555 -1443h-56l-189 501h-671l-190 -501h-55zM283 547h635l-315 827h-5zM321 1562q0 92 36 146.5t106 54.5q36 0 68 -17t55.5 -41.5t46 -49.5t49.5 -42t55 -17q97 0 97 158h45q0 -93 -36 -147.5t-106 -54.5q-36 0 -68 17.5t-55.5 42t-46 49t-49 42 t-55.5 17.5q-97 0 -97 -158h-45z" />
<glyph unicode="&#xc8;" horiz-adv-x="1050" d="M124 0v1443h826v-47h-776v-632h740v-46h-740v-671h776v-47h-826zM216 1841h66l294 -287h-57z" />
<glyph unicode="&#xc9;" horiz-adv-x="1050" d="M124 0v1443h826v-47h-776v-632h740v-46h-740v-671h776v-47h-826zM499 1554l293 287h66l-303 -287h-56z" />
<glyph unicode="&#xca;" horiz-adv-x="1050" d="M124 0v1443h826v-47h-776v-632h740v-46h-740v-671h776v-47h-826zM248 1554l266 287h46l266 -287h-59l-229 249h-2l-229 -249h-59z" />
<glyph unicode="&#xcc;" horiz-adv-x="298" d="M-172 1841h66l294 -287h-57zM124 0v1443h50v-1443h-50z" />
<glyph unicode="&#xcd;" horiz-adv-x="298" d="M111 1554l293 287h66l-303 -287h-56zM124 0v1443h50v-1443h-50z" />
<glyph unicode="&#xd2;" horiz-adv-x="1398" d="M63 722q0 340 172 540.5t464 200.5q291 0 463.5 -200.5t172.5 -540.5q0 -341 -172 -541.5t-464 -200.5q-293 0 -464.5 200.5t-171.5 541.5zM113 722q0 -318 159 -506.5t427 -188.5q267 0 426.5 188.5t159.5 506.5t-159 506t-427 188q-269 0 -427.5 -187.5t-158.5 -506.5z M378 1841h66l294 -287h-57z" />
<glyph unicode="&#xd3;" horiz-adv-x="1398" d="M63 722q0 340 172 540.5t464 200.5q291 0 463.5 -200.5t172.5 -540.5q0 -341 -172 -541.5t-464 -200.5q-293 0 -464.5 200.5t-171.5 541.5zM113 722q0 -318 159 -506.5t427 -188.5q267 0 426.5 188.5t159.5 506.5t-159 506t-427 188q-269 0 -427.5 -187.5t-158.5 -506.5z M661 1554l293 287h66l-303 -287h-56z" />
<glyph unicode="&#xd4;" horiz-adv-x="1398" d="M63 722q0 340 172 540.5t464 200.5q291 0 463.5 -200.5t172.5 -540.5q0 -341 -172 -541.5t-464 -200.5q-293 0 -464.5 200.5t-171.5 541.5zM113 722q0 -318 159 -506.5t427 -188.5q267 0 426.5 188.5t159.5 506.5t-159 506t-427 188q-269 0 -427.5 -187.5t-158.5 -506.5z M410 1554l266 287h46l266 -287h-59l-229 249h-2l-229 -249h-59z" />
<glyph unicode="&#xd5;" horiz-adv-x="1398" d="M63 722q0 340 172 540.5t464 200.5q291 0 463.5 -200.5t172.5 -540.5q0 -341 -172 -541.5t-464 -200.5q-293 0 -464.5 200.5t-171.5 541.5zM113 722q0 -318 159 -506.5t427 -188.5q267 0 426.5 188.5t159.5 506.5t-159 506t-427 188q-269 0 -427.5 -187.5t-158.5 -506.5z M420 1562q0 92 36 146.5t106 54.5q36 0 68 -17t55.5 -41.5t46 -49.5t49.5 -42t55 -17q97 0 97 158h45q0 -93 -36 -147.5t-106 -54.5q-36 0 -68 17.5t-55.5 42t-46 49t-49 42t-55.5 17.5q-97 0 -97 -158h-45z" />
<glyph unicode="&#xd9;" horiz-adv-x="1305" d="M124 499v944h50v-943q0 -218 129.5 -345.5t349.5 -127.5q221 0 350.5 127.5t129.5 345.5v943h50v-944q0 -237 -143.5 -378t-386.5 -141t-386 141t-143 378zM332 1841h66l294 -287h-57z" />
<glyph unicode="&#xda;" horiz-adv-x="1305" d="M124 499v944h50v-943q0 -218 129.5 -345.5t349.5 -127.5q221 0 350.5 127.5t129.5 345.5v943h50v-944q0 -237 -143.5 -378t-386.5 -141t-386 141t-143 378zM615 1554l293 287h66l-303 -287h-56z" />
<glyph unicode="&#xdd;" horiz-adv-x="1148" d="M21 1443h60l492 -758h4l491 758h59l-527 -812v-631h-50v631zM536 1554l293 287h66l-303 -287h-56z" />
<glyph unicode="&#xe0;" horiz-adv-x="1021" d="M90 286q0 137 96 214t284 92l389 30v97q0 153 -86.5 240t-238.5 87q-151 0 -244 -74t-114 -209h-47q17 153 126 241t279 88q173 0 273.5 -99.5t100.5 -270.5v-722h-49v245h-1q-39 -116 -153.5 -188.5t-258.5 -72.5q-157 0 -256.5 84.5t-99.5 217.5zM140 286 q0 -111 87.5 -183.5t221.5 -72.5q169 0 289.5 107.5t120.5 258.5v182l-381 -29q-165 -13 -251.5 -80t-86.5 -183zM282 1557h63l236 -303h-53z" />
<glyph unicode="&#xe1;" horiz-adv-x="1021" d="M90 286q0 137 96 214t284 92l389 30v97q0 153 -86.5 240t-238.5 87q-151 0 -244 -74t-114 -209h-47q17 153 126 241t279 88q173 0 273.5 -99.5t100.5 -270.5v-722h-49v245h-1q-39 -116 -153.5 -188.5t-258.5 -72.5q-157 0 -256.5 84.5t-99.5 217.5zM140 286 q0 -111 87.5 -183.5t221.5 -72.5q169 0 289.5 107.5t120.5 258.5v182l-381 -29q-165 -13 -251.5 -80t-86.5 -183zM485 1254l236 303h63l-246 -303h-53z" />
<glyph unicode="&#xe2;" horiz-adv-x="1021" d="M90 286q0 137 96 214t284 92l389 30v97q0 153 -86.5 240t-238.5 87q-151 0 -244 -74t-114 -209h-47q17 153 126 241t279 88q173 0 273.5 -99.5t100.5 -270.5v-722h-49v245h-1q-39 -116 -153.5 -188.5t-258.5 -72.5q-157 0 -256.5 84.5t-99.5 217.5zM140 286 q0 -111 87.5 -183.5t221.5 -72.5q169 0 289.5 107.5t120.5 258.5v182l-381 -29q-165 -13 -251.5 -80t-86.5 -183zM246 1254l265 303h44l265 -303h-56l-230 264h-2l-230 -264h-56z" />
<glyph unicode="&#xe3;" horiz-adv-x="1021" d="M90 286q0 137 96 214t284 92l389 30v97q0 153 -86.5 240t-238.5 87q-151 0 -244 -74t-114 -209h-47q17 153 126 241t279 88q173 0 273.5 -99.5t100.5 -270.5v-722h-49v245h-1q-39 -116 -153.5 -188.5t-258.5 -72.5q-157 0 -256.5 84.5t-99.5 217.5zM140 286 q0 -111 87.5 -183.5t221.5 -72.5q169 0 289.5 107.5t120.5 258.5v182l-381 -29q-165 -13 -251.5 -80t-86.5 -183zM254 1264q0 92 36 146.5t106 54.5q36 0 68 -17t55.5 -41.5t46 -49.5t49.5 -42t55 -17q97 0 97 158h45q0 -93 -36 -147.5t-106 -54.5q-36 0 -68 17.5t-55.5 42 t-46 49t-49 42t-55.5 17.5q-97 0 -97 -158h-45z" />
<glyph unicode="&#xe8;" horiz-adv-x="1056" d="M65 538q0 250 128 402t340 152q205 0 331.5 -143t126.5 -375v-38h-876v-2q0 -237 116 -370.5t311 -133.5q156 0 257.5 75t126.5 194h51q-28 -140 -144 -227.5t-292 -87.5q-219 0 -347.5 147t-128.5 407zM116 581h825q0 207 -112.5 336t-295.5 129q-180 0 -294 -127.5 t-123 -337.5zM282 1557h63l236 -303h-53z" />
<glyph unicode="&#xe9;" horiz-adv-x="1056" d="M65 538q0 250 128 402t340 152q205 0 331.5 -143t126.5 -375v-38h-876v-2q0 -237 116 -370.5t311 -133.5q156 0 257.5 75t126.5 194h51q-28 -140 -144 -227.5t-292 -87.5q-219 0 -347.5 147t-128.5 407zM116 581h825q0 207 -112.5 336t-295.5 129q-180 0 -294 -127.5 t-123 -337.5zM485 1254l236 303h63l-246 -303h-53z" />
<glyph unicode="&#xea;" horiz-adv-x="1056" d="M65 538q0 250 128 402t340 152q205 0 331.5 -143t126.5 -375v-38h-876v-2q0 -237 116 -370.5t311 -133.5q156 0 257.5 75t126.5 194h51q-28 -140 -144 -227.5t-292 -87.5q-219 0 -347.5 147t-128.5 407zM116 581h825q0 207 -112.5 336t-295.5 129q-180 0 -294 -127.5 t-123 -337.5zM246 1254l265 303h44l265 -303h-56l-230 264h-2l-230 -264h-56z" />
<glyph unicode="&#xec;" horiz-adv-x="309" d="M-96 1557h63l236 -303h-53zM130 0v1076h49v-1076h-49z" />
<glyph unicode="&#xed;" horiz-adv-x="309" d="M107 1254l236 303h63l-246 -303h-53zM130 0v1076h49v-1076h-49z" />
<glyph unicode="&#xf2;" horiz-adv-x="1078" d="M65 538q0 253 130.5 403.5t343.5 150.5t343.5 -150.5t130.5 -403.5t-130.5 -403.5t-343.5 -150.5q-214 0 -344 150.5t-130 403.5zM115 538q0 -233 116 -370t308 -137t308.5 137.5t116.5 369.5q0 233 -116.5 370.5t-308.5 137.5t-308 -137.5t-116 -370.5zM288 1556h63 l236 -303h-53z" />
<glyph unicode="&#xf3;" horiz-adv-x="1078" d="M65 538q0 253 130.5 403.5t343.5 150.5t343.5 -150.5t130.5 -403.5t-130.5 -403.5t-343.5 -150.5q-214 0 -344 150.5t-130 403.5zM115 538q0 -233 116 -370t308 -137t308.5 137.5t116.5 369.5q0 233 -116.5 370.5t-308.5 137.5t-308 -137.5t-116 -370.5zM491 1253 l236 303h63l-246 -303h-53z" />
<glyph unicode="&#xf4;" horiz-adv-x="1078" d="M65 538q0 253 130.5 403.5t343.5 150.5t343.5 -150.5t130.5 -403.5t-130.5 -403.5t-343.5 -150.5q-214 0 -344 150.5t-130 403.5zM115 538q0 -233 116 -370t308 -137t308.5 137.5t116.5 369.5q0 233 -116.5 370.5t-308.5 137.5t-308 -137.5t-116 -370.5zM252 1253 l265 303h44l265 -303h-56l-230 264h-2l-230 -264h-56z" />
<glyph unicode="&#xf5;" horiz-adv-x="1078" d="M65 538q0 253 130.5 403.5t343.5 150.5t343.5 -150.5t130.5 -403.5t-130.5 -403.5t-343.5 -150.5q-214 0 -344 150.5t-130 403.5zM115 538q0 -233 116 -370t308 -137t308.5 137.5t116.5 369.5q0 233 -116.5 370.5t-308.5 137.5t-308 -137.5t-116 -370.5zM259 1263 q0 92 36 146.5t106 54.5q36 0 68 -17t55.5 -42t46 -49.5t49.5 -41.5t55 -17q97 0 97 158h45q0 -93 -36 -147.5t-106 -54.5q-36 0 -68 17.5t-55.5 42t-46 49t-49 42t-55.5 17.5q-97 0 -97 -158h-45z" />
<glyph unicode="&#xf9;" horiz-adv-x="1063" d="M113 375v701h49v-694q0 -164 96.5 -257.5t253.5 -93.5q163 0 272.5 109t109.5 287v649h50v-1076h-46v251h-2q-33 -114 -143.5 -190.5t-246.5 -76.5q-175 0 -284 106.5t-109 284.5zM277 1556h63l236 -303h-53z" />
<glyph unicode="&#xfa;" horiz-adv-x="1063" d="M113 375v701h49v-694q0 -164 96.5 -257.5t253.5 -93.5q163 0 272.5 109t109.5 287v649h50v-1076h-46v251h-2q-33 -114 -143.5 -190.5t-246.5 -76.5q-175 0 -284 106.5t-109 284.5zM480 1253l236 303h63l-246 -303h-53z" />
<glyph unicode="&#xfd;" horiz-adv-x="888" d="M2 1076h54l387 -1029h2l388 1029h54l-417 -1101q-74 -195 -130 -256.5t-162 -61.5q-26 0 -47 9v47q23 -9 53 -9q70 0 115.5 46t89.5 159l28 72zM396 1253l236 303h63l-246 -303h-53z" />
<glyph unicode="&#x102;" d="M20 0l555 1443h51l555 -1443h-56l-189 501h-671l-190 -501h-55zM283 547h635l-315 827h-5zM343 1771h45q0 -75 58.5 -125t153.5 -50t153.5 50t58.5 125h45q0 -99 -71.5 -158t-185.5 -59t-185.5 59t-71.5 158z" />
<glyph unicode="&#x103;" horiz-adv-x="1021" d="M90 286q0 137 96 214t284 92l389 30v97q0 153 -86.5 240t-238.5 87q-151 0 -244 -74t-114 -209h-47q17 153 126 241t279 88q173 0 273.5 -99.5t100.5 -270.5v-722h-49v245h-1q-39 -116 -153.5 -188.5t-258.5 -72.5q-157 0 -256.5 84.5t-99.5 217.5zM140 286 q0 -111 87.5 -183.5t221.5 -72.5q169 0 289.5 107.5t120.5 258.5v182l-381 -29q-165 -13 -251.5 -80t-86.5 -183zM275 1490h45q0 -88 58 -141t155 -53t155 53t58 141h45q0 -112 -72 -174.5t-186 -62.5t-186 62.5t-72 174.5z" />
<glyph unicode="&#x110;" horiz-adv-x="1367" d="M57 717v47h110v679h436q330 0 510 -188t180 -533q0 -346 -180 -534t-510 -188h-436v717h-110zM218 47h384q308 0 474.5 175t166.5 500q0 324 -166.5 499t-474.5 175h-384v-632h382v-47h-382v-670z" />
<glyph unicode="&#x111;" horiz-adv-x="1128" d="M66 537q0 244 130 399.5t334 155.5q144 0 255.5 -83t157.5 -224h5v497h-298v44h298v184h49v-184h107v-44h-107v-1282h-47v300h-5q-44 -145 -156 -230.5t-259 -85.5q-205 0 -334.5 154.5t-129.5 398.5zM116 538q0 -223 116.5 -365.5t299.5 -142.5q184 0 300 142t116 366 q0 223 -116.5 365.5t-299.5 142.5t-299.5 -142t-116.5 -366z" />
<glyph unicode="&#x128;" horiz-adv-x="298" d="M-130 1562q0 92 36 146.5t106 54.5q36 0 68 -17t55.5 -41.5t46 -49.5t49.5 -42t55 -17q97 0 97 158h45q0 -93 -36 -147.5t-106 -54.5q-36 0 -68 17.5t-55.5 42t-46 49t-49 42t-55.5 17.5q-97 0 -97 -158h-45zM124 0v1443h50v-1443h-50z" />
<glyph unicode="&#x129;" horiz-adv-x="309" d="M-125 1264q0 92 36 146.5t106 54.5q36 0 68 -17t55.5 -41.5t46 -49.5t49.5 -42t55 -17q97 0 97 158h45q0 -93 -36 -147.5t-106 -54.5q-36 0 -68 17.5t-55.5 42t-46 49t-49 42t-55.5 17.5q-97 0 -97 -158h-45zM130 0v1076h49v-1076h-49z" />
<glyph unicode="&#x168;" horiz-adv-x="1305" d="M124 499v944h50v-943q0 -218 129.5 -345.5t349.5 -127.5q221 0 350.5 127.5t129.5 345.5v943h50v-944q0 -237 -143.5 -378t-386.5 -141t-386 141t-143 378zM374 1562q0 92 36 146.5t106 54.5q36 0 68 -17t55.5 -41.5t46 -49.5t49.5 -42t55 -17q97 0 97 158h45 q0 -93 -36 -147.5t-106 -54.5q-36 0 -68 17.5t-55.5 42t-46 49t-49 42t-55.5 17.5q-97 0 -97 -158h-45z" />
<glyph unicode="&#x169;" horiz-adv-x="1063" d="M113 375v701h49v-694q0 -164 96.5 -257.5t253.5 -93.5q163 0 272.5 109t109.5 287v649h50v-1076h-46v251h-2q-33 -114 -143.5 -190.5t-246.5 -76.5q-175 0 -284 106.5t-109 284.5zM248 1263q0 92 36 146.5t106 54.5q36 0 68 -17t55.5 -42t46 -49.5t49.5 -41.5t55 -17 q97 0 97 158h45q0 -93 -36 -147.5t-106 -54.5q-36 0 -68 17.5t-55.5 42t-46 49t-49 42t-55.5 17.5q-97 0 -97 -158h-45z" />
<glyph unicode="&#x1a0;" horiz-adv-x="1436" d="M63 721q0 344 171.5 543t467.5 199q96 0 182.5 -23.5t138 -51.5t110.5 -51.5t106 -23.5q111 0 111 138v136h48v-140q0 -85 -40.5 -131.5t-113.5 -46.5q-54 0 -106 26l-4 -4q201 -201 201 -570q0 -343 -170.5 -542t-465.5 -199t-465.5 199t-170.5 542zM113 722 q0 -317 159 -506t427 -189q267 0 426.5 189t159.5 506t-159.5 505.5t-426.5 188.5q-268 0 -427 -188.5t-159 -505.5z" />
<glyph unicode="&#x1a1;" horiz-adv-x="1157" d="M64 539q0 254 129.5 403.5t349.5 149.5q73 0 133 -17.5t99 -42t72 -49.5t67.5 -42.5t69.5 -17.5q59 0 86.5 33.5t27.5 104.5v135h49v-138q0 -88 -39.5 -134.5t-113.5 -46.5q-33 0 -65 13l-4 -3q88 -140 88 -349q0 -253 -128.5 -403.5t-345.5 -150.5t-346 151t-129 404z M114 538q0 -230 115.5 -368.5t308.5 -138.5t309.5 138.5t116.5 368.5t-116.5 369t-309.5 139t-308.5 -138.5t-115.5 -369.5z" />
<glyph unicode="&#x1af;" horiz-adv-x="1456" d="M124 499v944h50v-943q0 -213 131.5 -343t347.5 -130q217 0 348.5 130t131.5 343v943h50v-128q3 -3 69 -3q78 0 112 36.5t34 119.5v119h49v-128q0 -192 -192 -192q-69 0 -72 3v-771q0 -238 -143.5 -378.5t-386.5 -140.5q-242 0 -385.5 140.5t-143.5 378.5z" />
<glyph unicode="&#x1b0;" horiz-adv-x="1198" d="M113 371v705h49v-691q0 -160 96 -257t254 -97q167 0 274.5 112.5t107.5 288.5v644h50v-152q1 -2 57 -2q78 0 112 36t34 119v119h49v-128q0 -192 -192 -192q-57 0 -60 3v-879h-47v245h-4q-40 -121 -143 -191t-243 -70q-176 0 -285 107t-109 280z" />
<glyph unicode="&#x2c6;" horiz-adv-x="686" d="M56 1254l265 303h44l265 -303h-56l-230 264h-2l-230 -264h-56z" />
<glyph unicode="&#x2da;" horiz-adv-x="689" d="M180 1415q0 68 48.5 116.5t116.5 48.5q67 0 115.5 -48.5t48.5 -116.5t-48.5 -117t-115.5 -49q-68 0 -116.5 49t-48.5 117zM218 1415q0 -53 36.5 -90t90.5 -37q53 0 89.5 37t36.5 90t-36.5 90t-89.5 37q-54 0 -90.5 -37t-36.5 -90z" />
<glyph unicode="&#x2dc;" horiz-adv-x="686" d="M64 1264q0 92 36 146.5t106 54.5q36 0 68 -17t55.5 -41.5t46 -49.5t49.5 -42t55 -17q97 0 97 158h45q0 -93 -36 -147.5t-106 -54.5q-36 0 -68 17.5t-55.5 42t-46 49t-49 42t-55.5 17.5q-97 0 -97 -158h-45z" />
<glyph unicode="&#x1ea0;" d="M20 0l555 1443h51l555 -1443h-56l-189 501h-671l-190 -501h-55zM283 547h635l-315 827h-5zM536 -204q0 25 19 44t45 19t45 -19t19 -44q0 -26 -19 -45t-45 -19t-45 19t-19 45z" />
<glyph unicode="&#x1ea1;" horiz-adv-x="1021" d="M90 286q0 137 96 214t284 92l389 30v97q0 153 -86.5 240t-238.5 87q-151 0 -244 -74t-114 -209h-47q17 153 126 241t279 88q173 0 273.5 -99.5t100.5 -270.5v-722h-49v245h-1q-39 -116 -153.5 -188.5t-258.5 -72.5q-157 0 -256.5 84.5t-99.5 217.5zM140 286 q0 -111 87.5 -183.5t221.5 -72.5q169 0 289.5 107.5t120.5 258.5v182l-381 -29q-165 -13 -251.5 -80t-86.5 -183zM455 -204q0 25 19 44t45 19t45 -19t19 -44q0 -26 -19 -45t-45 -19t-45 19t-19 45z" />
<glyph unicode="&#x1ea2;" d="M20 0l555 1443h51l555 -1443h-56l-189 501h-671l-190 -501h-55zM283 547h635l-315 827h-5zM463 1743v42q49 29 114 29q67 0 107 -35.5t40 -93.5q0 -44 -26 -81.5t-72 -59.5l-28 32q37 17 58.5 45.5t21.5 60.5q0 41 -29 65.5t-77 24.5q-66 0 -109 -29z" />
<glyph unicode="&#x1ea3;" horiz-adv-x="1021" d="M90 286q0 137 96 214t284 92l389 30v97q0 153 -86.5 240t-238.5 87q-151 0 -244 -74t-114 -209h-47q17 153 126 241t279 88q173 0 273.5 -99.5t100.5 -270.5v-722h-49v245h-1q-39 -116 -153.5 -188.5t-258.5 -72.5q-157 0 -256.5 84.5t-99.5 217.5zM140 286 q0 -111 87.5 -183.5t221.5 -72.5q169 0 289.5 107.5t120.5 258.5v182l-381 -29q-165 -13 -251.5 -80t-86.5 -183zM418 1440v45q43 29 105 29q66 0 106.5 -36.5t40.5 -94.5q0 -46 -27 -83.5t-72 -57.5l-27 32q80 35 80 107q0 40 -29.5 65t-77.5 25q-60 0 -99 -31z" />
<glyph unicode="&#x1ea4;" d="M20 0l555 1443h51l555 -1443h-56l-189 501h-671l-190 -501h-55zM283 547h635l-315 827h-5zM312 1555l265 204h46l265 -204h-66l-220 169h-3l-220 -169h-67zM776 1755l214 202h64l-222 -202h-56z" />
<glyph unicode="&#x1ea5;" horiz-adv-x="1021" d="M90 286q0 137 96 214t284 92l389 30v97q0 153 -86.5 240t-238.5 87q-151 0 -244 -74t-114 -209h-47q17 153 126 241t279 88q173 0 273.5 -99.5t100.5 -270.5v-722h-49v245h-1q-39 -116 -153.5 -188.5t-258.5 -72.5q-157 0 -256.5 84.5t-99.5 217.5zM140 286 q0 -111 87.5 -183.5t221.5 -72.5q169 0 289.5 107.5t120.5 258.5v182l-381 -29q-165 -13 -251.5 -80t-86.5 -183zM246 1254l263 291h48l263 -291h-55l-231 253h-2l-231 -253h-55zM741 1509l241 294h64l-253 -294h-52z" />
<glyph unicode="&#x1ea6;" d="M20 0l555 1443h51l555 -1443h-56l-189 501h-671l-190 -501h-55zM283 547h635l-315 827h-5zM312 1555l265 204h46l265 -204h-67l-220 169h-2l-220 -169h-67zM670 1957h63l214 -202h-56z" />
<glyph unicode="&#x1ea7;" horiz-adv-x="1021" d="M90 286q0 137 96 214t284 92l389 30v97q0 153 -86.5 240t-238.5 87q-151 0 -244 -74t-114 -209h-47q17 153 126 241t279 88q173 0 273.5 -99.5t100.5 -270.5v-722h-49v245h-1q-39 -116 -153.5 -188.5t-258.5 -72.5q-157 0 -256.5 84.5t-99.5 217.5zM140 286 q0 -111 87.5 -183.5t221.5 -72.5q169 0 289.5 107.5t120.5 258.5v182l-381 -29q-165 -13 -251.5 -80t-86.5 -183zM246 1254l263 291h48l263 -291h-55l-231 253h-2l-231 -253h-55zM605 1803h64l241 -294h-52z" />
<glyph unicode="&#x1ea8;" d="M20 0l555 1443h51l555 -1443h-56l-189 501h-671l-190 -501h-55zM283 547h635l-315 827h-5zM312 1555l265 204h46l265 -204h-66l-220 169h-3l-220 -169h-67zM723 1890v41q36 26 97 26q60 0 98 -33t38 -86q0 -83 -90 -126l-27 30q72 36 72 94q0 36 -26 58t-69 22 q-24 0 -52 -8t-41 -18z" />
<glyph unicode="&#x1ea9;" horiz-adv-x="1021" d="M90 286q0 137 96 214t284 92l389 30v97q0 153 -86.5 240t-238.5 87q-151 0 -244 -74t-114 -209h-47q17 153 126 241t279 88q173 0 273.5 -99.5t100.5 -270.5v-722h-49v245h-1q-39 -116 -153.5 -188.5t-258.5 -72.5q-157 0 -256.5 84.5t-99.5 217.5zM140 286 q0 -111 87.5 -183.5t221.5 -72.5q169 0 289.5 107.5t120.5 258.5v182l-381 -29q-165 -13 -251.5 -80t-86.5 -183zM246 1254l263 291h48l263 -291h-55l-231 253h-2l-231 -253h-55zM635 1705v42q47 29 113 29q67 0 107 -35.5t40 -94.5q0 -45 -25.5 -81.5t-71.5 -58.5l-28 31 q36 17 58 46t22 61q0 40 -29.5 64.5t-77.5 24.5q-67 0 -108 -28z" />
<glyph unicode="&#x1eaa;" d="M20 0l555 1443h51l555 -1443h-56l-189 501h-671l-190 -501h-55zM283 547h635l-315 827h-5zM312 1555l265 203h46l265 -203h-67l-220 168h-2l-220 -168h-67zM344 1841q0 76 36.5 123.5t102.5 47.5q34 0 62 -15t47 -37t36.5 -44t40.5 -37t49 -15q47 0 70 35t24 94h44 q0 -76 -36 -123.5t-102 -47.5q-34 0 -62 15t-46.5 37t-36.5 44t-40.5 37t-49.5 15q-47 0 -70.5 -35.5t-23.5 -93.5h-45z" />
<glyph unicode="&#x1eab;" horiz-adv-x="1021" d="M90 286q0 137 96 214t284 92l389 30v97q0 153 -86.5 240t-238.5 87q-151 0 -244 -74t-114 -209h-47q17 153 126 241t279 88q173 0 273.5 -99.5t100.5 -270.5v-722h-49v245h-1q-39 -116 -153.5 -188.5t-258.5 -72.5q-157 0 -256.5 84.5t-99.5 217.5zM140 286 q0 -111 87.5 -183.5t221.5 -72.5q169 0 289.5 107.5t120.5 258.5v182l-381 -29q-165 -13 -251.5 -80t-86.5 -183zM246 1254l263 291h48l263 -291h-55l-231 253h-2l-231 -253h-55zM276 1631q0 77 36.5 125t101.5 48q34 0 62.5 -15.5t47.5 -37t37.5 -43.5t41 -37.5t49.5 -15.5 q46 0 69 36t23 95h46q0 -77 -36.5 -125.5t-101.5 -48.5q-41 0 -75 23.5t-53.5 51t-48 51t-60.5 23.5q-47 0 -70 -35.5t-23 -94.5h-46z" />
<glyph unicode="&#x1eac;" d="M20 0l555 1443h51l555 -1443h-56l-189 501h-671l-190 -501h-55zM283 547h635l-315 827h-5zM311 1554l266 287h46l266 -287h-59l-229 249h-2l-229 -249h-59zM536 -204q0 25 19 44t45 19t45 -19t19 -44q0 -26 -19 -45t-45 -19t-45 19t-19 45z" />
<glyph unicode="&#x1ead;" horiz-adv-x="1021" d="M90 286q0 137 96 214t284 92l389 30v97q0 153 -86.5 240t-238.5 87q-151 0 -244 -74t-114 -209h-47q17 153 126 241t279 88q173 0 273.5 -99.5t100.5 -270.5v-722h-49v245h-1q-39 -116 -153.5 -188.5t-258.5 -72.5q-157 0 -256.5 84.5t-99.5 217.5zM140 286 q0 -111 87.5 -183.5t221.5 -72.5q169 0 289.5 107.5t120.5 258.5v182l-381 -29q-165 -13 -251.5 -80t-86.5 -183zM246 1254l265 303h44l265 -303h-56l-230 264h-2l-230 -264h-56zM455 -204q0 25 19 44t45 19t45 -19t19 -44q0 -26 -19 -45t-45 -19t-45 19t-19 45z" />
<glyph unicode="&#x1eae;" d="M20 0l555 1443h51l555 -1443h-56l-189 501h-671l-190 -501h-55zM283 547h635l-315 827h-5zM343 1771h45q0 -75 58.5 -124t153.5 -49t153.5 49t58.5 124h45q0 -98 -72 -157t-185 -59t-185 59t-72 157zM545 1755l214 202h63l-221 -202h-56z" />
<glyph unicode="&#x1eaf;" horiz-adv-x="1021" d="M90 286q0 137 96 214t284 92l389 30v97q0 153 -86.5 240t-238.5 87q-151 0 -244 -74t-114 -209h-47q17 153 126 241t279 88q173 0 273.5 -99.5t100.5 -270.5v-722h-49v245h-1q-39 -116 -153.5 -188.5t-258.5 -72.5q-157 0 -256.5 84.5t-99.5 217.5zM140 286 q0 -111 87.5 -183.5t221.5 -72.5q169 0 289.5 107.5t120.5 258.5v182l-381 -29q-165 -13 -251.5 -80t-86.5 -183zM276 1490h44q0 -89 58 -141.5t155 -52.5t155 52.5t58 141.5h44q0 -112 -71.5 -174t-185.5 -62t-185.5 62t-71.5 174zM487 1509l241 294h64l-253 -294h-52z" />
<glyph unicode="&#x1eb0;" d="M20 0l555 1443h51l555 -1443h-56l-189 501h-671l-190 -501h-55zM283 547h635l-315 827h-5zM343 1771h45q0 -75 58.5 -124t153.5 -49t153.5 49t58.5 124h45q0 -98 -72 -157t-185 -59t-185 59t-72 157zM378 1957h63l214 -202h-56z" />
<glyph unicode="&#x1eb1;" horiz-adv-x="1021" d="M90 286q0 137 96 214t284 92l389 30v97q0 153 -86.5 240t-238.5 87q-151 0 -244 -74t-114 -209h-47q17 153 126 241t279 88q173 0 273.5 -99.5t100.5 -270.5v-722h-49v245h-1q-39 -116 -153.5 -188.5t-258.5 -72.5q-157 0 -256.5 84.5t-99.5 217.5zM140 286 q0 -111 87.5 -183.5t221.5 -72.5q169 0 289.5 107.5t120.5 258.5v182l-381 -29q-165 -13 -251.5 -80t-86.5 -183zM274 1803h64l241 -294h-52zM276 1490h44q0 -89 58 -141.5t155 -52.5t155 52.5t58 141.5h44q0 -112 -71.5 -174t-185.5 -62t-185.5 62t-71.5 174z" />
<glyph unicode="&#x1eb2;" d="M20 0l555 1443h51l555 -1443h-56l-189 501h-671l-190 -501h-55zM283 547h635l-315 827h-5zM343 1767h45q1 -73 59 -121t153 -48t153 48t59 121h45q0 -97 -71.5 -154.5t-185.5 -57.5q-113 0 -184.5 57.5t-72.5 154.5zM480 1921v42q35 27 98 27q61 0 99.5 -33.5t38.5 -86.5 q0 -41 -24.5 -76t-67.5 -55l-27 31q73 36 73 97q0 37 -26.5 59t-69.5 22q-54 0 -94 -27z" />
<glyph unicode="&#x1eb3;" horiz-adv-x="1021" d="M90 286q0 137 96 214t284 92l389 30v97q0 153 -86.5 240t-238.5 87q-151 0 -244 -74t-114 -209h-47q17 153 126 241t279 88q173 0 273.5 -99.5t100.5 -270.5v-722h-49v245h-1q-39 -116 -153.5 -188.5t-258.5 -72.5q-157 0 -256.5 84.5t-99.5 217.5zM140 286 q0 -111 87.5 -183.5t221.5 -72.5q169 0 289.5 107.5t120.5 258.5v182l-381 -29q-165 -13 -251.5 -80t-86.5 -183zM276 1490h44q0 -89 58 -141.5t155 -52.5t155 52.5t58 141.5h44q0 -112 -71.5 -174t-185.5 -62t-185.5 62t-71.5 174zM378 1705v42q47 29 112 29 q67 0 107.5 -35.5t40.5 -94.5q0 -45 -25.5 -81.5t-71.5 -58.5l-28 31q36 17 57.5 46t21.5 61q0 40 -29 64.5t-77 24.5q-69 0 -108 -28z" />
<glyph unicode="&#x1eb4;" d="M20 0l555 1443h51l555 -1443h-56l-189 501h-671l-190 -501h-55zM283 547h635l-315 827h-5zM343 1767h45q1 -73 59 -121t153 -48t153 48t59 121h45q-1 -97 -72.5 -154.5t-184.5 -57.5t-184.5 57.5t-72.5 154.5zM343 1841q0 76 36.5 123.5t102.5 47.5q34 0 62 -15t47.5 -37 t37 -43.5t40.5 -36.5t49 -15q46 0 69.5 35t23.5 93h46q0 -76 -36.5 -123.5t-102.5 -47.5q-34 0 -62 15t-47 37t-36.5 44t-40.5 37t-49 15q-47 0 -70.5 -35.5t-23.5 -93.5h-46z" />
<glyph unicode="&#x1eb5;" horiz-adv-x="1021" d="M90 286q0 137 96 214t284 92l389 30v97q0 153 -86.5 240t-238.5 87q-151 0 -244 -74t-114 -209h-47q17 153 126 241t279 88q173 0 273.5 -99.5t100.5 -270.5v-722h-49v245h-1q-39 -116 -153.5 -188.5t-258.5 -72.5q-157 0 -256.5 84.5t-99.5 217.5zM140 286 q0 -111 87.5 -183.5t221.5 -72.5q169 0 289.5 107.5t120.5 258.5v182l-381 -29q-165 -13 -251.5 -80t-86.5 -183zM276 1490h44q0 -89 58 -141.5t155 -52.5t155 52.5t58 141.5h44q0 -112 -71.5 -174t-185.5 -62t-185.5 62t-71.5 174zM276 1631q0 77 36.5 125t101.5 48 q34 0 62.5 -15.5t47.5 -37t37.5 -43.5t41 -37.5t49.5 -15.5q46 0 69 36t23 95h46q0 -77 -36.5 -125.5t-101.5 -48.5q-41 0 -75 23.5t-53.5 51t-48 51t-60.5 23.5q-47 0 -70 -35.5t-23 -94.5h-46z" />
<glyph unicode="&#x1eb6;" d="M20 0l555 1443h51l555 -1443h-56l-189 501h-671l-190 -501h-55zM283 547h635l-315 827h-5zM343 1771h45q0 -75 58.5 -125t153.5 -50t153.5 50t58.5 125h45q0 -99 -71.5 -158t-185.5 -59t-185.5 59t-71.5 158zM536 -204q0 25 19 44t45 19t45 -19t19 -44q0 -26 -19 -45 t-45 -19t-45 19t-19 45z" />
<glyph unicode="&#x1eb7;" horiz-adv-x="1021" d="M90 286q0 137 96 214t284 92l389 30v97q0 153 -86.5 240t-238.5 87q-151 0 -244 -74t-114 -209h-47q17 153 126 241t279 88q173 0 273.5 -99.5t100.5 -270.5v-722h-49v245h-1q-39 -116 -153.5 -188.5t-258.5 -72.5q-157 0 -256.5 84.5t-99.5 217.5zM140 286 q0 -111 87.5 -183.5t221.5 -72.5q169 0 289.5 107.5t120.5 258.5v182l-381 -29q-165 -13 -251.5 -80t-86.5 -183zM275 1490h45q0 -88 58 -141t155 -53t155 53t58 141h45q0 -112 -72 -174.5t-186 -62.5t-186 62.5t-72 174.5zM455 -204q0 25 19 44t45 19t45 -19t19 -44 q0 -26 -19 -45t-45 -19t-45 19t-19 45z" />
<glyph unicode="&#x1eb8;" horiz-adv-x="1050" d="M124 0v1443h826v-47h-776v-632h740v-46h-740v-671h776v-47h-826zM473 -204q0 25 19 44t45 19t45 -19t19 -44q0 -26 -19 -45t-45 -19t-45 19t-19 45z" />
<glyph unicode="&#x1eb9;" horiz-adv-x="1056" d="M65 538q0 250 128 402t340 152q205 0 331.5 -143t126.5 -375v-38h-876v-2q0 -237 116 -370.5t311 -133.5q156 0 257.5 75t126.5 194h51q-28 -140 -144 -227.5t-292 -87.5q-219 0 -347.5 147t-128.5 407zM116 581h825q0 207 -112.5 336t-295.5 129q-180 0 -294 -127.5 t-123 -337.5zM477 -204q0 25 19 44t45 19t45 -19t19 -44q0 -26 -19 -45t-45 -19t-45 19t-19 45z" />
<glyph unicode="&#x1eba;" horiz-adv-x="1050" d="M124 0v1443h826v-47h-776v-632h740v-46h-740v-671h776v-47h-826zM400 1743v42q49 29 114 29q67 0 107 -35.5t40 -93.5q0 -44 -26 -81.5t-72 -59.5l-28 32q37 17 58.5 45.5t21.5 60.5q0 41 -29 65.5t-77 24.5q-66 0 -109 -29z" />
<glyph unicode="&#x1ebb;" horiz-adv-x="1056" d="M65 538q0 250 128 402t340 152q205 0 331.5 -143t126.5 -375v-38h-876v-2q0 -237 116 -370.5t311 -133.5q156 0 257.5 75t126.5 194h51q-28 -140 -144 -227.5t-292 -87.5q-219 0 -347.5 147t-128.5 407zM116 581h825q0 207 -112.5 336t-295.5 129q-180 0 -294 -127.5 t-123 -337.5zM418 1440v45q43 29 105 29q66 0 106.5 -36.5t40.5 -94.5q0 -46 -27 -83.5t-72 -57.5l-27 32q80 35 80 107q0 40 -29.5 65t-77.5 25q-60 0 -99 -31z" />
<glyph unicode="&#x1ebc;" horiz-adv-x="1050" d="M124 0v1443h826v-47h-776v-632h740v-46h-740v-671h776v-47h-826zM258 1562q0 92 36 146.5t106 54.5q36 0 68 -17t55.5 -41.5t46 -49.5t49.5 -42t55 -17q97 0 97 158h45q0 -93 -36 -147.5t-106 -54.5q-36 0 -68 17.5t-55.5 42t-46 49t-49 42t-55.5 17.5q-97 0 -97 -158 h-45z" />
<glyph unicode="&#x1ebd;" horiz-adv-x="1056" d="M65 538q0 250 128 402t340 152q205 0 331.5 -143t126.5 -375v-38h-876v-2q0 -237 116 -370.5t311 -133.5q156 0 257.5 75t126.5 194h51q-28 -140 -144 -227.5t-292 -87.5q-219 0 -347.5 147t-128.5 407zM116 581h825q0 207 -112.5 336t-295.5 129q-180 0 -294 -127.5 t-123 -337.5zM253 1264q0 92 36 146.5t106 54.5q36 0 68 -17t55.5 -41.5t46 -49.5t49.5 -42t55 -17q97 0 97 158h45q0 -93 -36 -147.5t-106 -54.5q-36 0 -68 17.5t-55.5 42t-46 49t-49 42t-55.5 17.5q-97 0 -97 -158h-45z" />
<glyph unicode="&#x1ebe;" horiz-adv-x="1050" d="M124 0v1443h826v-47h-776v-632h740v-46h-740v-671h776v-47h-826zM249 1555l265 204h46l265 -204h-66l-220 169h-3l-220 -169h-67zM713 1755l214 202h64l-222 -202h-56z" />
<glyph unicode="&#x1ebf;" horiz-adv-x="1056" d="M65 538q0 250 128 402t340 152q205 0 331.5 -143t126.5 -375v-38h-876v-2q0 -237 116 -370.5t311 -133.5q156 0 257.5 75t126.5 194h51q-28 -140 -144 -227.5t-292 -87.5q-219 0 -347.5 147t-128.5 407zM116 581h825q0 207 -112.5 336t-295.5 129q-180 0 -294 -127.5 t-123 -337.5zM246 1254l263 291h48l263 -291h-55l-231 253h-2l-231 -253h-55zM741 1509l241 294h64l-253 -294h-52z" />
<glyph unicode="&#x1ec0;" horiz-adv-x="1050" d="M124 0v1443h826v-47h-776v-632h740v-46h-740v-671h776v-47h-826zM249 1555l265 204h46l265 -204h-67l-220 169h-2l-220 -169h-67zM607 1957h63l214 -202h-56z" />
<glyph unicode="&#x1ec1;" horiz-adv-x="1056" d="M65 538q0 250 128 402t340 152q205 0 331.5 -143t126.5 -375v-38h-876v-2q0 -237 116 -370.5t311 -133.5q156 0 257.5 75t126.5 194h51q-28 -140 -144 -227.5t-292 -87.5q-219 0 -347.5 147t-128.5 407zM116 581h825q0 207 -112.5 336t-295.5 129q-180 0 -294 -127.5 t-123 -337.5zM246 1254l263 291h48l263 -291h-55l-231 253h-2l-231 -253h-55zM605 1803h64l241 -294h-52z" />
<glyph unicode="&#x1ec2;" horiz-adv-x="1050" d="M124 0v1443h826v-47h-776v-632h740v-46h-740v-671h776v-47h-826zM249 1555l265 204h46l265 -204h-66l-220 169h-3l-220 -169h-67zM660 1890v41q36 26 97 26q60 0 98 -33t38 -86q0 -83 -90 -126l-27 30q72 36 72 94q0 36 -26 58t-69 22q-24 0 -52 -8t-41 -18z" />
<glyph unicode="&#x1ec3;" horiz-adv-x="1056" d="M65 538q0 250 128 402t340 152q205 0 331.5 -143t126.5 -375v-38h-876v-2q0 -237 116 -370.5t311 -133.5q156 0 257.5 75t126.5 194h51q-28 -140 -144 -227.5t-292 -87.5q-219 0 -347.5 147t-128.5 407zM116 581h825q0 207 -112.5 336t-295.5 129q-180 0 -294 -127.5 t-123 -337.5zM246 1254l263 291h48l263 -291h-55l-231 253h-2l-231 -253h-55zM635 1705v42q47 29 113 29q67 0 107 -35.5t40 -94.5q0 -45 -25.5 -81.5t-71.5 -58.5l-28 31q36 17 58 46t22 61q0 40 -29.5 64.5t-77.5 24.5q-67 0 -108 -28z" />
<glyph unicode="&#x1ec4;" horiz-adv-x="1050" d="M124 0v1443h826v-47h-776v-632h740v-46h-740v-671h776v-47h-826zM249 1555l265 203h46l265 -203h-67l-220 168h-2l-220 -168h-67zM281 1841q0 76 36.5 123.5t102.5 47.5q34 0 62 -15t47 -37t36.5 -44t40.5 -37t49 -15q47 0 70 35t24 94h44q0 -76 -36 -123.5t-102 -47.5 q-34 0 -62 15t-46.5 37t-36.5 44t-40.5 37t-49.5 15q-47 0 -70.5 -35.5t-23.5 -93.5h-45z" />
<glyph unicode="&#x1ec5;" horiz-adv-x="1056" d="M65 538q0 250 128 402t340 152q205 0 331.5 -143t126.5 -375v-38h-876v-2q0 -237 116 -370.5t311 -133.5q156 0 257.5 75t126.5 194h51q-28 -140 -144 -227.5t-292 -87.5q-219 0 -347.5 147t-128.5 407zM116 581h825q0 207 -112.5 336t-295.5 129q-180 0 -294 -127.5 t-123 -337.5zM246 1254l263 291h48l263 -291h-55l-231 253h-2l-231 -253h-55zM276 1631q0 77 36.5 125t101.5 48q34 0 62.5 -15.5t47.5 -37t37.5 -43.5t41 -37.5t49.5 -15.5q46 0 69 36t23 95h46q0 -77 -36.5 -125.5t-101.5 -48.5q-41 0 -75 23.5t-53.5 51t-48 51 t-60.5 23.5q-47 0 -70 -35.5t-23 -94.5h-46z" />
<glyph unicode="&#x1ec6;" horiz-adv-x="1050" d="M124 0v1443h826v-47h-776v-632h740v-46h-740v-671h776v-47h-826zM248 1554l266 287h46l266 -287h-59l-229 249h-2l-229 -249h-59zM473 -204q0 25 19 44t45 19t45 -19t19 -44q0 -26 -19 -45t-45 -19t-45 19t-19 45z" />
<glyph unicode="&#x1ec7;" horiz-adv-x="1056" d="M65 538q0 250 128 402t340 152q205 0 331.5 -143t126.5 -375v-38h-876v-2q0 -237 116 -370.5t311 -133.5q156 0 257.5 75t126.5 194h51q-28 -140 -144 -227.5t-292 -87.5q-219 0 -347.5 147t-128.5 407zM116 581h825q0 207 -112.5 336t-295.5 129q-180 0 -294 -127.5 t-123 -337.5zM246 1254l265 303h44l265 -303h-56l-230 264h-2l-230 -264h-56zM477 -204q0 25 19 44t45 19t45 -19t19 -44q0 -26 -19 -45t-45 -19t-45 19t-19 45z" />
<glyph unicode="&#x1ec8;" horiz-adv-x="298" d="M12 1743v42q49 29 114 29q67 0 107 -35.5t40 -93.5q0 -44 -26 -81.5t-72 -59.5l-28 32q37 17 58.5 45.5t21.5 60.5q0 41 -29 65.5t-77 24.5q-66 0 -109 -29zM124 0v1443h50v-1443h-50z" />
<glyph unicode="&#x1ec9;" horiz-adv-x="309" d="M40 1440v45q43 29 105 29q66 0 106.5 -36.5t40.5 -94.5q0 -46 -27 -83.5t-72 -57.5l-27 32q80 35 80 107q0 40 -29.5 65t-77.5 25q-60 0 -99 -31zM130 0v1076h49v-1076h-49z" />
<glyph unicode="&#x1eca;" horiz-adv-x="298" d="M85 -204q0 25 19 44t45 19t45 -19t19 -44q0 -26 -19 -45t-45 -19t-45 19t-19 45zM124 0v1443h50v-1443h-50z" />
<glyph unicode="&#x1ecb;" horiz-adv-x="309" d="M91 -204q0 25 19 44t45 19t45 -19t19 -44q0 -26 -19 -45t-45 -19t-45 19t-19 45zM106 1414q0 20 14.5 34t34.5 14t34 -14t14 -34t-14.5 -34t-33.5 -14q-20 0 -34.5 14t-14.5 34zM130 0v1076h49v-1076h-49z" />
<glyph unicode="&#x1ecc;" horiz-adv-x="1398" d="M63 722q0 340 172 540.5t464 200.5q291 0 463.5 -200.5t172.5 -540.5q0 -341 -172 -541.5t-464 -200.5q-293 0 -464.5 200.5t-171.5 541.5zM113 722q0 -318 159 -506.5t427 -188.5q267 0 426.5 188.5t159.5 506.5t-159 506t-427 188q-269 0 -427.5 -187.5t-158.5 -506.5z M635 -204q0 25 19 44t45 19t45 -19t19 -44q0 -26 -19 -45t-45 -19t-45 19t-19 45z" />
<glyph unicode="&#x1ecd;" horiz-adv-x="1078" d="M65 538q0 253 130.5 403.5t343.5 150.5t343.5 -150.5t130.5 -403.5t-130.5 -403.5t-343.5 -150.5q-214 0 -344 150.5t-130 403.5zM115 538q0 -233 116 -370t308 -137t308.5 137.5t116.5 369.5q0 233 -116.5 370.5t-308.5 137.5t-308 -137.5t-116 -370.5zM475 -204 q0 25 19 44t45 19t45 -19t19 -44q0 -26 -19 -45t-45 -19t-45 19t-19 45z" />
<glyph unicode="&#x1ece;" horiz-adv-x="1398" d="M63 722q0 340 172 540.5t464 200.5q291 0 463.5 -200.5t172.5 -540.5q0 -341 -172 -541.5t-464 -200.5q-293 0 -464.5 200.5t-171.5 541.5zM113 722q0 -318 159 -506.5t427 -188.5q267 0 426.5 188.5t159.5 506.5t-159 506t-427 188q-269 0 -427.5 -187.5t-158.5 -506.5z M562 1743v42q49 29 114 29q67 0 107 -35.5t40 -93.5q0 -44 -26 -81.5t-72 -59.5l-28 32q37 17 58.5 45.5t21.5 60.5q0 41 -29 65.5t-77 24.5q-66 0 -109 -29z" />
<glyph unicode="&#x1ecf;" horiz-adv-x="1078" d="M65 538q0 253 130.5 403.5t343.5 150.5t343.5 -150.5t130.5 -403.5t-130.5 -403.5t-343.5 -150.5q-214 0 -344 150.5t-130 403.5zM115 538q0 -233 116 -370t308 -137t308.5 137.5t116.5 369.5q0 233 -116.5 370.5t-308.5 137.5t-308 -137.5t-116 -370.5zM424 1439v45 q43 29 105 29q66 0 106.5 -36.5t40.5 -94.5q0 -46 -27 -83.5t-72 -57.5l-27 32q80 35 80 107q0 40 -29.5 65t-77.5 25q-60 0 -99 -31z" />
<glyph unicode="&#x1ed0;" horiz-adv-x="1398" d="M63 722q0 340 172 540.5t464 200.5q291 0 463.5 -200.5t172.5 -540.5q0 -341 -172 -541.5t-464 -200.5q-293 0 -464.5 200.5t-171.5 541.5zM113 722q0 -318 159 -506.5t427 -188.5q267 0 426.5 188.5t159.5 506.5t-159 506t-427 188q-269 0 -427.5 -187.5t-158.5 -506.5z M411 1555l265 204h46l265 -204h-66l-220 169h-3l-220 -169h-67zM875 1755l214 202h64l-222 -202h-56z" />
<glyph unicode="&#x1ed1;" horiz-adv-x="1078" d="M65 538q0 253 130.5 403.5t343.5 150.5t343.5 -150.5t130.5 -403.5t-130.5 -403.5t-343.5 -150.5q-214 0 -344 150.5t-130 403.5zM115 538q0 -233 116 -370t308 -137t308.5 137.5t116.5 369.5q0 233 -116.5 370.5t-308.5 137.5t-308 -137.5t-116 -370.5zM252 1253 l263 291h48l263 -291h-55l-231 253h-2l-231 -253h-55zM747 1508l241 294h64l-253 -294h-52z" />
<glyph unicode="&#x1ed2;" horiz-adv-x="1398" d="M63 722q0 340 172 540.5t464 200.5q291 0 463.5 -200.5t172.5 -540.5q0 -341 -172 -541.5t-464 -200.5q-293 0 -464.5 200.5t-171.5 541.5zM113 722q0 -318 159 -506.5t427 -188.5q267 0 426.5 188.5t159.5 506.5t-159 506t-427 188q-269 0 -427.5 -187.5t-158.5 -506.5z M411 1555l265 204h46l265 -204h-67l-220 169h-2l-220 -169h-67zM769 1957h63l214 -202h-56z" />
<glyph unicode="&#x1ed3;" horiz-adv-x="1078" d="M65 538q0 253 130.5 403.5t343.5 150.5t343.5 -150.5t130.5 -403.5t-130.5 -403.5t-343.5 -150.5q-214 0 -344 150.5t-130 403.5zM115 538q0 -233 116 -370t308 -137t308.5 137.5t116.5 369.5q0 233 -116.5 370.5t-308.5 137.5t-308 -137.5t-116 -370.5zM252 1253 l263 291h48l263 -291h-55l-231 253h-2l-231 -253h-55zM611 1802h64l241 -294h-52z" />
<glyph unicode="&#x1ed4;" horiz-adv-x="1398" d="M63 722q0 340 172 540.5t464 200.5q291 0 463.5 -200.5t172.5 -540.5q0 -341 -172 -541.5t-464 -200.5q-293 0 -464.5 200.5t-171.5 541.5zM113 722q0 -318 159 -506.5t427 -188.5q267 0 426.5 188.5t159.5 506.5t-159 506t-427 188q-269 0 -427.5 -187.5t-158.5 -506.5z M411 1555l265 204h46l265 -204h-66l-220 169h-3l-220 -169h-67zM822 1890v41q36 26 97 26q60 0 98 -33t38 -86q0 -83 -90 -126l-27 30q72 36 72 94q0 36 -26 58t-69 22q-24 0 -52 -8t-41 -18z" />
<glyph unicode="&#x1ed5;" horiz-adv-x="1078" d="M65 538q0 253 130.5 403.5t343.5 150.5t343.5 -150.5t130.5 -403.5t-130.5 -403.5t-343.5 -150.5q-214 0 -344 150.5t-130 403.5zM115 538q0 -233 116 -370t308 -137t308.5 137.5t116.5 369.5q0 233 -116.5 370.5t-308.5 137.5t-308 -137.5t-116 -370.5zM252 1253 l263 291h48l263 -291h-55l-231 253h-2l-231 -253h-55zM641 1704v42q47 29 113 29q67 0 107 -35.5t40 -94.5q0 -45 -25.5 -81.5t-71.5 -58.5l-28 31q36 17 58 46t22 61q0 40 -29.5 64.5t-77.5 24.5q-67 0 -108 -28z" />
<glyph unicode="&#x1ed6;" horiz-adv-x="1398" d="M63 722q0 340 172 540.5t464 200.5q291 0 463.5 -200.5t172.5 -540.5q0 -341 -172 -541.5t-464 -200.5q-293 0 -464.5 200.5t-171.5 541.5zM113 722q0 -318 159 -506.5t427 -188.5q267 0 426.5 188.5t159.5 506.5t-159 506t-427 188q-269 0 -427.5 -187.5t-158.5 -506.5z M411 1555l265 203h46l265 -203h-67l-220 168h-2l-220 -168h-67zM443 1841q0 76 36.5 123.5t102.5 47.5q34 0 62 -15t47 -37t36.5 -44t40.5 -37t49 -15q47 0 70 35t24 94h44q0 -76 -36 -123.5t-102 -47.5q-34 0 -62 15t-46.5 37t-36.5 44t-40.5 37t-49.5 15 q-47 0 -70.5 -35.5t-23.5 -93.5h-45z" />
<glyph unicode="&#x1ed7;" horiz-adv-x="1078" d="M65 538q0 253 130.5 403.5t343.5 150.5t343.5 -150.5t130.5 -403.5t-130.5 -403.5t-343.5 -150.5q-214 0 -344 150.5t-130 403.5zM115 538q0 -233 116 -370t308 -137t308.5 137.5t116.5 369.5q0 233 -116.5 370.5t-308.5 137.5t-308 -137.5t-116 -370.5zM252 1253 l263 291h48l263 -291h-55l-231 253h-2l-231 -253h-55zM282 1630q0 77 36.5 125t101.5 48q34 0 62.5 -15.5t47.5 -37.5t37.5 -43.5t41 -37t49.5 -15.5q46 0 69 36t23 95h46q0 -77 -36.5 -125.5t-101.5 -48.5q-41 0 -75 23.5t-53.5 51t-48 51t-60.5 23.5q-47 0 -70 -35.5 t-23 -94.5h-46z" />
<glyph unicode="&#x1ed8;" horiz-adv-x="1398" d="M63 722q0 340 172 540.5t464 200.5q291 0 463.5 -200.5t172.5 -540.5q0 -341 -172 -541.5t-464 -200.5q-293 0 -464.5 200.5t-171.5 541.5zM113 722q0 -318 159 -506.5t427 -188.5q267 0 426.5 188.5t159.5 506.5t-159 506t-427 188q-269 0 -427.5 -187.5t-158.5 -506.5z M410 1554l266 287h46l266 -287h-59l-229 249h-2l-229 -249h-59zM635 -204q0 25 19 44t45 19t45 -19t19 -44q0 -26 -19 -45t-45 -19t-45 19t-19 45z" />
<glyph unicode="&#x1ed9;" horiz-adv-x="1078" d="M65 538q0 253 130.5 403.5t343.5 150.5t343.5 -150.5t130.5 -403.5t-130.5 -403.5t-343.5 -150.5q-214 0 -344 150.5t-130 403.5zM115 538q0 -233 116 -370t308 -137t308.5 137.5t116.5 369.5q0 233 -116.5 370.5t-308.5 137.5t-308 -137.5t-116 -370.5zM252 1253 l265 303h44l265 -303h-56l-230 264h-2l-230 -264h-56zM475 -204q0 25 19 44t45 19t45 -19t19 -44q0 -26 -19 -45t-45 -19t-45 19t-19 45z" />
<glyph unicode="&#x1eda;" horiz-adv-x="1436" d="M63 721q0 344 171.5 543t467.5 199q96 0 182.5 -23.5t138 -51.5t110.5 -51.5t106 -23.5q111 0 111 138v136h48v-140q0 -85 -40.5 -131.5t-113.5 -46.5q-54 0 -106 26l-4 -4q201 -201 201 -570q0 -343 -170.5 -542t-465.5 -199t-465.5 199t-170.5 542zM113 722 q0 -317 159 -506t427 -189q267 0 426.5 189t159.5 506t-159.5 505.5t-426.5 188.5q-268 0 -427 -188.5t-159 -505.5zM661 1554l293 287h66l-303 -287h-56z" />
<glyph unicode="&#x1edb;" horiz-adv-x="1163" d="M64 539q0 254 129.5 403.5t349.5 149.5q73 0 133 -17.5t99 -42t72 -49.5t67.5 -42.5t69.5 -17.5q59 0 86.5 33.5t27.5 104.5v135h49v-138q0 -88 -39.5 -134.5t-113.5 -46.5q-33 0 -65 13l-4 -3q88 -140 88 -349q0 -253 -128.5 -403.5t-345.5 -150.5t-346 151t-129 404z M114 538q0 -230 115.5 -368.5t308.5 -138.5t309.5 138.5t116.5 368.5t-116.5 369t-309.5 139t-308.5 -138.5t-115.5 -369.5zM491 1253l236 303h63l-246 -303h-53z" />
<glyph unicode="&#x1edc;" horiz-adv-x="1436" d="M63 721q0 344 171.5 543t467.5 199q96 0 182.5 -23.5t138 -51.5t110.5 -51.5t106 -23.5q111 0 111 138v136h48v-140q0 -85 -40.5 -131.5t-113.5 -46.5q-54 0 -106 26l-4 -4q201 -201 201 -570q0 -343 -170.5 -542t-465.5 -199t-465.5 199t-170.5 542zM113 722 q0 -317 159 -506t427 -189q267 0 426.5 189t159.5 506t-159.5 505.5t-426.5 188.5q-268 0 -427 -188.5t-159 -505.5zM378 1841h66l294 -287h-57z" />
<glyph unicode="&#x1edd;" horiz-adv-x="1163" d="M64 539q0 254 129.5 403.5t349.5 149.5q73 0 133 -17.5t99 -42t72 -49.5t67.5 -42.5t69.5 -17.5q59 0 86.5 33.5t27.5 104.5v135h49v-138q0 -88 -39.5 -134.5t-113.5 -46.5q-33 0 -65 13l-4 -3q88 -140 88 -349q0 -253 -128.5 -403.5t-345.5 -150.5t-346 151t-129 404z M114 538q0 -230 115.5 -368.5t308.5 -138.5t309.5 138.5t116.5 368.5t-116.5 369t-309.5 139t-308.5 -138.5t-115.5 -369.5zM288 1556h63l236 -303h-53z" />
<glyph unicode="&#x1ede;" horiz-adv-x="1436" d="M63 721q0 344 171.5 543t467.5 199q96 0 182.5 -23.5t138 -51.5t110.5 -51.5t106 -23.5q111 0 111 138v136h48v-140q0 -85 -40.5 -131.5t-113.5 -46.5q-54 0 -106 26l-4 -4q201 -201 201 -570q0 -343 -170.5 -542t-465.5 -199t-465.5 199t-170.5 542zM113 722 q0 -317 159 -506t427 -189q267 0 426.5 189t159.5 506t-159.5 505.5t-426.5 188.5q-268 0 -427 -188.5t-159 -505.5zM562 1743v42q49 29 114 29q67 0 107 -35.5t40 -93.5q0 -44 -26 -81.5t-72 -59.5l-28 32q37 17 58.5 45.5t21.5 60.5q0 41 -29 65.5t-77 24.5 q-66 0 -109 -29z" />
<glyph unicode="&#x1edf;" horiz-adv-x="1163" d="M64 539q0 254 129.5 403.5t349.5 149.5q73 0 133 -17.5t99 -42t72 -49.5t67.5 -42.5t69.5 -17.5q59 0 86.5 33.5t27.5 104.5v135h49v-138q0 -88 -39.5 -134.5t-113.5 -46.5q-33 0 -65 13l-4 -3q88 -140 88 -349q0 -253 -128.5 -403.5t-345.5 -150.5t-346 151t-129 404z M114 538q0 -230 115.5 -368.5t308.5 -138.5t309.5 138.5t116.5 368.5t-116.5 369t-309.5 139t-308.5 -138.5t-115.5 -369.5zM424 1439v45q43 29 105 29q66 0 106.5 -36.5t40.5 -94.5q0 -46 -27 -83.5t-72 -57.5l-27 32q80 35 80 107q0 40 -29.5 65t-77.5 25q-60 0 -99 -31z " />
<glyph unicode="&#x1ee0;" horiz-adv-x="1436" d="M63 721q0 344 171.5 543t467.5 199q96 0 182.5 -23.5t138 -51.5t110.5 -51.5t106 -23.5q111 0 111 138v136h48v-140q0 -85 -40.5 -131.5t-113.5 -46.5q-54 0 -106 26l-4 -4q201 -201 201 -570q0 -343 -170.5 -542t-465.5 -199t-465.5 199t-170.5 542zM113 722 q0 -317 159 -506t427 -189q267 0 426.5 189t159.5 506t-159.5 505.5t-426.5 188.5q-268 0 -427 -188.5t-159 -505.5zM420 1562q0 92 36 146.5t106 54.5q36 0 68 -17t55.5 -41.5t46 -49.5t49.5 -42t55 -17q97 0 97 158h45q0 -93 -36 -147.5t-106 -54.5q-36 0 -68 17.5 t-55.5 42t-46 49t-49 42t-55.5 17.5q-97 0 -97 -158h-45z" />
<glyph unicode="&#x1ee1;" horiz-adv-x="1163" d="M64 539q0 254 129.5 403.5t349.5 149.5q73 0 133 -17.5t99 -42t72 -49.5t67.5 -42.5t69.5 -17.5q59 0 86.5 33.5t27.5 104.5v135h49v-138q0 -88 -39.5 -134.5t-113.5 -46.5q-33 0 -65 13l-4 -3q88 -140 88 -349q0 -253 -128.5 -403.5t-345.5 -150.5t-346 151t-129 404z M114 538q0 -230 115.5 -368.5t308.5 -138.5t309.5 138.5t116.5 368.5t-116.5 369t-309.5 139t-308.5 -138.5t-115.5 -369.5zM259 1263q0 92 36 146.5t106 54.5q36 0 68 -17t55.5 -42t46 -49.5t49.5 -41.5t55 -17q97 0 97 158h45q0 -93 -36 -147.5t-106 -54.5q-36 0 -68 17.5 t-55.5 42t-46 49t-49 42t-55.5 17.5q-97 0 -97 -158h-45z" />
<glyph unicode="&#x1ee2;" horiz-adv-x="1436" d="M63 721q0 344 171.5 543t467.5 199q96 0 182.5 -23.5t138 -51.5t110.5 -51.5t106 -23.5q111 0 111 138v136h48v-140q0 -85 -40.5 -131.5t-113.5 -46.5q-54 0 -106 26l-4 -4q201 -201 201 -570q0 -343 -170.5 -542t-465.5 -199t-465.5 199t-170.5 542zM113 722 q0 -317 159 -506t427 -189q267 0 426.5 189t159.5 506t-159.5 505.5t-426.5 188.5q-268 0 -427 -188.5t-159 -505.5zM635 -204q0 25 19 44t45 19t45 -19t19 -44q0 -26 -19 -45t-45 -19t-45 19t-19 45z" />
<glyph unicode="&#x1ee3;" horiz-adv-x="1163" d="M64 539q0 254 129.5 403.5t349.5 149.5q73 0 133 -17.5t99 -42t72 -49.5t67.5 -42.5t69.5 -17.5q59 0 86.5 33.5t27.5 104.5v135h49v-138q0 -88 -39.5 -134.5t-113.5 -46.5q-33 0 -65 13l-4 -3q88 -140 88 -349q0 -253 -128.5 -403.5t-345.5 -150.5t-346 151t-129 404z M114 538q0 -230 115.5 -368.5t308.5 -138.5t309.5 138.5t116.5 368.5t-116.5 369t-309.5 139t-308.5 -138.5t-115.5 -369.5zM475 -204q0 25 19 44t45 19t45 -19t19 -44q0 -26 -19 -45t-45 -19t-45 19t-19 45z" />
<glyph unicode="&#x1ee4;" horiz-adv-x="1305" d="M124 499v944h50v-943q0 -218 129.5 -345.5t349.5 -127.5q221 0 350.5 127.5t129.5 345.5v943h50v-944q0 -237 -143.5 -378t-386.5 -141t-386 141t-143 378zM589 -204q0 25 19 44t45 19t45 -19t19 -44q0 -26 -19 -45t-45 -19t-45 19t-19 45z" />
<glyph unicode="&#x1ee5;" horiz-adv-x="1063" d="M113 375v701h49v-694q0 -164 96.5 -257.5t253.5 -93.5q163 0 272.5 109t109.5 287v649h50v-1076h-46v251h-2q-33 -114 -143.5 -190.5t-246.5 -76.5q-175 0 -284 106.5t-109 284.5zM485 -204q0 25 19 44t45 19t45 -19t19 -44q0 -26 -19 -45t-45 -19t-45 19t-19 45z" />
<glyph unicode="&#x1ee6;" horiz-adv-x="1305" d="M124 499v944h50v-943q0 -218 129.5 -345.5t349.5 -127.5q221 0 350.5 127.5t129.5 345.5v943h50v-944q0 -237 -143.5 -378t-386.5 -141t-386 141t-143 378zM516 1743v42q49 29 114 29q67 0 107 -35.5t40 -93.5q0 -44 -26 -81.5t-72 -59.5l-28 32q37 17 58.5 45.5 t21.5 60.5q0 41 -29 65.5t-77 24.5q-66 0 -109 -29z" />
<glyph unicode="&#x1ee7;" horiz-adv-x="1063" d="M113 375v701h49v-694q0 -164 96.5 -257.5t253.5 -93.5q163 0 272.5 109t109.5 287v649h50v-1076h-46v251h-2q-33 -114 -143.5 -190.5t-246.5 -76.5q-175 0 -284 106.5t-109 284.5zM413 1439v45q43 29 105 29q66 0 106.5 -36.5t40.5 -94.5q0 -46 -27 -83.5t-72 -57.5 l-27 32q80 35 80 107q0 40 -29.5 65t-77.5 25q-60 0 -99 -31z" />
<glyph unicode="&#x1ee8;" horiz-adv-x="1456" d="M124 499v944h50v-943q0 -213 131.5 -343t347.5 -130q217 0 348.5 130t131.5 343v943h50v-128q3 -3 69 -3q78 0 112 36.5t34 119.5v119h49v-128q0 -192 -192 -192q-69 0 -72 3v-771q0 -238 -143.5 -378.5t-386.5 -140.5q-242 0 -385.5 140.5t-143.5 378.5zM615 1554 l293 287h66l-303 -287h-56z" />
<glyph unicode="&#x1ee9;" horiz-adv-x="1198" d="M113 371v705h49v-691q0 -160 96 -257t254 -97q167 0 274.5 112.5t107.5 288.5v644h50v-152q1 -2 57 -2q78 0 112 36t34 119v119h49v-128q0 -192 -192 -192q-57 0 -60 3v-879h-47v245h-4q-40 -121 -143 -191t-243 -70q-176 0 -285 107t-109 280zM480 1253l236 303h63 l-246 -303h-53z" />
<glyph unicode="&#x1eea;" horiz-adv-x="1456" d="M124 499v944h50v-943q0 -213 131.5 -343t347.5 -130q217 0 348.5 130t131.5 343v943h50v-128q3 -3 69 -3q78 0 112 36.5t34 119.5v119h49v-128q0 -192 -192 -192q-69 0 -72 3v-771q0 -238 -143.5 -378.5t-386.5 -140.5q-242 0 -385.5 140.5t-143.5 378.5zM332 1841h66 l294 -287h-57z" />
<glyph unicode="&#x1eeb;" horiz-adv-x="1198" d="M113 371v705h49v-691q0 -160 96 -257t254 -97q167 0 274.5 112.5t107.5 288.5v644h50v-152q1 -2 57 -2q78 0 112 36t34 119v119h49v-128q0 -192 -192 -192q-57 0 -60 3v-879h-47v245h-4q-40 -121 -143 -191t-243 -70q-176 0 -285 107t-109 280zM277 1556h63l236 -303h-53 z" />
<glyph unicode="&#x1eec;" horiz-adv-x="1456" d="M124 499v944h50v-943q0 -213 131.5 -343t347.5 -130q217 0 348.5 130t131.5 343v943h50v-128q3 -3 69 -3q78 0 112 36.5t34 119.5v119h49v-128q0 -192 -192 -192q-69 0 -72 3v-771q0 -238 -143.5 -378.5t-386.5 -140.5q-242 0 -385.5 140.5t-143.5 378.5zM516 1743v42 q49 29 114 29q67 0 107 -35.5t40 -93.5q0 -44 -26 -81.5t-72 -59.5l-28 32q37 17 58.5 45.5t21.5 60.5q0 41 -29 65.5t-77 24.5q-66 0 -109 -29z" />
<glyph unicode="&#x1eed;" horiz-adv-x="1198" d="M113 371v705h49v-691q0 -160 96 -257t254 -97q167 0 274.5 112.5t107.5 288.5v644h50v-152q1 -2 57 -2q78 0 112 36t34 119v119h49v-128q0 -192 -192 -192q-57 0 -60 3v-879h-47v245h-4q-40 -121 -143 -191t-243 -70q-176 0 -285 107t-109 280zM413 1439v45q43 29 105 29 q66 0 106.5 -36.5t40.5 -94.5q0 -46 -27 -83.5t-72 -57.5l-27 32q80 35 80 107q0 40 -29.5 65t-77.5 25q-60 0 -99 -31z" />
<glyph unicode="&#x1eee;" horiz-adv-x="1456" d="M124 499v944h50v-943q0 -213 131.5 -343t347.5 -130q217 0 348.5 130t131.5 343v943h50v-128q3 -3 69 -3q78 0 112 36.5t34 119.5v119h49v-128q0 -192 -192 -192q-69 0 -72 3v-771q0 -238 -143.5 -378.5t-386.5 -140.5q-242 0 -385.5 140.5t-143.5 378.5zM374 1562 q0 92 36 146.5t106 54.5q36 0 68 -17t55.5 -41.5t46 -49.5t49.5 -42t55 -17q97 0 97 158h45q0 -93 -36 -147.5t-106 -54.5q-36 0 -68 17.5t-55.5 42t-46 49t-49 42t-55.5 17.5q-97 0 -97 -158h-45z" />
<glyph unicode="&#x1eef;" horiz-adv-x="1198" d="M113 371v705h49v-691q0 -160 96 -257t254 -97q167 0 274.5 112.5t107.5 288.5v644h50v-152q1 -2 57 -2q78 0 112 36t34 119v119h49v-128q0 -192 -192 -192q-57 0 -60 3v-879h-47v245h-4q-40 -121 -143 -191t-243 -70q-176 0 -285 107t-109 280zM248 1263q0 92 36 146.5 t106 54.5q36 0 68 -17t55.5 -42t46 -49.5t49.5 -41.5t55 -17q97 0 97 158h45q0 -93 -36 -147.5t-106 -54.5q-36 0 -68 17.5t-55.5 42t-46 49t-49 42t-55.5 17.5q-97 0 -97 -158h-45z" />
<glyph unicode="&#x1ef0;" horiz-adv-x="1456" d="M124 499v944h50v-943q0 -213 131.5 -343t347.5 -130q217 0 348.5 130t131.5 343v943h50v-128q3 -3 69 -3q78 0 112 36.5t34 119.5v119h49v-128q0 -192 -192 -192q-69 0 -72 3v-771q0 -238 -143.5 -378.5t-386.5 -140.5q-242 0 -385.5 140.5t-143.5 378.5zM589 -204 q0 25 19 44t45 19t45 -19t19 -44q0 -26 -19 -45t-45 -19t-45 19t-19 45z" />
<glyph unicode="&#x1ef1;" horiz-adv-x="1198" d="M113 371v705h49v-691q0 -160 96 -257t254 -97q167 0 274.5 112.5t107.5 288.5v644h50v-152q1 -2 57 -2q78 0 112 36t34 119v119h49v-128q0 -192 -192 -192q-57 0 -60 3v-879h-47v245h-4q-40 -121 -143 -191t-243 -70q-176 0 -285 107t-109 280zM485 -204q0 25 19 44 t45 19t45 -19t19 -44q0 -26 -19 -45t-45 -19t-45 19t-19 45z" />
<glyph unicode="&#x1ef2;" horiz-adv-x="1148" d="M21 1443h60l492 -758h4l491 758h59l-527 -812v-631h-50v631zM253 1841h66l294 -287h-57z" />
<glyph unicode="&#x1ef3;" horiz-adv-x="888" d="M2 1076h54l387 -1029h2l388 1029h54l-417 -1101q-74 -195 -130 -256.5t-162 -61.5q-26 0 -47 9v47q23 -9 53 -9q70 0 115.5 46t89.5 159l28 72zM193 1556h63l236 -303h-53z" />
<glyph unicode="&#x1ef4;" horiz-adv-x="1148" d="M21 1443h60l492 -758h4l491 758h59l-527 -812v-631h-50v631zM510 -204q0 25 19 44t45 19t45 -19t19 -44q0 -26 -19 -45t-45 -19t-45 19t-19 45z" />
<glyph unicode="&#x1ef5;" horiz-adv-x="888" d="M2 1076h54l387 -1029h2l388 1029h54l-417 -1101q-74 -195 -130 -256.5t-162 -61.5q-26 0 -47 9v47q23 -9 53 -9q70 0 115.5 46t89.5 159l28 72zM635 -204q0 25 19 44t45 19t45 -19t19 -44q0 -26 -19 -45t-45 -19t-45 19t-19 45z" />
<glyph unicode="&#x1ef6;" horiz-adv-x="1148" d="M21 1443h60l492 -758h4l491 758h59l-527 -812v-631h-50v631zM437 1743v42q49 29 114 29q67 0 107 -35.5t40 -93.5q0 -44 -26 -81.5t-72 -59.5l-28 32q37 17 58.5 45.5t21.5 60.5q0 41 -29 65.5t-77 24.5q-66 0 -109 -29z" />
<glyph unicode="&#x1ef7;" horiz-adv-x="888" d="M2 1076h54l387 -1029h2l388 1029h54l-417 -1101q-74 -195 -130 -256.5t-162 -61.5q-26 0 -47 9v47q23 -9 53 -9q70 0 115.5 46t89.5 159l28 72zM329 1439v45q43 29 105 29q66 0 106.5 -36.5t40.5 -94.5q0 -46 -27 -83.5t-72 -57.5l-27 32q80 35 80 107q0 40 -29.5 65 t-77.5 25q-60 0 -99 -31z" />
<glyph unicode="&#x1ef8;" horiz-adv-x="1148" d="M21 1443h60l492 -758h4l491 758h59l-527 -812v-631h-50v631zM295 1562q0 92 36 146.5t106 54.5q36 0 68 -17t55.5 -41.5t46 -49.5t49.5 -42t55 -17q97 0 97 158h45q0 -93 -36 -147.5t-106 -54.5q-36 0 -68 17.5t-55.5 42t-46 49t-49 42t-55.5 17.5q-97 0 -97 -158h-45z " />
<glyph unicode="&#x1ef9;" horiz-adv-x="888" d="M2 1076h54l387 -1029h2l388 1029h54l-417 -1101q-74 -195 -130 -256.5t-162 -61.5q-26 0 -47 9v47q23 -9 53 -9q70 0 115.5 46t89.5 159l28 72zM164 1263q0 92 36 146.5t106 54.5q36 0 68 -17t55.5 -42t46 -49.5t49.5 -41.5t55 -17q97 0 97 158h45q0 -93 -36 -147.5 t-106 -54.5q-36 0 -68 17.5t-55.5 42t-46 49t-49 42t-55.5 17.5q-97 0 -97 -158h-45z" />
<glyph unicode="&#x2000;" horiz-adv-x="1006" />
<glyph unicode="&#x2001;" horiz-adv-x="2012" />
<glyph unicode="&#x2002;" horiz-adv-x="1006" />
<glyph unicode="&#x2003;" horiz-adv-x="2012" />
<glyph unicode="&#x2004;" horiz-adv-x="670" />
<glyph unicode="&#x2005;" horiz-adv-x="503" />
<glyph unicode="&#x2006;" horiz-adv-x="335" />
<glyph unicode="&#x2007;" horiz-adv-x="335" />
<glyph unicode="&#x2008;" horiz-adv-x="251" />
<glyph unicode="&#x2009;" horiz-adv-x="402" />
<glyph unicode="&#x200a;" horiz-adv-x="111" />
<glyph unicode="&#x2010;" horiz-adv-x="865" d="M104 554v47h656v-47h-656z" />
<glyph unicode="&#x2011;" horiz-adv-x="865" d="M104 554v47h656v-47h-656z" />
<glyph unicode="&#x2012;" horiz-adv-x="865" d="M104 554v47h656v-47h-656z" />
<glyph unicode="&#x2013;" horiz-adv-x="1024" d="M0 564v46h1024v-46h-1024z" />
<glyph unicode="&#x2014;" horiz-adv-x="2048" d="M0 564v46h2048v-46h-2048z" />
<glyph unicode="&#x2018;" horiz-adv-x="365" d="M89 1443h50l131 -445h-48z" />
<glyph unicode="&#x2019;" horiz-adv-x="365" d="M95 998l131 445h50l-133 -445h-48z" />
<glyph unicode="&#x201a;" horiz-adv-x="384" d="M99 -353l132 445h49l-133 -445h-48z" />
<glyph unicode="&#x201c;" horiz-adv-x="597" d="M99 1443h49l113 -445h-48zM330 1443h50l113 -445h-48z" />
<glyph unicode="&#x201d;" horiz-adv-x="597" d="M104 998l113 445h49l-114 -445h-48zM336 998l113 445h49l-114 -445h-48z" />
<glyph unicode="&#x201e;" horiz-adv-x="597" d="M99 -353l113 445h49l-114 -445h-48zM331 -353l113 445h49l-114 -445h-48z" />
<glyph unicode="&#x2026;" horiz-adv-x="1443" d="M187 47q0 24 17 41t40 17q24 0 40.5 -17t16.5 -41q0 -23 -16.5 -40t-40.5 -17q-23 0 -40 17t-17 40zM665 47q0 24 16.5 41t40.5 17q23 0 40 -17t17 -41q0 -23 -17 -40t-40 -17q-24 0 -40.5 17t-16.5 40zM1142 47q0 24 17 41t40 17q24 0 40.5 -17t16.5 -41 q0 -23 -16.5 -40t-40.5 -17q-23 0 -40 17t-17 40z" />
<glyph unicode="&#x202f;" horiz-adv-x="402" />
<glyph unicode="&#x2039;" horiz-adv-x="755" d="M158 566v4l376 408h63l-370 -407v-6l370 -407h-63z" />
<glyph unicode="&#x203a;" horiz-adv-x="755" d="M158 158l370 407v6l-370 407h63l376 -408v-4l-376 -408h-63z" />
<glyph unicode="&#x205f;" horiz-adv-x="503" />
<glyph unicode="&#x20ac;" horiz-adv-x="1179" d="M41 558v45h265q-7 53 -7 119q0 48 5 103h-263v44h268q28 189 128 325.5t244 202.5t317 66q88 0 138 -11v-48q-48 12 -138 12q-159 0 -292 -61t-225.5 -186t-120.5 -300h594v-44h-600q-5 -55 -5 -103q0 -66 7 -119h598v-45h-591q30 -169 123 -291t224 -181t288 -59 q90 0 138 12v-48q-50 -11 -138 -11q-262 0 -450.5 151.5t-235.5 426.5h-271z" />
<glyph unicode="&#x2122;" horiz-adv-x="1850" d="M94 1399v44h686v-44h-319v-814h-48v814h-319zM953 585v858h53l351 -754h1l345 754h52v-858h-46v765h-1l-332 -721h-38l-338 721h-1v-765h-46z" />
<glyph unicode="&#x25fc;" horiz-adv-x="1075" d="M0 0v1075h1075v-1075h-1075z" />
</font>
</defs>
</svg>
