<?xml version="1.0" standalone="no"?>
<!DOCTYPE svg PUBLIC "-//W3C//DTD SVG 1.1//EN" "http://www.w3.org/Graphics/SVG/1.1/DTD/svg11.dtd" >
<svg xmlns="http://www.w3.org/2000/svg" xmlns:xlink="http://www.w3.org/1999/xlink" version="1.1">
<metadata></metadata>
<defs>
<font id="sf_ui_displaysemibold" horiz-adv-x="1369" >
<font-face units-per-em="2048" ascent="1638" descent="-410" />
<missing-glyph horiz-adv-x="458" />
<glyph horiz-adv-x="0" />
<glyph unicode="&#xd;" horiz-adv-x="0" />
<glyph unicode=" "  horiz-adv-x="458" />
<glyph unicode="&#x09;" horiz-adv-x="458" />
<glyph unicode="&#xa0;" horiz-adv-x="458" />
<glyph unicode="!" horiz-adv-x="611" d="M160 122q0 59 42 100t103 41t103.5 -41t42.5 -100t-42.5 -100.5t-103.5 -41.5t-103 41.5t-42 100.5zM177 1443h257l-20 -967h-217z" />
<glyph unicode="&#x22;" horiz-adv-x="884" d="M118 892v551h217v-551h-217zM549 892v551h217v-551h-217z" />
<glyph unicode="#" horiz-adv-x="1247" d="M28 395l37 190h212l58 291h-202l37 187h202l78 380h192l-75 -380h260l77 380h193l-76 -380h222l-36 -187h-225l-59 -291h213l-36 -190h-215l-79 -395h-194l80 395h-261l-80 -395h-192l79 395h-210zM457 572h279l65 315h-280z" />
<glyph unicode="$" horiz-adv-x="1294" d="M98 405h244q7 -86 71.5 -142.5t169.5 -68.5v437l-96 24q-174 42 -265.5 142t-91.5 250q0 177 120 286.5t333 128.5v138h138v-138q202 -18 323.5 -129.5t125.5 -280.5h-239q-2 80 -60.5 137t-149.5 69v-415l99 -21q190 -45 283 -143t93 -256q0 -187 -124 -298.5 t-351 -129.5v-132h-138v130q-224 14 -354 124.5t-131 287.5zM376 1067q0 -75 53 -124.5t154 -70.5v387q-90 -5 -148.5 -59t-58.5 -133zM721 192q110 7 171 61t61 144q0 83 -56.5 133.5t-175.5 74.5v-413z" />
<glyph unicode="%" horiz-adv-x="1580" d="M47 1108q0 168 86.5 267.5t232.5 99.5q147 0 233 -99.5t86 -267.5q0 -169 -86.5 -269t-232.5 -100t-232.5 100t-86.5 269zM144 0l1054 1443h225l-1053 -1443h-226zM248 1108q0 -98 31.5 -155.5t86.5 -57.5t87 57t32 156q0 100 -31 155.5t-88 55.5q-55 0 -86.5 -56.5 t-31.5 -154.5zM895 350q0 168 86.5 267.5t232.5 99.5q147 0 233 -99.5t86 -267.5q0 -169 -86.5 -269t-232.5 -100t-232.5 100t-86.5 269zM1096 350q0 -98 31.5 -155.5t86.5 -57.5t87 57t32 156q0 100 -31 155.5t-88 55.5q-55 0 -86.5 -56.5t-31.5 -154.5z" />
<glyph unicode="&#x26;" horiz-adv-x="1413" d="M73 380q0 125 66.5 219.5t206.5 170.5q8 4 22.5 12t25.5 13.5l13 6.5q-97 102 -138 177.5t-41 154.5q0 142 112 236t281 94q170 0 279 -92t109 -235q0 -111 -71.5 -200.5t-226.5 -172.5l304 -329q58 104 58 313v64h216v-75q0 -285 -121 -460l263 -277h-290l-120 129 q-85 -73 -203 -113.5t-249 -40.5q-223 0 -359.5 111.5t-136.5 293.5zM311 399q0 -105 78 -170t205 -65q85 0 164.5 30.5t126.5 82.5l-358 389q-26 -11 -42 -23q-93 -58 -133.5 -114.5t-40.5 -129.5zM449 1121q0 -53 31.5 -105.5t109.5 -128.5q109 56 156.5 110.5t47.5 124.5 q0 74 -48 120.5t-124 46.5t-124.5 -47.5t-48.5 -120.5z" />
<glyph unicode="'" horiz-adv-x="453" d="M118 892v551h217v-551h-217z" />
<glyph unicode="(" horiz-adv-x="683" d="M148 599q0 154 21.5 282.5t63.5 230t87 176t108 154.5h224q-42 -48 -83 -125t-79 -182t-62 -245.5t-24 -288.5q0 -147 20.5 -279t60 -242.5t76 -188t88.5 -168.5h-231q-53 67 -98 148.5t-85.5 190t-63.5 247t-23 290.5z" />
<glyph unicode=")" horiz-adv-x="683" d="M31 1442h224q63 -81 108 -155t87 -176t63.5 -230.5t21.5 -281.5q0 -152 -23.5 -291t-64 -247t-85.5 -190t-98 -148h-231q52 91 88.5 168t76.5 188t60.5 243t20.5 279q0 194 -42 374t-95 290t-111 177z" />
<glyph unicode="*" horiz-adv-x="992" d="M116 983l266 119l-266 117l86 154l238 -175l-32 293h176l-32 -293l237 175l87 -154l-266 -117l266 -119l-87 -152l-236 172l31 -290h-176l31 290l-237 -172z" />
<glyph unicode="+" horiz-adv-x="1294" d="M119 464v222h415v437h225v-437h416v-222h-416v-444h-225v444h-415z" />
<glyph unicode="," horiz-adv-x="563" d="M92 -266l90 511h241l-141 -511h-190z" />
<glyph unicode="-" horiz-adv-x="895" d="M119 464v222h657v-222h-657z" />
<glyph unicode="." horiz-adv-x="551" d="M132 133q0 61 41.5 102.5t102.5 41.5q60 0 101.5 -41.5t41.5 -102.5t-41.5 -102.5t-101.5 -41.5q-61 0 -102.5 41.5t-41.5 102.5z" />
<glyph unicode="/" horiz-adv-x="651" d="M0 -306l424 1750h227l-428 -1750h-223z" />
<glyph unicode="0" horiz-adv-x="1300" d="M86 723q0 347 151 548t414 201t413 -200.5t150 -547.5q0 -348 -150 -550.5t-413 -202.5q-264 0 -414.5 201.5t-150.5 550.5zM346 724q0 -255 80.5 -398.5t224.5 -143.5q143 0 222.5 143t79.5 398q0 253 -80 395.5t-222 142.5t-223.5 -143t-81.5 -394z" />
<glyph unicode="1" horiz-adv-x="956" d="M92 935v243l377 265h255v-1443h-253v1197h-6z" />
<glyph unicode="2" horiz-adv-x="1207" d="M93 1012v3q0 200 144 328.5t368 128.5q215 0 354.5 -117t139.5 -293q0 -121 -67.5 -228.5t-223.5 -264.5l-357 -353v-5h670v-211h-1014v174l531 528q123 126 166 197t43 152q0 90 -71.5 152t-178.5 62q-113 0 -187.5 -71t-74.5 -178v-4h-242z" />
<glyph unicode="3" horiz-adv-x="1261" d="M84 402h246q9 -100 87 -160t205 -60q125 0 204 63t79 163q0 109 -77.5 172t-211.5 63h-178v194h174q111 0 180 61.5t69 158.5q0 96 -65.5 153t-184.5 57q-111 0 -181 -60.5t-78 -161.5h-240q11 195 149.5 311t361.5 116q214 0 350 -106t136 -274q0 -133 -81.5 -224.5 t-216.5 -114.5v-6q163 -12 259.5 -105.5t96.5 -243.5q0 -190 -154.5 -308.5t-392.5 -118.5q-236 0 -381 118.5t-155 312.5z" />
<glyph unicode="4" horiz-adv-x="1295" d="M74 273v222q178 336 599 948h367v-959h194v-211h-194v-273h-246v273h-720zM308 478h490v774h-4q-183 -265 -293 -438t-193 -329v-7z" />
<glyph unicode="5" horiz-adv-x="1250" d="M116 406h242q12 -100 91.5 -163t193.5 -63q129 0 209.5 81t80.5 209q0 130 -80.5 212.5t-207.5 82.5q-88 0 -160.5 -38t-112.5 -106h-234l75 822h884v-211h-680l-37 -422h6q45 70 130 110.5t191 40.5q207 0 341 -136.5t134 -347.5q0 -225 -150.5 -365.5t-390.5 -140.5 q-223 0 -370 121.5t-155 313.5z" />
<glyph unicode="6" horiz-adv-x="1284" d="M86 705q0 360 157 564t432 204q198 0 339 -107.5t173 -282.5h-256q-25 82 -95 131t-163 49q-162 0 -252 -144t-89 -404h5q46 107 151 171t240 64q206 0 342 -135.5t136 -340.5q0 -220 -152 -362t-387 -142q-158 0 -281.5 74t-196.5 213q-103 179 -103 448zM378 469 q0 -121 83 -204.5t204 -83.5q120 0 203.5 83t83.5 202q0 122 -80.5 202t-204.5 80t-206.5 -79.5t-82.5 -199.5z" />
<glyph unicode="7" horiz-adv-x="1153" d="M68 1232v211h1004v-215l-617 -1228h-270l633 1227v5h-750z" />
<glyph unicode="8" horiz-adv-x="1296" d="M86 390q0 140 90.5 241.5t237.5 129.5v5q-123 32 -197 120.5t-74 205.5q0 165 142.5 272.5t362.5 107.5q221 0 362.5 -107.5t141.5 -273.5q0 -116 -73.5 -204t-196.5 -121v-5q148 -29 238.5 -130.5t90.5 -240.5q0 -185 -157 -302t-406 -117q-250 0 -406 117t-156 302z M353 409q0 -105 83 -173t212 -68t212 68t83 173q0 106 -82.5 174t-212.5 68q-129 0 -212 -68.5t-83 -173.5zM398 1062q0 -93 70 -153.5t180 -60.5q109 0 179 60.5t70 153.5q0 94 -70 154.5t-179 60.5q-110 0 -180 -60.5t-70 -154.5z" />
<glyph unicode="9" horiz-adv-x="1286" d="M78 970q0 219 152.5 361t386.5 142q159 0 283.5 -74t196.5 -212q103 -179 103 -449q0 -361 -156 -564t-433 -203q-199 0 -340.5 108t-172.5 282h256q24 -82 95.5 -131.5t165.5 -49.5q161 0 250.5 144.5t86.5 404.5h-2h-1h-1q-43 -107 -147.5 -171.5t-243.5 -64.5 q-206 0 -342.5 136t-136.5 341zM332 978q0 -122 81.5 -202.5t204.5 -80.5q124 0 207 80t83 199q0 121 -83.5 204t-204.5 83t-204.5 -82t-83.5 -201z" />
<glyph unicode=":" horiz-adv-x="551" d="M132 133q0 61 41.5 102.5t102.5 41.5q60 0 101.5 -41.5t41.5 -102.5t-41.5 -102.5t-101.5 -41.5q-61 0 -102.5 41.5t-41.5 102.5zM132 855q0 61 41.5 102.5t102.5 41.5q60 0 101.5 -41.5t41.5 -102.5q0 -60 -41.5 -102t-101.5 -42q-61 0 -102.5 42t-41.5 102z" />
<glyph unicode=";" horiz-adv-x="551" d="M58 -266l87 511h244l-142 -511h-189zM132 855q0 61 41.5 102.5t102.5 41.5q60 0 101.5 -41.5t41.5 -102.5q0 -60 -41.5 -102t-101.5 -42q-61 0 -102.5 42t-41.5 102z" />
<glyph unicode="&#x3c;" horiz-adv-x="1294" d="M184 477v195l926 513v-252l-675 -349v-10l675 -333v-253z" />
<glyph unicode="=" horiz-adv-x="1294" d="M136 249v216h1022v-216h-1022zM136 686v216h1022v-216h-1022z" />
<glyph unicode="&#x3e;" horiz-adv-x="1294" d="M184 -11v252l675 334v10l-675 349v252l926 -513v-195z" />
<glyph unicode="?" horiz-adv-x="1060" d="M54 1048q6 182 128.5 294.5t339.5 112.5q204 0 330.5 -106t126.5 -272q0 -215 -212 -341q-98 -57 -133 -105t-35 -123v-58h-232l-1 71q-7 109 37.5 183t149.5 136q94 57 130 105.5t36 122.5q0 80 -58 131.5t-152 51.5q-96 0 -155 -55t-65 -148h-235zM340 122 q0 59 42.5 100t103.5 41t103 -41t42 -100t-42 -100.5t-103 -41.5t-103.5 41.5t-42.5 100.5z" />
<glyph unicode="@" horiz-adv-x="1803" d="M87 610q0 184 62 339.5t171.5 264t265.5 169.5t339 61q234 0 417 -92t285.5 -261t102.5 -388q0 -239 -103.5 -381t-283.5 -142q-91 0 -156 44t-78 117h-12q-31 -76 -94.5 -116t-151.5 -40q-156 0 -251.5 116.5t-95.5 307.5q0 182 94.5 296t246.5 114q81 0 145.5 -38 t93.5 -103h12v120h183v-554q0 -52 26 -82t76 -30q81 0 131 97t50 266q0 272 -178 437t-468 165q-191 0 -342 -87.5t-235 -246t-84 -359.5q0 -159 51.5 -288t144 -214t220.5 -131t281 -46q197 0 295 40v-148q-128 -41 -305 -41q-187 0 -344.5 57t-270.5 162.5t-176.5 263.5 t-63.5 351zM707 603q0 -116 49 -182.5t134 -66.5q89 0 141 67t52 182t-51.5 182.5t-139.5 67.5t-136.5 -66t-48.5 -184z" />
<glyph unicode="A" d="M27 0l512 1443h291l512 -1443h-272l-123 373h-531l-123 -373h-266zM476 572h410l-201 616h-7z" />
<glyph unicode="B" horiz-adv-x="1296" d="M127 0v1443h611q197 0 314 -98t117 -262q0 -116 -76 -206t-187 -108v-8q148 -14 241 -111t93 -240q0 -191 -132.5 -300.5t-363.5 -109.5h-617zM385 201h300q142 0 216.5 58t74.5 169q0 110 -76.5 167t-224.5 57h-290v-451zM385 835h248q135 0 208 54.5t73 155.5 q0 94 -62.5 145.5t-177.5 51.5h-289v-407z" />
<glyph unicode="C" horiz-adv-x="1439" d="M78 722q0 344 181.5 544.5t489.5 200.5q252 0 425 -143.5t197 -375.5h-254q-25 136 -126.5 218t-241.5 82q-186 0 -296.5 -142.5t-110.5 -383.5q0 -243 110 -385t298 -142q143 0 240.5 73.5t127.5 203.5h253q-34 -232 -200 -364t-422 -132q-310 0 -490.5 200t-180.5 546z " />
<glyph unicode="D" horiz-adv-x="1424" d="M127 0v1443h534q324 0 505 -188t181 -530q0 -343 -181 -534t-505 -191h-534zM385 218h249q218 0 334 130t116 376q0 242 -117 371.5t-333 129.5h-249v-1007z" />
<glyph unicode="E" horiz-adv-x="1158" d="M127 0v1443h934v-218h-676v-390h639v-205h-639v-412h676v-218h-934z" />
<glyph unicode="F" horiz-adv-x="1107" d="M127 0v1443h920v-218h-662v-426h605v-210h-605v-589h-258z" />
<glyph unicode="G" horiz-adv-x="1473" d="M78 727q0 343 182.5 541.5t495.5 198.5q246 0 417 -133t206 -350h-262q-37 124 -132 194t-228 70q-195 0 -305 -137t-110 -381q0 -249 113.5 -392t308.5 -143q163 0 266.5 94t106.5 246l1 24h-348v197h600v-154q0 -294 -166.5 -460t-462.5 -166q-316 0 -499.5 201.5 t-183.5 549.5z" />
<glyph unicode="H" horiz-adv-x="1471" d="M127 0v1443h258v-600h702v600h257v-1443h-257v626h-702v-626h-258z" />
<glyph unicode="I" horiz-adv-x="512" d="M127 0v1443h258v-1443h-258z" />
<glyph unicode="J" horiz-adv-x="1096" d="M35 394h251q2 -89 58.5 -144t146.5 -55q104 0 158.5 61.5t54.5 178.5v1008h257v-1010q0 -220 -123.5 -342t-343.5 -122q-207 0 -333 116.5t-126 308.5z" />
<glyph unicode="K" horiz-adv-x="1319" d="M127 0v1443h258v-675h9l576 675h297l-556 -640l599 -803h-314l-469 630l-142 -166v-464h-258z" />
<glyph unicode="L" horiz-adv-x="1098" d="M127 0v1443h258v-1225h655v-218h-913z" />
<glyph unicode="M" horiz-adv-x="1744" d="M127 0v1443h299l442 -1089h8l442 1089h298v-1443h-232v1024h-7l-417 -1012h-176l-417 1012h-7v-1024h-233z" />
<glyph unicode="N" horiz-adv-x="1452" d="M127 0v1443h224l716 -1011h9v1011h248v-1443h-222l-717 1012h-9v-1012h-249z" />
<glyph unicode="O" horiz-adv-x="1525" d="M78 721q0 344 184.5 545t500.5 201q315 0 499.5 -201t184.5 -545t-184.5 -544.5t-499.5 -200.5q-316 0 -500.5 200.5t-184.5 544.5zM342 721q0 -241 114 -383t307 -142t307 142t114 383t-114 383.5t-307 142.5t-307 -142t-114 -384z" />
<glyph unicode="P" horiz-adv-x="1255" d="M127 0v1443h582q215 0 350 -134t135 -349t-138 -349t-358 -134h-313v-477h-258zM385 685h255q139 0 215.5 72t76.5 203q0 130 -76 201t-215 71h-256v-547z" />
<glyph unicode="Q" horiz-adv-x="1525" d="M78 721q0 344 184.5 545t500.5 201q315 0 499.5 -201t184.5 -545q0 -197 -62.5 -350t-179.5 -246l186 -271h-260l-114 163q-113 -41 -254 -41q-316 0 -500.5 200t-184.5 545zM342 721q0 -242 114 -384.5t307 -142.5q60 0 121 18l-166 240h247l85 -116q134 136 134 385 q0 242 -114 385t-307 143t-307 -143t-114 -385z" />
<glyph unicode="R" horiz-adv-x="1287" d="M127 0v1443h580q233 0 366 -120.5t133 -328.5q0 -145 -72 -255.5t-200 -156.5l315 -582h-295l-283 543h-286v-543h-258zM385 741h298q123 0 190.5 65t67.5 182q0 114 -70.5 180t-193.5 66h-292v-493z" />
<glyph unicode="S" horiz-adv-x="1265" d="M68 406h250q12 -99 102 -159.5t223 -60.5q130 0 212.5 58t82.5 148q0 78 -60 126.5t-196 80.5l-187 44q-199 46 -295.5 143t-96.5 252q0 191 150 310t387 119q238 0 383.5 -117.5t150.5 -308.5h-246q-9 101 -87 158.5t-203 57.5q-122 0 -197.5 -55t-75.5 -145 q0 -72 58.5 -117t191.5 -77l166 -38q219 -50 318 -146t99 -257q0 -205 -153.5 -325.5t-415.5 -120.5q-250 0 -401.5 115.5t-159.5 314.5z" />
<glyph unicode="T" horiz-adv-x="1230" d="M48 1225v218h1134v-218h-438v-1225h-258v1225h-438z" />
<glyph unicode="U" horiz-adv-x="1441" d="M127 509v934h258v-911q0 -150 88.5 -240.5t246.5 -90.5t247 90.5t89 240.5v911h257v-934q0 -239 -160.5 -386t-432.5 -147q-271 0 -432 147t-161 386z" />
<glyph unicode="V" horiz-adv-x="1354" d="M27 1443h284l366 -1166h6l366 1166h278l-502 -1443h-296z" />
<glyph unicode="W" horiz-adv-x="1946" d="M43 1443h268l250 -1093h8l290 1093h228l290 -1093h8l250 1093h268l-387 -1443h-243l-295 1044h-10l-295 -1044h-243z" />
<glyph unicode="X" horiz-adv-x="1366" d="M44 0l470 723v7l-466 713h305l334 -542h8l338 542h289l-481 -719v-7l473 -717h-297l-340 530h-8l-344 -530h-281z" />
<glyph unicode="Y" horiz-adv-x="1323" d="M27 1443h283l350 -628h6l349 628h281l-506 -874v-569h-257v569z" />
<glyph unicode="Z" horiz-adv-x="1281" d="M92 0v172l766 1046v7h-745v218h1057v-172l-762 -1046v-7h781v-218h-1097z" />
<glyph unicode="[" horiz-adv-x="722" d="M168 -240v1684h530v-186h-290v-1312h303v-186h-543z" />
<glyph unicode="\" horiz-adv-x="651" d="M0 1444h227l424 -1750h-222z" />
<glyph unicode="]" horiz-adv-x="722" d="M11 -54h304v1312h-291v186h529v-1684h-542v186z" />
<glyph unicode="^" horiz-adv-x="948" d="M42 820l316 617h234l314 -617h-228l-196 413h-17l-199 -413h-224z" />
<glyph unicode="_" horiz-adv-x="846" d="M-49 -107h944v-185h-944v185z" />
<glyph unicode="`" horiz-adv-x="1008" d="M271 1565h246l217 -307h-201z" />
<glyph unicode="a" horiz-adv-x="1116" d="M59 313q0 146 108.5 228t315.5 95l284 17v80q0 86 -55.5 132.5t-156.5 46.5q-84 0 -141 -40t-70 -107h-230q5 150 130.5 246.5t318.5 96.5q205 0 327.5 -98t122.5 -261v-749h-239v176h-6q-45 -87 -137.5 -137.5t-202.5 -50.5q-162 0 -265.5 90t-103.5 235zM309 323 q0 -66 52.5 -105t139.5 -39q114 0 190 64t76 163v83l-250 -16q-208 -14 -208 -150z" />
<glyph unicode="b" horiz-adv-x="1223" d="M114 0v1510h249v-601h6q47 93 136.5 144.5t205.5 51.5q207 0 329.5 -151t122.5 -408q0 -256 -122.5 -407t-330.5 -151q-119 0 -209 51.5t-138 146.5h-6v-186h-243zM362 546q0 -158 75.5 -254.5t198.5 -96.5q124 0 198 95.5t74 255.5t-74.5 256t-197.5 96t-198.5 -97 t-75.5 -255z" />
<glyph unicode="c" horiz-adv-x="1112" d="M60 547q0 256 142 408.5t379 152.5q209 0 339 -114t143 -288h-235q-14 89 -78 144t-166 55q-123 0 -197 -97t-74 -261q0 -168 74 -264t198 -96q100 0 163.5 50t80.5 143h235q-16 -180 -146.5 -288t-334.5 -108q-239 0 -381 151.5t-142 411.5z" />
<glyph unicode="d" horiz-adv-x="1221" d="M60 547q0 253 125 405.5t329 152.5q117 0 206 -52t134 -144h6v601h249v-1510h-244v186h-5q-45 -92 -135.5 -145t-209.5 -53q-205 0 -330 152.5t-125 406.5zM315 546q0 -161 74.5 -256t198.5 -95t198.5 96t74.5 255q0 158 -75 255t-198 97q-124 0 -198.5 -96t-74.5 -256z " />
<glyph unicode="e" horiz-adv-x="1135" d="M60 542q0 258 139.5 412t374.5 154q230 0 365 -146t135 -394v-82h-765v-15q0 -132 77 -212.5t202 -80.5q90 0 155 39.5t87 107.5h234q-24 -152 -157 -246.5t-324 -94.5q-242 0 -382.5 150t-140.5 408zM311 652h518q-4 118 -74 190t-181 72q-109 0 -182 -72.5t-81 -189.5z " />
<glyph unicode="f" horiz-adv-x="696" d="M27 900v193h149v98q0 156 77.5 225.5t253.5 69.5q68 0 121 -10v-181q-35 8 -80 8q-67 0 -96.5 -29t-29.5 -94v-87h207v-193h-204v-900h-249v900h-149z" />
<glyph unicode="g" horiz-adv-x="1215" d="M60 550q0 254 123.5 404.5t332.5 150.5q116 0 206 -52t138 -144h5v184h244v-1066q0 -195 -141.5 -309t-382.5 -114q-205 0 -338 85.5t-147 228.5h249q16 -59 82.5 -93.5t161.5 -34.5q122 0 194.5 58.5t72.5 159.5v186h-6q-44 -88 -135 -139t-208 -51q-204 0 -327.5 148.5 t-123.5 397.5zM315 549q0 -158 73.5 -251t196.5 -93q125 0 200 93.5t75 250.5q0 158 -75.5 253.5t-199.5 95.5q-123 0 -196.5 -94.5t-73.5 -254.5z" />
<glyph unicode="h" horiz-adv-x="1218" d="M114 0v1510h246v-607h5q48 100 138.5 151.5t216.5 51.5q181 0 289 -110.5t108 -297.5v-698h-249v648q0 116 -64.5 181.5t-177.5 65.5q-117 0 -190 -75t-73 -197v-623h-249z" />
<glyph unicode="i" horiz-adv-x="475" d="M97 1369q0 58 41 97.5t99 39.5q59 0 99.5 -39.5t40.5 -97.5t-40.5 -97.5t-99.5 -39.5q-58 0 -99 40t-41 97zM113 0v1093h249v-1093h-249z" />
<glyph unicode="j" horiz-adv-x="475" d="M-68 -191q4 -1 33 -1q80 0 114 32.5t34 110.5v1142h249v-1146q0 -331 -369 -331q-45 0 -61 2v191zM97 1369q0 58 41 97.5t99 39.5q59 0 99.5 -39.5t40.5 -97.5t-40.5 -97.5t-99.5 -39.5q-58 0 -99 40t-41 97z" />
<glyph unicode="k" horiz-adv-x="1090" d="M114 0v1510h249v-876h3l418 459h289l-442 -471l460 -622h-288l-352 471l-88 -89v-382h-249z" />
<glyph unicode="l" horiz-adv-x="478" d="M114 0v1510h249v-1510h-249z" />
<glyph unicode="m" horiz-adv-x="1771" d="M106 0v1093h239v-192h5q36 95 119.5 150t191.5 55q116 0 195.5 -56.5t110.5 -160.5h5q40 100 131.5 158.5t209.5 58.5q161 0 259 -99t98 -263v-744h-249v683q0 102 -52 157.5t-148 55.5q-94 0 -153 -63t-59 -163v-670h-242v697q0 92 -53 145.5t-144 53.5 q-94 0 -154.5 -65.5t-60.5 -166.5v-664h-249z" />
<glyph unicode="n" horiz-adv-x="1194" d="M106 0v1093h239v-190h5q99 203 353 203q182 0 286 -108t104 -298v-700h-249v651q0 117 -61 180.5t-173 63.5q-115 0 -185 -74t-70 -194v-627h-249z" />
<glyph unicode="o" horiz-adv-x="1173" d="M60 547q0 258 142.5 409.5t383.5 151.5q242 0 384.5 -151t142.5 -410q0 -261 -142 -412t-385 -151q-242 0 -384 151t-142 412zM313 546q0 -171 72.5 -267t200.5 -96q129 0 201.5 95.5t72.5 267.5q0 171 -72.5 267t-201.5 96q-128 0 -200.5 -96t-72.5 -267z" />
<glyph unicode="p" horiz-adv-x="1215" d="M106 -351v1444h243v-184h5q45 90 138 143t207 53q209 0 332 -151t123 -408q0 -256 -122 -407t-329 -151q-117 0 -206.5 50.5t-136.5 142.5h-5v-532h-249zM354 546q0 -158 75 -254.5t197 -96.5q124 0 198.5 95.5t74.5 255.5t-74.5 256t-198.5 96q-122 0 -197 -97t-75 -255 z" />
<glyph unicode="q" horiz-adv-x="1215" d="M60 547q0 255 124 406.5t332 151.5q117 0 207.5 -52t136.5 -144h5v184h244v-1444h-249v532h-6q-44 -89 -135 -141t-208 -52q-205 0 -328 152t-123 407zM315 546q0 -161 73.5 -256t196.5 -95q125 0 200 96t75 255q0 158 -75.5 255t-199.5 97q-123 0 -196.5 -95.5 t-73.5 -256.5z" />
<glyph unicode="r" horiz-adv-x="719" d="M106 0v1093h239v-190h5q26 96 95.5 149t166.5 53q46 0 76 -10v-227q-33 15 -99 15q-109 0 -171.5 -66.5t-62.5 -182.5v-634h-249z" />
<glyph unicode="s" horiz-adv-x="1044" d="M59 322h245q11 -74 69.5 -114t156.5 -40q95 0 150.5 35.5t55.5 96.5q0 48 -33.5 76.5t-115.5 47.5l-198 48q-302 71 -302 305q0 149 121 240t318 91q189 0 309 -92.5t124 -241.5h-232q-6 69 -61.5 109.5t-144.5 40.5q-87 0 -139.5 -36.5t-52.5 -96.5q0 -91 159 -128 l192 -44q165 -38 234.5 -106t69.5 -189q0 -152 -129 -246t-335 -94q-200 0 -324.5 92.5t-136.5 245.5z" />
<glyph unicode="t" horiz-adv-x="702" d="M27 900v193h149v244h249v-244h207v-193h-207v-576q0 -133 132 -133q34 0 74 5v-191q-45 -10 -131 -10q-174 0 -249 68.5t-75 226.5v610h-149z" />
<glyph unicode="u" horiz-adv-x="1194" d="M101 392v701h249v-651q0 -118 61.5 -181.5t172.5 -63.5q114 0 184.5 74t70.5 195v627h249v-1093h-239v191h-6q-45 -100 -134.5 -152.5t-213.5 -52.5q-180 0 -287 109t-107 297z" />
<glyph unicode="v" horiz-adv-x="1075" d="M14 1093h265l259 -859h5l258 859h260l-386 -1093h-273z" />
<glyph unicode="w" horiz-adv-x="1602" d="M24 1093h249l188 -844h5l217 844h239l217 -844h5l189 844h246l-297 -1093h-261l-218 803h-6l-217 -803h-259z" />
<glyph unicode="x" horiz-adv-x="1063" d="M27 0l356 545l-352 548h280l225 -387h5l222 387h273l-353 -541l349 -552h-273l-230 395h-6l-229 -395h-267z" />
<glyph unicode="y" horiz-adv-x="1096" d="M17 1093h271l262 -878h5l261 878h263l-396 -1131q-70 -201 -170.5 -280.5t-284.5 -79.5q-73 0 -98 5v198q19 -4 68 -4q80 0 126.5 33.5t69.5 110.5l14 51z" />
<glyph unicode="z" horiz-adv-x="1034" d="M84 0v152l571 741v5h-565v195h851v-166l-549 -728v-4h558v-195h-866z" />
<glyph unicode="{" horiz-adv-x="800" d="M131 492v240q97 0 134.5 46t37.5 164v215q0 189 99 275.5t316 86.5h88v-186h-45q-124 0 -172.5 -47.5t-48.5 -166.5v-261q0 -109 -48.5 -166t-149.5 -67v-28q198 -18 198 -244v-291q0 -117 49.5 -164.5t171.5 -47.5h45v-187h-88q-216 0 -315.5 89t-99.5 283v248 q0 118 -37.5 163.5t-134.5 45.5z" />
<glyph unicode="|" horiz-adv-x="546" d="M160 -305v1748h226v-1748h-226z" />
<glyph unicode="}" horiz-adv-x="800" d="M-6 -150h44q122 0 172 47.5t50 164.5v291q0 226 198 244v28q-101 10 -149.5 67t-48.5 166v261q0 119 -49 166.5t-173 47.5h-44v186h88q217 0 315.5 -86.5t98.5 -275.5v-215q0 -118 38 -164t134 -46v-240q-97 0 -134.5 -45.5t-37.5 -163.5v-248q0 -194 -99 -283t-315 -89 h-88v187z" />
<glyph unicode="~" horiz-adv-x="1214" d="M85 539q-6 182 79 288.5t236 106.5q67 0 127.5 -30.5t128.5 -98.5q47 -48 79 -68t65 -20q118 0 126 179h202q6 -182 -78.5 -288.5t-235.5 -106.5q-66 0 -126 30t-127 97q-49 49 -81.5 69t-66.5 20q-117 0 -125 -178h-203z" />
<glyph unicode="&#xa2;" horiz-adv-x="1294" d="M114 711q0 221 118.5 370t318.5 184v181h217v-178q171 -23 286.5 -134.5t125.5 -264.5h-236q-19 93 -93.5 148t-181.5 55q-134 0 -218.5 -99.5t-84.5 -261.5q0 -164 85 -265.5t218 -101.5q237 0 275 196h236q-15 -157 -127.5 -263.5t-284.5 -129.5v-177h-217v181 q-201 35 -319 185.5t-118 374.5z" />
<glyph unicode="&#xa3;" horiz-adv-x="1294" d="M103 0v203q134 23 219.5 117t85.5 217q0 49 -13 104h-289v184h228q-60 157 -60 251q0 190 143 296.5t400 106.5q90 0 178 -14.5t141 -37.5v-208q-45 22 -128 37t-164 15q-147 0 -229 -58.5t-82 -163.5q0 -84 51 -224h434v-184h-376q10 -48 10 -89q0 -108 -53.5 -195 t-134.5 -137v-6h740v-214h-1101z" />
<glyph unicode="&#xa5;" horiz-adv-x="1294" d="M13 1443h283l348 -625h8l347 625h282l-437 -753h206v-155h-274v-147h274v-155h-274v-233h-257v233h-273v155h273v147h-273v155h205z" />
<glyph unicode="&#xa8;" horiz-adv-x="1008" d="M172 1383q0 52 37 88.5t90 36.5t90 -36.5t37 -88.5q0 -51 -37 -87.5t-90 -36.5t-90 36.5t-37 87.5zM582 1383q0 52 37 88.5t90 36.5t89.5 -36.5t36.5 -88.5q0 -51 -36.5 -87.5t-89.5 -36.5t-90 36.5t-37 87.5z" />
<glyph unicode="&#xa9;" horiz-adv-x="1700" d="M60 641q0 165 62 312t167.5 252t252 166t308.5 61q131 0 251.5 -39t217.5 -111t169.5 -169t112 -218.5t39.5 -253.5q0 -164 -61.5 -311t-167 -252t-252 -166.5t-309.5 -61.5q-162 0 -308.5 61.5t-252 166.5t-167.5 252t-62 311zM216 641q0 -176 84.5 -322.5t230 -230 t319.5 -83.5q131 0 248.5 49.5t202.5 133.5t134.5 202.5t49.5 250.5q0 133 -49.5 251.5t-134.5 202.5t-202.5 133t-248.5 49q-174 0 -319.5 -83t-230 -229.5t-84.5 -323.5zM479 643q0 186 105 295.5t282 109.5q149 0 244.5 -79.5t110.5 -205.5h-170q-13 61 -61.5 99.5 t-122.5 38.5q-96 0 -152 -68.5t-56 -189.5q0 -123 56.5 -192.5t151.5 -69.5q73 0 121.5 34.5t62.5 98.5h170q-15 -127 -109.5 -203.5t-244.5 -76.5q-178 0 -283 110t-105 299z" />
<glyph unicode="&#xab;" horiz-adv-x="1337" d="M121 561v8l349 413h246l-348 -410v-12l348 -412h-249zM620 561v8l349 413h246l-348 -410v-12l348 -412h-249z" />
<glyph unicode="&#xad;" horiz-adv-x="895" d="M119 464v222h657v-222h-657z" />
<glyph unicode="&#xae;" horiz-adv-x="1110" d="M87 1050q0 192 136.5 327t331.5 135q128 0 235.5 -61.5t170 -168t62.5 -232.5q0 -193 -136.5 -328t-331.5 -135q-127 0 -235 61.5t-170.5 168.5t-62.5 233zM207 1050q0 -146 101.5 -247t246.5 -101t246.5 101t101.5 247t-101.5 247t-246.5 101t-246.5 -101t-101.5 -247z M369 846v430h220q70 0 114 -38t44 -98q0 -49 -25.5 -83.5t-69.5 -44.5l116 -166h-130l-97 150h-65v-150h-107zM476 1076h90q32 0 49.5 15t17.5 43q0 56 -65 56h-92v-114z" />
<glyph unicode="&#xb4;" horiz-adv-x="1008" d="M273 1258l218 307h245l-262 -307h-201z" />
<glyph unicode="&#xb8;" horiz-adv-x="1008" d="M331 -336q37 -14 115 -14q111 0 111 62q0 32 -31 46t-103 14h-55v90l63 149l131 -11l-50 -125q94 0 144 -40.5t50 -115.5q0 -83 -63 -132.5t-170 -50.5q-87 0 -142 17v111z" />
<glyph unicode="&#xbb;" horiz-adv-x="1336" d="M121 148l348 412v12l-348 410h246l349 -413v-8l-346 -413h-249zM620 148l348 412v12l-348 410h246l349 -413v-8l-346 -413h-249z" />
<glyph unicode="&#xc0;" d="M27 0l512 1443h291l512 -1443h-272l-123 373h-531l-123 -373h-266zM308 1861h246l231 -306h-198zM476 572h410l-201 616h-7z" />
<glyph unicode="&#xc1;" d="M27 0l512 1443h291l512 -1443h-272l-123 373h-531l-123 -373h-266zM476 572h410l-201 616h-7zM583 1552l231 306h246l-279 -306h-198z" />
<glyph unicode="&#xc2;" d="M27 0l512 1443h291l512 -1443h-272l-123 373h-531l-123 -373h-266zM305 1546l281 310h196l281 -310h-203l-174 198h-4l-174 -198h-203zM476 572h410l-201 616h-7z" />
<glyph unicode="&#xc3;" d="M27 0l512 1443h291l512 -1443h-272l-123 373h-531l-123 -373h-266zM354 1554q0 123 55 193.5t146 70.5q39 0 73 -14.5t58 -35.5t45 -42t42 -35.5t40 -14.5q63 0 65 128h141q0 -121 -56 -193.5t-144 -72.5q-37 0 -70 14.5t-56.5 35.5t-44 42t-42 35.5t-42.5 14.5 q-32 0 -50 -33.5t-19 -92.5h-141zM476 572h410l-201 616h-7z" />
<glyph unicode="&#xc8;" horiz-adv-x="1158" d="M127 0v1443h934v-218h-676v-390h639v-205h-639v-412h676v-218h-934zM218 1861h246l231 -306h-198z" />
<glyph unicode="&#xc9;" horiz-adv-x="1158" d="M127 0v1443h934v-218h-676v-390h639v-205h-639v-412h676v-218h-934zM493 1552l231 306h246l-279 -306h-198z" />
<glyph unicode="&#xca;" horiz-adv-x="1158" d="M127 0v1443h934v-218h-676v-390h639v-205h-639v-412h676v-218h-934zM215 1546l281 310h196l281 -310h-203l-174 198h-4l-174 -198h-203z" />
<glyph unicode="&#xcc;" horiz-adv-x="512" d="M-120 1861h246l231 -306h-198zM127 0v1443h258v-1443h-258z" />
<glyph unicode="&#xcd;" horiz-adv-x="512" d="M127 0v1443h258v-1443h-258zM155 1552l231 306h246l-279 -306h-198z" />
<glyph unicode="&#xd2;" horiz-adv-x="1525" d="M78 721q0 344 184.5 545t500.5 201q315 0 499.5 -201t184.5 -545t-184.5 -544.5t-499.5 -200.5q-316 0 -500.5 200.5t-184.5 544.5zM342 721q0 -241 114 -383t307 -142t307 142t114 383t-114 383.5t-307 142.5t-307 -142t-114 -384zM387 1861h246l231 -306h-198z" />
<glyph unicode="&#xd3;" horiz-adv-x="1525" d="M78 721q0 344 184.5 545t500.5 201q315 0 499.5 -201t184.5 -545t-184.5 -544.5t-499.5 -200.5q-316 0 -500.5 200.5t-184.5 544.5zM342 721q0 -241 114 -383t307 -142t307 142t114 383t-114 383.5t-307 142.5t-307 -142t-114 -384zM662 1552l231 306h246l-279 -306h-198 z" />
<glyph unicode="&#xd4;" horiz-adv-x="1525" d="M78 721q0 344 184.5 545t500.5 201q315 0 499.5 -201t184.5 -545t-184.5 -544.5t-499.5 -200.5q-316 0 -500.5 200.5t-184.5 544.5zM342 721q0 -241 114 -383t307 -142t307 142t114 383t-114 383.5t-307 142.5t-307 -142t-114 -384zM384 1546l281 310h196l281 -310h-203 l-174 198h-4l-174 -198h-203z" />
<glyph unicode="&#xd5;" horiz-adv-x="1525" d="M78 721q0 344 184.5 545t500.5 201q315 0 499.5 -201t184.5 -545t-184.5 -544.5t-499.5 -200.5q-316 0 -500.5 200.5t-184.5 544.5zM342 721q0 -241 114 -383t307 -142t307 142t114 383t-114 383.5t-307 142.5t-307 -142t-114 -384zM433 1554q0 123 55 193.5t146 70.5 q39 0 73 -14.5t58 -35.5t45 -42t42 -35.5t40 -14.5q63 0 65 128h141q0 -121 -56 -193.5t-144 -72.5q-37 0 -70 14.5t-56.5 35.5t-44 42t-42 35.5t-42.5 14.5q-32 0 -50 -33.5t-19 -92.5h-141z" />
<glyph unicode="&#xd9;" horiz-adv-x="1441" d="M127 509v934h258v-911q0 -150 88.5 -240.5t246.5 -90.5t247 90.5t89 240.5v911h257v-934q0 -239 -160.5 -386t-432.5 -147q-271 0 -432 147t-161 386zM344 1861h246l231 -306h-198z" />
<glyph unicode="&#xda;" horiz-adv-x="1441" d="M127 509v934h258v-911q0 -150 88.5 -240.5t246.5 -90.5t247 90.5t89 240.5v911h257v-934q0 -239 -160.5 -386t-432.5 -147q-271 0 -432 147t-161 386zM619 1552l231 306h246l-279 -306h-198z" />
<glyph unicode="&#xdd;" horiz-adv-x="1323" d="M27 1443h283l350 -628h6l349 628h281l-506 -874v-569h-257v569zM560 1552l231 306h246l-279 -306h-198z" />
<glyph unicode="&#xe0;" horiz-adv-x="1116" d="M59 313q0 146 108.5 228t315.5 95l284 17v80q0 86 -55.5 132.5t-156.5 46.5q-84 0 -141 -40t-70 -107h-230q5 150 130.5 246.5t318.5 96.5q205 0 327.5 -98t122.5 -261v-749h-239v176h-6q-45 -87 -137.5 -137.5t-202.5 -50.5q-162 0 -265.5 90t-103.5 235zM195 1565h246 l217 -307h-201zM309 323q0 -66 52.5 -105t139.5 -39q114 0 190 64t76 163v83l-250 -16q-208 -14 -208 -150z" />
<glyph unicode="&#xe1;" horiz-adv-x="1116" d="M59 313q0 146 108.5 228t315.5 95l284 17v80q0 86 -55.5 132.5t-156.5 46.5q-84 0 -141 -40t-70 -107h-230q5 150 130.5 246.5t318.5 96.5q205 0 327.5 -98t122.5 -261v-749h-239v176h-6q-45 -87 -137.5 -137.5t-202.5 -50.5q-162 0 -265.5 90t-103.5 235zM309 323 q0 -66 52.5 -105t139.5 -39q114 0 190 64t76 163v83l-250 -16q-208 -14 -208 -150zM456 1258l218 307h245l-262 -307h-201z" />
<glyph unicode="&#xe2;" horiz-adv-x="1116" d="M59 313q0 146 108.5 228t315.5 95l284 17v80q0 86 -55.5 132.5t-156.5 46.5q-84 0 -141 -40t-70 -107h-230q5 150 130.5 246.5t318.5 96.5q205 0 327.5 -98t122.5 -261v-749h-239v176h-6q-45 -87 -137.5 -137.5t-202.5 -50.5q-162 0 -265.5 90t-103.5 235zM196 1252 l270 311h185l270 -311h-202l-157 192h-7l-157 -192h-202zM309 323q0 -66 52.5 -105t139.5 -39q114 0 190 64t76 163v83l-250 -16q-208 -14 -208 -150z" />
<glyph unicode="&#xe3;" horiz-adv-x="1116" d="M59 313q0 146 108.5 228t315.5 95l284 17v80q0 86 -55.5 132.5t-156.5 46.5q-84 0 -141 -40t-70 -107h-230q5 150 130.5 246.5t318.5 96.5q205 0 327.5 -98t122.5 -261v-749h-239v176h-6q-45 -87 -137.5 -137.5t-202.5 -50.5q-162 0 -265.5 90t-103.5 235zM232 1274 q0 123 55 193.5t146 70.5q39 0 73 -14.5t58 -35.5t45 -42t42 -35.5t40 -14.5q63 0 65 128h141q0 -121 -56 -193.5t-144 -72.5q-37 0 -70 14.5t-56.5 35.5t-44 42t-42 35.5t-42.5 14.5q-32 0 -50 -33.5t-19 -92.5h-141zM309 323q0 -66 52.5 -105t139.5 -39q114 0 190 64 t76 163v83l-250 -16q-208 -14 -208 -150z" />
<glyph unicode="&#xe8;" horiz-adv-x="1135" d="M60 542q0 258 139.5 412t374.5 154q230 0 365 -146t135 -394v-82h-765v-15q0 -132 77 -212.5t202 -80.5q90 0 155 39.5t87 107.5h234q-24 -152 -157 -246.5t-324 -94.5q-242 0 -382.5 150t-140.5 408zM209 1565h246l217 -307h-201zM311 652h518q-4 118 -74 190t-181 72 q-109 0 -182 -72.5t-81 -189.5z" />
<glyph unicode="&#xe9;" horiz-adv-x="1135" d="M60 542q0 258 139.5 412t374.5 154q230 0 365 -146t135 -394v-82h-765v-15q0 -132 77 -212.5t202 -80.5q90 0 155 39.5t87 107.5h234q-24 -152 -157 -246.5t-324 -94.5q-242 0 -382.5 150t-140.5 408zM311 652h518q-4 118 -74 190t-181 72q-109 0 -182 -72.5t-81 -189.5z M470 1258l218 307h245l-262 -307h-201z" />
<glyph unicode="&#xea;" horiz-adv-x="1135" d="M60 542q0 258 139.5 412t374.5 154q230 0 365 -146t135 -394v-82h-765v-15q0 -132 77 -212.5t202 -80.5q90 0 155 39.5t87 107.5h234q-24 -152 -157 -246.5t-324 -94.5q-242 0 -382.5 150t-140.5 408zM210 1252l270 311h185l270 -311h-202l-157 192h-7l-157 -192h-202z M311 652h518q-4 118 -74 190t-181 72q-109 0 -182 -72.5t-81 -189.5z" />
<glyph unicode="&#xec;" horiz-adv-x="475" d="M-127 1565h246l217 -307h-201zM113 0v1093h249v-1093h-249z" />
<glyph unicode="&#xed;" horiz-adv-x="475" d="M113 0v1093h249v-1093h-249zM134 1258l218 307h245l-262 -307h-201z" />
<glyph unicode="&#xf2;" horiz-adv-x="1173" d="M60 547q0 258 142.5 409.5t383.5 151.5q242 0 384.5 -151t142.5 -410q0 -261 -142 -412t-385 -151q-242 0 -384 151t-142 412zM222 1565h246l217 -307h-201zM313 546q0 -171 72.5 -267t200.5 -96q129 0 201.5 95.5t72.5 267.5q0 171 -72.5 267t-201.5 96 q-128 0 -200.5 -96t-72.5 -267z" />
<glyph unicode="&#xf3;" horiz-adv-x="1173" d="M60 547q0 258 142.5 409.5t383.5 151.5q242 0 384.5 -151t142.5 -410q0 -261 -142 -412t-385 -151q-242 0 -384 151t-142 412zM313 546q0 -171 72.5 -267t200.5 -96q129 0 201.5 95.5t72.5 267.5q0 171 -72.5 267t-201.5 96q-128 0 -200.5 -96t-72.5 -267zM483 1258 l218 307h245l-262 -307h-201z" />
<glyph unicode="&#xf4;" horiz-adv-x="1173" d="M60 547q0 258 142.5 409.5t383.5 151.5q242 0 384.5 -151t142.5 -410q0 -261 -142 -412t-385 -151q-242 0 -384 151t-142 412zM223 1252l270 311h185l270 -311h-202l-157 192h-7l-157 -192h-202zM313 546q0 -171 72.5 -267t200.5 -96q129 0 201.5 95.5t72.5 267.5 q0 171 -72.5 267t-201.5 96q-128 0 -200.5 -96t-72.5 -267z" />
<glyph unicode="&#xf5;" horiz-adv-x="1173" d="M60 547q0 258 142.5 409.5t383.5 151.5q242 0 384.5 -151t142.5 -410q0 -261 -142 -412t-385 -151q-242 0 -384 151t-142 412zM259 1274q0 123 55 193.5t146 70.5q39 0 73 -14.5t58 -35.5t45 -42t42 -35.5t40 -14.5q63 0 65 128h141q0 -121 -56 -193.5t-144 -72.5 q-37 0 -70 14.5t-56.5 35.5t-44 42t-42 35.5t-42.5 14.5q-32 0 -50 -33.5t-19 -92.5h-141zM313 546q0 -171 72.5 -267t200.5 -96q129 0 201.5 95.5t72.5 267.5q0 171 -72.5 267t-201.5 96q-128 0 -200.5 -96t-72.5 -267z" />
<glyph unicode="&#xf9;" horiz-adv-x="1194" d="M101 392v701h249v-651q0 -118 61.5 -181.5t172.5 -63.5q114 0 184.5 74t70.5 195v627h249v-1093h-239v191h-6q-45 -100 -134.5 -152.5t-213.5 -52.5q-180 0 -287 109t-107 297zM231 1565h246l217 -307h-201z" />
<glyph unicode="&#xfa;" horiz-adv-x="1194" d="M101 392v701h249v-651q0 -118 61.5 -181.5t172.5 -63.5q114 0 184.5 74t70.5 195v627h249v-1093h-239v191h-6q-45 -100 -134.5 -152.5t-213.5 -52.5q-180 0 -287 109t-107 297zM492 1258l218 307h245l-262 -307h-201z" />
<glyph unicode="&#xfd;" horiz-adv-x="1096" d="M17 1093h271l262 -878h5l261 878h263l-396 -1131q-70 -201 -170.5 -280.5t-284.5 -79.5q-73 0 -98 5v198q19 -4 68 -4q80 0 126.5 33.5t69.5 110.5l14 51zM446 1258l218 307h245l-262 -307h-201z" />
<glyph unicode="&#x102;" d="M27 0l512 1443h291l512 -1443h-272l-123 373h-531l-123 -373h-266zM347 1856h156q1 -78 52 -129.5t129 -51.5t129 51.5t52 129.5h156q-2 -136 -94 -223t-243 -87t-243 87t-94 223zM476 572h410l-201 616h-7z" />
<glyph unicode="&#x103;" horiz-adv-x="1116" d="M59 313q0 146 108.5 228t315.5 95l284 17v80q0 86 -55.5 132.5t-156.5 46.5q-84 0 -141 -40t-70 -107h-230q5 150 130.5 246.5t318.5 96.5q205 0 327.5 -98t122.5 -261v-749h-239v176h-6q-45 -87 -137.5 -137.5t-202.5 -50.5q-162 0 -265.5 90t-103.5 235zM213 1563h159 q1 -79 53.5 -132.5t132.5 -53.5t132.5 53.5t53.5 132.5h159q-2 -140 -96 -229t-249 -89t-249 89t-96 229zM309 323q0 -66 52.5 -105t139.5 -39q114 0 190 64t76 163v83l-250 -16q-208 -14 -208 -150z" />
<glyph unicode="&#x110;" horiz-adv-x="1522" d="M87 637v200h102v606h534q324 0 505 -188t181 -530q0 -343 -181 -534t-505 -191h-534v637h-102zM447 218h249q218 0 334 130t116 376q0 242 -117 371.5t-333 129.5h-249v-388h269v-200h-269v-419z" />
<glyph unicode="&#x111;" horiz-adv-x="1264" d="M81 547q0 259 122 411.5t329 152.5q112 0 200 -51.5t132 -140.5h16v352h-236v141h236v147h248v-147h105v-141h-105v-1271h-242v173h-17q-47 -90 -136 -140.5t-203 -50.5q-207 0 -328 152t-121 413zM336 546q0 -168 72.5 -263t200.5 -95t201.5 95.5t73.5 262.5 q0 165 -74 261.5t-201 96.5q-128 0 -200.5 -95t-72.5 -263z" />
<glyph unicode="&#x128;" horiz-adv-x="512" d="M-74 1554q0 123 55 193.5t146 70.5q39 0 73 -14.5t58 -35.5t45 -42t42 -35.5t40 -14.5q63 0 65 128h141q0 -121 -56 -193.5t-144 -72.5q-37 0 -70 14.5t-56.5 35.5t-44 42t-42 35.5t-42.5 14.5q-32 0 -50 -33.5t-19 -92.5h-141zM127 0v1443h258v-1443h-258z" />
<glyph unicode="&#x129;" horiz-adv-x="475" d="M-90 1274q0 123 55 193.5t146 70.5q39 0 73 -14.5t58 -35.5t45 -42t42 -35.5t40 -14.5q63 0 65 128h141q0 -121 -56 -193.5t-144 -72.5q-37 0 -70 14.5t-56.5 35.5t-44 42t-42 35.5t-42.5 14.5q-32 0 -50 -33.5t-19 -92.5h-141zM113 0v1093h249v-1093h-249z" />
<glyph unicode="&#x168;" horiz-adv-x="1441" d="M127 509v934h258v-911q0 -150 88.5 -240.5t246.5 -90.5t247 90.5t89 240.5v911h257v-934q0 -239 -160.5 -386t-432.5 -147q-271 0 -432 147t-161 386zM390 1554q0 123 55 193.5t146 70.5q39 0 73 -14.5t58 -35.5t45 -42t42 -35.5t40 -14.5q63 0 65 128h141 q0 -121 -56 -193.5t-144 -72.5q-37 0 -70 14.5t-56.5 35.5t-44 42t-42 35.5t-42.5 14.5q-32 0 -50 -33.5t-19 -92.5h-141z" />
<glyph unicode="&#x169;" horiz-adv-x="1194" d="M101 392v701h249v-651q0 -118 61.5 -181.5t172.5 -63.5q114 0 184.5 74t70.5 195v627h249v-1093h-239v191h-6q-45 -100 -134.5 -152.5t-213.5 -52.5q-180 0 -287 109t-107 297zM268 1274q0 123 55 193.5t146 70.5q39 0 73 -14.5t58 -35.5t45 -42t42 -35.5t40 -14.5 q63 0 65 128h141q0 -121 -56 -193.5t-144 -72.5q-37 0 -70 14.5t-56.5 35.5t-44 42t-42 35.5t-42.5 14.5q-32 0 -50 -33.5t-19 -92.5h-141z" />
<glyph unicode="&#x1a0;" horiz-adv-x="1571" d="M78 722q0 343 184 544t497 201q97 0 182 -23.5t133.5 -51.5t102.5 -51.5t96 -23.5q98 0 98 144v171h205v-245q0 -109 -46 -172.5t-125 -63.5q-38 0 -60 11l-4 -4q106 -195 106 -440q0 -341 -185 -541.5t-500 -200.5t-499.5 201t-184.5 545zM342 721q0 -241 114 -383 t307 -142t307 142t114 383t-114 383.5t-307 142.5t-307 -142t-114 -384z" />
<glyph unicode="&#x1a1;" horiz-adv-x="1299" d="M60 543q0 258 141 411.5t378 153.5q87 0 162.5 -23t118 -50.5t87.5 -50.5t78 -23q50 0 74 35t24 110v148h199v-202q0 -121 -64.5 -193.5t-171.5 -72.5q-8 0 -12 1l-2 -1q-2 -2 -3 -2q44 -109 44 -241q0 -258 -142 -408.5t-386 -150.5q-241 0 -383 151t-142 408zM313 546 q0 -171 72.5 -267t200.5 -96q129 0 201.5 96t72.5 267t-72.5 267t-201.5 96q-128 0 -200.5 -96.5t-72.5 -266.5z" />
<glyph unicode="&#x1af;" horiz-adv-x="1657" d="M127 509v934h258v-911q0 -153 90 -242t245 -89t245.5 88.5t90.5 242.5v911h259v-74q40 -29 88 -26q47 2 68 35t21 106v151h199v-204q0 -126 -70 -199.5t-189 -73.5q-30 0 -66 8.5t-53 21.5v-679q0 -241 -162 -387t-431 -146q-268 0 -430.5 146t-162.5 387z" />
<glyph unicode="&#x1b0;" horiz-adv-x="1451" d="M101 392v701h249v-651q0 -117 61 -181t173 -64q114 0 184.5 74t70.5 195v627h249v-69q43 -24 84 -18q47 2 67 34t20 105v151h199v-202q0 -128 -66.5 -201t-184.5 -73q-29 0 -66 7t-53 19v-846h-239v191h-6q-45 -100 -134.5 -152.5t-213.5 -52.5q-181 0 -287.5 110 t-106.5 296z" />
<glyph unicode="&#x2c6;" horiz-adv-x="1009" d="M142 1252l270 311h185l270 -311h-202l-157 192h-7l-157 -192h-202z" />
<glyph unicode="&#x2da;" horiz-adv-x="1038" d="M306 1412q0 87 63 149t150 62t150 -62t63 -149q0 -86 -63 -148t-150 -62t-150 62t-63 148zM412 1412q0 -44 31.5 -75t75.5 -31t75.5 31t31.5 75t-31.5 75t-75.5 31t-75.5 -31t-31.5 -75z" />
<glyph unicode="&#x2dc;" horiz-adv-x="1009" d="M172 1274q0 123 55 193.5t146 70.5q39 0 73 -14.5t58 -35.5t45 -42t42 -35.5t40 -14.5q63 0 65 128h141q0 -121 -56 -193.5t-144 -72.5q-37 0 -70 14.5t-56.5 35.5t-44 42t-42 35.5t-42.5 14.5q-32 0 -50 -33.5t-19 -92.5h-141z" />
<glyph unicode="&#x1ea0;" d="M27 0l512 1443h291l512 -1443h-272l-123 373h-531l-123 -373h-266zM476 572h410l-201 616h-7zM545 -295q0 58 40.5 98.5t98.5 40.5t98.5 -40.5t40.5 -98.5q0 -57 -40.5 -98t-98.5 -41t-98.5 41t-40.5 98z" />
<glyph unicode="&#x1ea1;" horiz-adv-x="1116" d="M59 313q0 146 108.5 228t315.5 95l284 17v80q0 86 -55.5 132.5t-156.5 46.5q-84 0 -141 -40t-70 -107h-230q5 150 130.5 246.5t318.5 96.5q205 0 327.5 -98t122.5 -261v-749h-239v176h-6q-45 -87 -137.5 -137.5t-202.5 -50.5q-162 0 -265.5 90t-103.5 235zM309 323 q0 -66 52.5 -105t139.5 -39q114 0 190 64t76 163v83l-250 -16q-208 -14 -208 -150zM408 -295q0 58 40.5 98.5t98.5 40.5t98.5 -40.5t40.5 -98.5q0 -57 -40.5 -98t-98.5 -41t-98.5 41t-40.5 98z" />
<glyph unicode="&#x1ea2;" d="M27 0l512 1443h291l512 -1443h-272l-123 373h-531l-123 -373h-266zM476 572h410l-201 616h-7zM508 1784v118q55 25 135 25q100 0 160.5 -49.5t60.5 -133.5q0 -67 -48.5 -124.5t-128.5 -87.5l-76 96q42 13 68 42t26 61q0 31 -26 51t-67 20q-60 0 -104 -18z" />
<glyph unicode="&#x1ea3;" horiz-adv-x="1116" d="M59 313q0 146 108.5 228t315.5 95l284 17v80q0 86 -55.5 132.5t-156.5 46.5q-84 0 -141 -40t-70 -107h-230q5 150 130.5 246.5t318.5 96.5q205 0 327.5 -98t122.5 -261v-749h-239v176h-6q-45 -87 -137.5 -137.5t-202.5 -50.5q-162 0 -265.5 90t-103.5 235zM309 323 q0 -66 52.5 -105t139.5 -39q114 0 190 64t76 163v83l-250 -16q-208 -14 -208 -150zM421 1464v124q65 27 144 27q98 0 157 -53t59 -142q0 -68 -48 -126.5t-131 -92.5l-76 97q49 19 71.5 45.5t22.5 64.5q0 34 -27.5 56t-69.5 22q-52 0 -102 -22z" />
<glyph unicode="&#x1ea4;" d="M27 0l512 1443h291l512 -1443h-272l-123 373h-531l-123 -373h-266zM321 1563l263 249h205l262 -249h-214l-144 143h-13l-145 -143h-214zM476 572h410l-201 616h-7zM786 1873l190 229h230l-236 -229h-184z" />
<glyph unicode="&#x1ea5;" horiz-adv-x="1116" d="M59 313q0 146 108.5 228t315.5 95l284 17v80q0 86 -55.5 132.5t-156.5 46.5q-84 0 -141 -40t-70 -107h-230q5 150 130.5 246.5t318.5 96.5q205 0 327.5 -98t122.5 -261v-749h-239v176h-6q-45 -87 -137.5 -137.5t-202.5 -50.5q-162 0 -265.5 90t-103.5 235zM192 1252 l259 282h216l259 -282h-200l-164 180h-6l-164 -180h-200zM309 323q0 -66 52.5 -105t139.5 -39q114 0 190 64t76 163v83l-250 -16q-208 -14 -208 -150zM718 1582l184 293h217l-222 -293h-179z" />
<glyph unicode="&#x1ea6;" d="M27 0l512 1443h291l512 -1443h-272l-123 373h-531l-123 -373h-266zM319 1563l263 249h204l263 -249h-214l-145 143h-12l-145 -143h-214zM476 572h410l-201 616h-7zM595 2102h230l191 -229h-184z" />
<glyph unicode="&#x1ea7;" horiz-adv-x="1116" d="M59 313q0 146 108.5 228t315.5 95l284 17v80q0 86 -55.5 132.5t-156.5 46.5q-84 0 -141 -40t-70 -107h-230q5 150 130.5 246.5t318.5 96.5q205 0 327.5 -98t122.5 -261v-749h-239v176h-6q-45 -87 -137.5 -137.5t-202.5 -50.5q-162 0 -265.5 90t-103.5 235zM192 1252 l259 282h216l259 -282h-200l-164 180h-6l-164 -180h-200zM309 323q0 -66 52.5 -105t139.5 -39q114 0 190 64t76 163v83l-250 -16q-208 -14 -208 -150zM562 1875h217l184 -293h-180z" />
<glyph unicode="&#x1ea8;" d="M27 0l512 1443h291l512 -1443h-272l-123 373h-531l-123 -373h-266zM320 1563l264 249h204l262 -249h-213l-145 143h-13l-145 -143h-214zM476 572h410l-201 616h-7zM804 1968v111q48 25 124 25q92 0 147.5 -47t55.5 -126q0 -62 -36.5 -114t-100.5 -76l-87 85 q37 13 56.5 38t19.5 54t-24 48t-61 19q-53 0 -94 -17z" />
<glyph unicode="&#x1ea9;" horiz-adv-x="1116" d="M59 313q0 146 108.5 228t315.5 95l284 17v80q0 86 -55.5 132.5t-156.5 46.5q-84 0 -141 -40t-70 -107h-230q5 150 130.5 246.5t318.5 96.5q205 0 327.5 -98t122.5 -261v-749h-239v176h-6q-45 -87 -137.5 -137.5t-202.5 -50.5q-162 0 -265.5 90t-103.5 235zM192 1252 l259 282h216l259 -282h-200l-164 180h-6l-164 -180h-200zM309 323q0 -66 52.5 -105t139.5 -39q114 0 190 64t76 163v83l-250 -16q-208 -14 -208 -150zM665 1743v118q46 22 117 22q99 0 157.5 -48.5t58.5 -131.5q0 -149 -155 -204l-81 86q42 16 65.5 43.5t23.5 59.5t-25.5 52 t-65.5 20q-49 0 -95 -17z" />
<glyph unicode="&#x1eaa;" d="M27 0l512 1443h291l512 -1443h-272l-123 373h-531l-123 -373h-266zM319 1563l263 236h204l263 -236h-214l-145 131h-12l-145 -131h-214zM359 1876q0 113 56 177.5t148 64.5q49 0 88.5 -20t60.5 -44.5t45.5 -44.5t47.5 -20q67 0 72 114h138q0 -112 -56.5 -178.5 t-145.5 -66.5q-39 0 -71 13.5t-52.5 33t-38.5 38.5t-38.5 32.5t-42.5 13.5q-36 0 -53 -27.5t-20 -85.5h-138zM476 572h410l-201 616h-7z" />
<glyph unicode="&#x1eab;" horiz-adv-x="1116" d="M59 313q0 146 108.5 228t315.5 95l284 17v80q0 86 -55.5 132.5t-156.5 46.5q-84 0 -141 -40t-70 -107h-230q5 150 130.5 246.5t318.5 96.5q205 0 327.5 -98t122.5 -261v-749h-239v176h-6q-45 -87 -137.5 -137.5t-202.5 -50.5q-162 0 -265.5 90t-103.5 235zM192 1252 l259 276h216l259 -276h-200l-164 175h-6l-164 -175h-200zM226 1627q0 123 55.5 193.5t146.5 70.5q39 0 73 -14.5t58 -35.5t44.5 -42t41.5 -35.5t41 -14.5q62 0 64 128h142q0 -121 -56 -193.5t-144 -72.5q-37 0 -70.5 14.5t-56.5 35.5t-43.5 42t-42 35.5t-42.5 14.5 q-67 0 -69 -126h-142zM309 323q0 -66 52.5 -105t139.5 -39q114 0 190 64t76 163v83l-250 -16q-208 -14 -208 -150z" />
<glyph unicode="&#x1eac;" d="M27 0l512 1443h291l512 -1443h-272l-123 373h-531l-123 -373h-266zM305 1546l281 310h196l281 -310h-203l-174 198h-4l-174 -198h-203zM476 572h410l-201 616h-7zM545 -295q0 58 40.5 98.5t98.5 40.5t98.5 -40.5t40.5 -98.5q0 -57 -40.5 -98t-98.5 -41t-98.5 41t-40.5 98 z" />
<glyph unicode="&#x1ead;" horiz-adv-x="1116" d="M59 313q0 146 108.5 228t315.5 95l284 17v80q0 86 -55.5 132.5t-156.5 46.5q-84 0 -141 -40t-70 -107h-230q5 150 130.5 246.5t318.5 96.5q205 0 327.5 -98t122.5 -261v-749h-239v176h-6q-45 -87 -137.5 -137.5t-202.5 -50.5q-162 0 -265.5 90t-103.5 235zM196 1252 l270 311h185l270 -311h-202l-157 192h-7l-157 -192h-202zM309 323q0 -66 52.5 -105t139.5 -39q114 0 190 64t76 163v83l-250 -16q-208 -14 -208 -150zM408 -295q0 58 40.5 98.5t98.5 40.5t98.5 -40.5t40.5 -98.5q0 -57 -40.5 -98t-98.5 -41t-98.5 41t-40.5 98z" />
<glyph unicode="&#x1eae;" d="M27 0l512 1443h291l512 -1443h-272l-123 373h-531l-123 -373h-266zM343 1849h163q1 -65 51.5 -109.5t126.5 -44.5t126.5 44.5t51.5 109.5h163q-1 -125 -93.5 -205.5t-247.5 -80.5t-247.5 80.5t-93.5 205.5zM476 572h410l-201 616h-7zM554 1873l190 229h230l-236 -229 h-184z" />
<glyph unicode="&#x1eaf;" horiz-adv-x="1116" d="M59 313q0 146 108.5 228t315.5 95l284 17v80q0 86 -55.5 132.5t-156.5 46.5q-84 0 -141 -40t-70 -107h-230q5 150 130.5 246.5t318.5 96.5q205 0 327.5 -98t122.5 -261v-749h-239v176h-6q-45 -87 -137.5 -137.5t-202.5 -50.5q-162 0 -265.5 90t-103.5 235zM220 1563h155 q2 -83 51.5 -133.5t132.5 -50.5t132.5 50.5t51.5 133.5h155q-2 -139 -93 -225t-246 -86t-246 86t-93 225zM309 323q0 -66 52.5 -105t139.5 -39q114 0 190 64t76 163v83l-250 -16q-208 -14 -208 -150zM444 1582l185 293h217l-222 -293h-180z" />
<glyph unicode="&#x1eb0;" d="M27 0l512 1443h291l512 -1443h-272l-123 373h-531l-123 -373h-266zM343 1849h163q1 -65 51.5 -109.5t126.5 -44.5t126.5 44.5t51.5 109.5h163q-1 -125 -93.5 -205.5t-247.5 -80.5t-247.5 80.5t-93.5 205.5zM394 2102h230l190 -229h-184zM476 572h410l-201 616h-7z" />
<glyph unicode="&#x1eb1;" horiz-adv-x="1116" d="M59 313q0 146 108.5 228t315.5 95l284 17v80q0 86 -55.5 132.5t-156.5 46.5q-84 0 -141 -40t-70 -107h-230q5 150 130.5 246.5t318.5 96.5q205 0 327.5 -98t122.5 -261v-749h-239v176h-6q-45 -87 -137.5 -137.5t-202.5 -50.5q-162 0 -265.5 90t-103.5 235zM220 1563h155 q2 -83 51.5 -133.5t132.5 -50.5t132.5 50.5t51.5 133.5h155q-2 -139 -93 -225t-246 -86t-246 86t-93 225zM281 1868h214l174 -289h-165zM309 323q0 -66 52.5 -105t139.5 -39q114 0 190 64t76 163v83l-250 -16q-208 -14 -208 -150z" />
<glyph unicode="&#x1eb2;" d="M27 0l512 1443h291l512 -1443h-272l-123 373h-531l-123 -373h-266zM348 1815h161q7 -54 54.5 -87t120.5 -33q74 0 122.5 33t54.5 87h162q-5 -113 -98.5 -182.5t-240.5 -69.5q-146 0 -239 69.5t-97 182.5zM476 572h410l-201 616h-7zM509 2017v115q50 27 130 27 q95 0 151.5 -47t56.5 -126q0 -63 -48 -121t-122 -84l-69 89q41 13 65.5 40.5t24.5 58.5q0 30 -25.5 49.5t-65.5 19.5q-56 0 -98 -21z" />
<glyph unicode="&#x1eb3;" horiz-adv-x="1116" d="M59 313q0 146 108.5 228t315.5 95l284 17v80q0 86 -55.5 132.5t-156.5 46.5q-84 0 -141 -40t-70 -107h-230q5 150 130.5 246.5t318.5 96.5q205 0 327.5 -98t122.5 -261v-749h-239v176h-6q-45 -87 -137.5 -137.5t-202.5 -50.5q-162 0 -265.5 90t-103.5 235zM220 1563h155 q2 -83 51.5 -133.5t132.5 -50.5t132.5 50.5t51.5 133.5h155q-2 -139 -93 -225t-246 -86t-246 86t-93 225zM309 323q0 -66 52.5 -105t139.5 -39q114 0 190 64t76 163v83l-250 -16q-208 -14 -208 -150zM390 1760v113q42 22 113 22q97 0 153.5 -47.5t56.5 -127.5 q0 -141 -150 -195l-78 83q85 37 85 99q0 31 -24.5 50.5t-63.5 19.5q-46 0 -92 -17z" />
<glyph unicode="&#x1eb4;" d="M27 0l512 1443h291l512 -1443h-272l-123 373h-531l-123 -373h-266zM346 1815h162q6 -53 54 -86.5t122 -33.5q75 0 122.5 33.5t53.5 86.5h162q-5 -111 -96.5 -181.5t-241.5 -70.5t-241.5 70.5t-96.5 181.5zM346 1879q0 107 60.5 173t154.5 66q40 0 73.5 -13t56 -31.5 t41 -37t37 -31.5t35.5 -13q61 0 67 111h151q0 -108 -59.5 -175.5t-150.5 -67.5q-47 0 -86 20t-60 44t-47 44t-50 20q-65 0 -72 -109h-151zM476 572h410l-201 616h-7z" />
<glyph unicode="&#x1eb5;" horiz-adv-x="1116" d="M59 313q0 146 108.5 228t315.5 95l284 17v80q0 86 -55.5 132.5t-156.5 46.5q-84 0 -141 -40t-70 -107h-230q5 150 130.5 246.5t318.5 96.5q205 0 327.5 -98t122.5 -261v-749h-239v176h-6q-45 -87 -137.5 -137.5t-202.5 -50.5q-162 0 -265.5 90t-103.5 235zM220 1563h155 q2 -83 51.5 -133.5t132.5 -50.5t132.5 50.5t51.5 133.5h155q-2 -139 -93 -225t-246 -86t-246 86t-93 225zM226 1630q0 121 55.5 191t146.5 70q39 0 73 -14.5t58 -35.5t44.5 -42t41.5 -35.5t41 -14.5q62 0 64 128h142q0 -121 -56 -193.5t-144 -72.5q-37 0 -70.5 14.5 t-56.5 35.5t-43.5 42t-42 35.5t-42.5 14.5q-33 0 -50.5 -33t-18.5 -90h-142zM309 323q0 -66 52.5 -105t139.5 -39q114 0 190 64t76 163v83l-250 -16q-208 -14 -208 -150z" />
<glyph unicode="&#x1eb6;" d="M27 0l512 1443h291l512 -1443h-272l-123 373h-531l-123 -373h-266zM347 1856h156q1 -78 52 -129.5t129 -51.5t129 51.5t52 129.5h156q-2 -136 -94 -223t-243 -87t-243 87t-94 223zM476 572h410l-201 616h-7zM545 -295q0 58 40.5 98.5t98.5 40.5t98.5 -40.5t40.5 -98.5 q0 -57 -40.5 -98t-98.5 -41t-98.5 41t-40.5 98z" />
<glyph unicode="&#x1eb7;" horiz-adv-x="1116" d="M59 313q0 146 108.5 228t315.5 95l284 17v80q0 86 -55.5 132.5t-156.5 46.5q-84 0 -141 -40t-70 -107h-230q5 150 130.5 246.5t318.5 96.5q205 0 327.5 -98t122.5 -261v-749h-239v176h-6q-45 -87 -137.5 -137.5t-202.5 -50.5q-162 0 -265.5 90t-103.5 235zM213 1563h159 q1 -79 53.5 -132.5t132.5 -53.5t132.5 53.5t53.5 132.5h159q-2 -140 -96 -229t-249 -89t-249 89t-96 229zM309 323q0 -66 52.5 -105t139.5 -39q114 0 190 64t76 163v83l-250 -16q-208 -14 -208 -150zM408 -295q0 58 40.5 98.5t98.5 40.5t98.5 -40.5t40.5 -98.5 q0 -57 -40.5 -98t-98.5 -41t-98.5 41t-40.5 98z" />
<glyph unicode="&#x1eb8;" horiz-adv-x="1158" d="M127 0v1443h934v-218h-676v-390h639v-205h-639v-412h676v-218h-934zM455 -295q0 58 40.5 98.5t98.5 40.5t98.5 -40.5t40.5 -98.5q0 -57 -40.5 -98t-98.5 -41t-98.5 41t-40.5 98z" />
<glyph unicode="&#x1eb9;" horiz-adv-x="1135" d="M60 542q0 258 139.5 412t374.5 154q230 0 365 -146t135 -394v-82h-765v-15q0 -132 77 -212.5t202 -80.5q90 0 155 39.5t87 107.5h234q-24 -152 -157 -246.5t-324 -94.5q-242 0 -382.5 150t-140.5 408zM311 652h518q-4 118 -74 190t-181 72q-109 0 -182 -72.5t-81 -189.5z M440 -295q0 58 40.5 98.5t98.5 40.5t98.5 -40.5t40.5 -98.5q0 -57 -40.5 -98t-98.5 -41t-98.5 41t-40.5 98z" />
<glyph unicode="&#x1eba;" horiz-adv-x="1158" d="M127 0v1443h934v-218h-676v-390h639v-205h-639v-412h676v-218h-934zM418 1784v118q55 25 135 25q100 0 160.5 -49.5t60.5 -133.5q0 -67 -48.5 -124.5t-128.5 -87.5l-76 96q42 13 68 42t26 61q0 31 -26 51t-67 20q-60 0 -104 -18z" />
<glyph unicode="&#x1ebb;" horiz-adv-x="1135" d="M60 542q0 258 139.5 412t374.5 154q230 0 365 -146t135 -394v-82h-765v-15q0 -132 77 -212.5t202 -80.5q90 0 155 39.5t87 107.5h234q-24 -152 -157 -246.5t-324 -94.5q-242 0 -382.5 150t-140.5 408zM311 652h518q-4 118 -74 190t-181 72q-109 0 -182 -72.5t-81 -189.5z M435 1464v124q65 27 144 27q98 0 157 -53t59 -142q0 -68 -48 -126.5t-131 -92.5l-76 97q49 19 71.5 45.5t22.5 64.5q0 34 -27.5 56t-69.5 22q-52 0 -102 -22z" />
<glyph unicode="&#x1ebc;" horiz-adv-x="1158" d="M127 0v1443h934v-218h-676v-390h639v-205h-639v-412h676v-218h-934zM264 1554q0 123 55 193.5t146 70.5q39 0 73 -14.5t58 -35.5t45 -42t42 -35.5t40 -14.5q63 0 65 128h141q0 -121 -56 -193.5t-144 -72.5q-37 0 -70 14.5t-56.5 35.5t-44 42t-42 35.5t-42.5 14.5 q-32 0 -50 -33.5t-19 -92.5h-141z" />
<glyph unicode="&#x1ebd;" horiz-adv-x="1135" d="M60 542q0 258 139.5 412t374.5 154q230 0 365 -146t135 -394v-82h-765v-15q0 -132 77 -212.5t202 -80.5q90 0 155 39.5t87 107.5h234q-24 -152 -157 -246.5t-324 -94.5q-242 0 -382.5 150t-140.5 408zM246 1274q0 123 55 193.5t146 70.5q39 0 73 -14.5t58 -35.5t45 -42 t42 -35.5t40 -14.5q63 0 65 128h141q0 -121 -56 -193.5t-144 -72.5q-37 0 -70 14.5t-56.5 35.5t-44 42t-42 35.5t-42.5 14.5q-32 0 -50 -33.5t-19 -92.5h-141zM311 652h518q-4 118 -74 190t-181 72q-109 0 -182 -72.5t-81 -189.5z" />
<glyph unicode="&#x1ebe;" horiz-adv-x="1158" d="M127 0v1443h934v-218h-676v-390h639v-205h-639v-412h676v-218h-934zM231 1563l263 249h205l262 -249h-214l-144 143h-13l-145 -143h-214zM696 1873l190 229h230l-236 -229h-184z" />
<glyph unicode="&#x1ebf;" horiz-adv-x="1135" d="M60 542q0 258 139.5 412t374.5 154q230 0 365 -146t135 -394v-82h-765v-15q0 -132 77 -212.5t202 -80.5q90 0 155 39.5t87 107.5h234q-24 -152 -157 -246.5t-324 -94.5q-242 0 -382.5 150t-140.5 408zM206 1252l259 282h216l259 -282h-200l-164 180h-6l-164 -180h-200z M311 652h518q-4 118 -74 190t-181 72q-109 0 -182 -72.5t-81 -189.5zM732 1582l184 293h217l-222 -293h-179z" />
<glyph unicode="&#x1ec0;" horiz-adv-x="1158" d="M127 0v1443h934v-218h-676v-390h639v-205h-639v-412h676v-218h-934zM229 1563l263 249h204l263 -249h-214l-145 143h-12l-145 -143h-214zM505 2102h230l191 -229h-184z" />
<glyph unicode="&#x1ec1;" horiz-adv-x="1135" d="M60 542q0 258 139.5 412t374.5 154q230 0 365 -146t135 -394v-82h-765v-15q0 -132 77 -212.5t202 -80.5q90 0 155 39.5t87 107.5h234q-24 -152 -157 -246.5t-324 -94.5q-242 0 -382.5 150t-140.5 408zM206 1252l259 282h216l259 -282h-200l-164 180h-6l-164 -180h-200z M311 652h518q-4 118 -74 190t-181 72q-109 0 -182 -72.5t-81 -189.5zM576 1875h217l184 -293h-180z" />
<glyph unicode="&#x1ec2;" horiz-adv-x="1158" d="M127 0v1443h934v-218h-676v-390h639v-205h-639v-412h676v-218h-934zM230 1563l264 249h204l262 -249h-213l-145 143h-13l-145 -143h-214zM714 1968v111q48 25 124 25q92 0 147.5 -47t55.5 -126q0 -62 -36.5 -114t-100.5 -76l-87 85q37 13 56.5 38t19.5 54t-24 48t-61 19 q-53 0 -94 -17z" />
<glyph unicode="&#x1ec3;" horiz-adv-x="1135" d="M60 542q0 258 139.5 412t374.5 154q230 0 365 -146t135 -394v-82h-765v-15q0 -132 77 -212.5t202 -80.5q90 0 155 39.5t87 107.5h234q-24 -152 -157 -246.5t-324 -94.5q-242 0 -382.5 150t-140.5 408zM206 1252l259 282h216l259 -282h-200l-164 180h-6l-164 -180h-200z M311 652h518q-4 118 -74 190t-181 72q-109 0 -182 -72.5t-81 -189.5zM679 1743v118q46 22 117 22q99 0 157.5 -48.5t58.5 -131.5q0 -149 -155 -204l-81 86q42 16 65.5 43.5t23.5 59.5t-25.5 52t-65.5 20q-49 0 -95 -17z" />
<glyph unicode="&#x1ec4;" horiz-adv-x="1158" d="M127 0v1443h934v-218h-676v-390h639v-205h-639v-412h676v-218h-934zM229 1563l263 236h204l263 -236h-214l-145 131h-12l-145 -131h-214zM269 1876q0 113 56 177.5t148 64.5q49 0 88.5 -20t60.5 -44.5t45.5 -44.5t47.5 -20q67 0 72 114h138q0 -112 -56.5 -178.5 t-145.5 -66.5q-39 0 -71 13.5t-52.5 33t-38.5 38.5t-38.5 32.5t-42.5 13.5q-36 0 -53 -27.5t-20 -85.5h-138z" />
<glyph unicode="&#x1ec5;" horiz-adv-x="1135" d="M60 542q0 258 139.5 412t374.5 154q230 0 365 -146t135 -394v-82h-765v-15q0 -132 77 -212.5t202 -80.5q90 0 155 39.5t87 107.5h234q-24 -152 -157 -246.5t-324 -94.5q-242 0 -382.5 150t-140.5 408zM206 1252l259 276h216l259 -276h-200l-164 175h-6l-164 -175h-200z M240 1627q0 123 55.5 193.5t146.5 70.5q39 0 73 -14.5t58 -35.5t44.5 -42t41.5 -35.5t41 -14.5q62 0 64 128h142q0 -121 -56 -193.5t-144 -72.5q-37 0 -70.5 14.5t-56.5 35.5t-43.5 42t-42 35.5t-42.5 14.5q-67 0 -69 -126h-142zM311 652h518q-4 118 -74 190t-181 72 q-109 0 -182 -72.5t-81 -189.5z" />
<glyph unicode="&#x1ec6;" horiz-adv-x="1158" d="M127 0v1443h934v-218h-676v-390h639v-205h-639v-412h676v-218h-934zM215 1546l281 310h196l281 -310h-203l-174 198h-4l-174 -198h-203zM455 -295q0 58 40.5 98.5t98.5 40.5t98.5 -40.5t40.5 -98.5q0 -57 -40.5 -98t-98.5 -41t-98.5 41t-40.5 98z" />
<glyph unicode="&#x1ec7;" horiz-adv-x="1135" d="M60 542q0 258 139.5 412t374.5 154q230 0 365 -146t135 -394v-82h-765v-15q0 -132 77 -212.5t202 -80.5q90 0 155 39.5t87 107.5h234q-24 -152 -157 -246.5t-324 -94.5q-242 0 -382.5 150t-140.5 408zM210 1252l270 311h185l270 -311h-202l-157 192h-7l-157 -192h-202z M311 652h518q-4 118 -74 190t-181 72q-109 0 -182 -72.5t-81 -189.5zM440 -295q0 58 40.5 98.5t98.5 40.5t98.5 -40.5t40.5 -98.5q0 -57 -40.5 -98t-98.5 -41t-98.5 41t-40.5 98z" />
<glyph unicode="&#x1ec8;" horiz-adv-x="512" d="M80 1784v118q55 25 135 25q100 0 160.5 -49.5t60.5 -133.5q0 -67 -48.5 -124.5t-128.5 -87.5l-76 96q42 13 68 42t26 61q0 31 -26 51t-67 20q-60 0 -104 -18zM127 0v1443h258v-1443h-258z" />
<glyph unicode="&#x1ec9;" horiz-adv-x="475" d="M99 1464v124q65 27 144 27q98 0 157 -53t59 -142q0 -68 -48 -126.5t-131 -92.5l-76 97q49 19 71.5 45.5t22.5 64.5q0 34 -27.5 56t-69.5 22q-52 0 -102 -22zM113 0v1093h249v-1093h-249z" />
<glyph unicode="&#x1eca;" horiz-adv-x="512" d="M117 -295q0 58 40.5 98.5t98.5 40.5t98.5 -40.5t40.5 -98.5q0 -57 -40.5 -98t-98.5 -41t-98.5 41t-40.5 98zM127 0v1443h258v-1443h-258z" />
<glyph unicode="&#x1ecb;" horiz-adv-x="475" d="M97 1369q0 58 41 97.5t99 39.5q59 0 99.5 -39.5t40.5 -97.5t-40.5 -97.5t-99.5 -39.5q-58 0 -99 40t-41 97zM98 -295q0 58 40.5 98.5t98.5 40.5t98.5 -40.5t40.5 -98.5q0 -57 -40.5 -98t-98.5 -41t-98.5 41t-40.5 98zM113 0v1093h249v-1093h-249z" />
<glyph unicode="&#x1ecc;" horiz-adv-x="1525" d="M78 721q0 344 184.5 545t500.5 201q315 0 499.5 -201t184.5 -545t-184.5 -544.5t-499.5 -200.5q-316 0 -500.5 200.5t-184.5 544.5zM342 721q0 -241 114 -383t307 -142t307 142t114 383t-114 383.5t-307 142.5t-307 -142t-114 -384zM624 -295q0 58 40.5 98.5t98.5 40.5 t98.5 -40.5t40.5 -98.5q0 -57 -40.5 -98t-98.5 -41t-98.5 41t-40.5 98z" />
<glyph unicode="&#x1ecd;" horiz-adv-x="1173" d="M60 547q0 258 142.5 409.5t383.5 151.5q242 0 384.5 -151t142.5 -410q0 -261 -142 -412t-385 -151q-242 0 -384 151t-142 412zM313 546q0 -171 72.5 -267t200.5 -96q129 0 201.5 95.5t72.5 267.5q0 171 -72.5 267t-201.5 96q-128 0 -200.5 -96t-72.5 -267zM447 -295 q0 58 40.5 98.5t98.5 40.5t98.5 -40.5t40.5 -98.5q0 -57 -40.5 -98t-98.5 -41t-98.5 41t-40.5 98z" />
<glyph unicode="&#x1ece;" horiz-adv-x="1525" d="M78 721q0 344 184.5 545t500.5 201q315 0 499.5 -201t184.5 -545t-184.5 -544.5t-499.5 -200.5q-316 0 -500.5 200.5t-184.5 544.5zM342 721q0 -241 114 -383t307 -142t307 142t114 383t-114 383.5t-307 142.5t-307 -142t-114 -384zM587 1784v118q55 25 135 25 q100 0 160.5 -49.5t60.5 -133.5q0 -67 -48.5 -124.5t-128.5 -87.5l-76 96q42 13 68 42t26 61q0 31 -26 51t-67 20q-61 0 -104 -18z" />
<glyph unicode="&#x1ecf;" horiz-adv-x="1173" d="M60 547q0 258 142.5 409.5t383.5 151.5q242 0 384.5 -151t142.5 -410q0 -261 -142 -412t-385 -151q-242 0 -384 151t-142 412zM313 546q0 -171 72.5 -267t200.5 -96q129 0 201.5 95.5t72.5 267.5q0 171 -72.5 267t-201.5 96q-128 0 -200.5 -96t-72.5 -267zM448 1464v124 q65 27 144 27q98 0 157 -53t59 -142q0 -68 -48 -126.5t-131 -92.5l-76 97q49 19 71.5 45.5t22.5 64.5q0 34 -27.5 56t-69.5 22q-52 0 -102 -22z" />
<glyph unicode="&#x1ed0;" horiz-adv-x="1525" d="M78 721q0 344 184.5 545t500.5 201q315 0 499.5 -201t184.5 -545t-184.5 -544.5t-499.5 -200.5q-316 0 -500.5 200.5t-184.5 544.5zM342 721q0 -241 114 -383t307 -142t307 142t114 383t-114 383.5t-307 142.5t-307 -142t-114 -384zM400 1563l263 249h205l262 -249h-214 l-144 143h-13l-145 -143h-214zM865 1873l190 229h230l-236 -229h-184z" />
<glyph unicode="&#x1ed1;" horiz-adv-x="1173" d="M60 547q0 258 142.5 409.5t383.5 151.5q242 0 384.5 -151t142.5 -410q0 -261 -142 -412t-385 -151q-242 0 -384 151t-142 412zM219 1252l259 282h216l259 -282h-200l-164 180h-6l-164 -180h-200zM313 546q0 -171 72.5 -267t200.5 -96q129 0 201.5 95.5t72.5 267.5 q0 171 -72.5 267t-201.5 96q-128 0 -200.5 -96t-72.5 -267zM745 1582l184 293h217l-222 -293h-179z" />
<glyph unicode="&#x1ed2;" horiz-adv-x="1525" d="M78 721q0 344 184.5 545t500.5 201q315 0 499.5 -201t184.5 -545t-184.5 -544.5t-499.5 -200.5q-316 0 -500.5 200.5t-184.5 544.5zM342 721q0 -241 114 -383t307 -142t307 142t114 383t-114 383.5t-307 142.5t-307 -142t-114 -384zM398 1563l263 249h204l263 -249h-214 l-145 143h-12l-145 -143h-214zM674 2102h230l191 -229h-184z" />
<glyph unicode="&#x1ed3;" horiz-adv-x="1173" d="M60 547q0 258 142.5 409.5t383.5 151.5q242 0 384.5 -151t142.5 -410q0 -261 -142 -412t-385 -151q-242 0 -384 151t-142 412zM219 1252l259 282h216l259 -282h-200l-164 180h-6l-164 -180h-200zM313 546q0 -171 72.5 -267t200.5 -96q129 0 201.5 95.5t72.5 267.5 q0 171 -72.5 267t-201.5 96q-128 0 -200.5 -96t-72.5 -267zM589 1875h217l184 -293h-180z" />
<glyph unicode="&#x1ed4;" horiz-adv-x="1525" d="M78 721q0 344 184.5 545t500.5 201q315 0 499.5 -201t184.5 -545t-184.5 -544.5t-499.5 -200.5q-316 0 -500.5 200.5t-184.5 544.5zM342 721q0 -241 114 -383t307 -142t307 142t114 383t-114 383.5t-307 142.5t-307 -142t-114 -384zM399 1563l264 249h204l262 -249h-213 l-145 143h-13l-145 -143h-214zM883 1968v111q48 25 124 25q92 0 147.5 -47t55.5 -126q0 -62 -36.5 -114t-100.5 -76l-87 85q37 13 56.5 38t19.5 54t-24 48t-61 19q-53 0 -94 -17z" />
<glyph unicode="&#x1ed5;" horiz-adv-x="1173" d="M60 547q0 258 142.5 409.5t383.5 151.5q242 0 384.5 -151t142.5 -410q0 -261 -142 -412t-385 -151q-242 0 -384 151t-142 412zM219 1252l259 282h216l259 -282h-200l-164 180h-6l-164 -180h-200zM313 546q0 -171 72.5 -267t200.5 -96q129 0 201.5 95.5t72.5 267.5 q0 171 -72.5 267t-201.5 96q-128 0 -200.5 -96t-72.5 -267zM692 1743v118q46 22 117 22q99 0 157.5 -48.5t58.5 -131.5q0 -149 -155 -204l-81 86q42 16 65.5 43.5t23.5 59.5t-25.5 52t-65.5 20q-49 0 -95 -17z" />
<glyph unicode="&#x1ed6;" horiz-adv-x="1525" d="M78 721q0 344 184.5 545t500.5 201q315 0 499.5 -201t184.5 -545t-184.5 -544.5t-499.5 -200.5q-316 0 -500.5 200.5t-184.5 544.5zM342 721q0 -241 114 -383t307 -142t307 142t114 383t-114 383.5t-307 142.5t-307 -142t-114 -384zM398 1563l263 236h204l263 -236h-214 l-145 131h-12l-145 -131h-214zM438 1876q0 113 56 177.5t148 64.5q49 0 88.5 -20t60.5 -44.5t45.5 -44.5t47.5 -20q67 0 72 114h138q0 -112 -56.5 -178.5t-145.5 -66.5q-39 0 -71 13.5t-52.5 33t-38.5 38.5t-38.5 32.5t-42.5 13.5q-36 0 -53 -27.5t-20 -85.5h-138z" />
<glyph unicode="&#x1ed7;" horiz-adv-x="1173" d="M60 547q0 258 142.5 409.5t383.5 151.5q242 0 384.5 -151t142.5 -410q0 -261 -142 -412t-385 -151q-242 0 -384 151t-142 412zM219 1252l259 276h216l259 -276h-200l-164 175h-6l-164 -175h-200zM253 1627q0 123 55.5 193.5t146.5 70.5q39 0 73 -14.5t58 -35.5t44.5 -42 t41.5 -35.5t41 -14.5q62 0 64 128h142q0 -121 -56 -193.5t-144 -72.5q-37 0 -70.5 14.5t-56.5 35.5t-43.5 42t-42 35.5t-42.5 14.5q-67 0 -69 -126h-142zM313 546q0 -171 72.5 -267t200.5 -96q129 0 201.5 95.5t72.5 267.5q0 171 -72.5 267t-201.5 96q-128 0 -200.5 -96 t-72.5 -267z" />
<glyph unicode="&#x1ed8;" horiz-adv-x="1525" d="M78 721q0 344 184.5 545t500.5 201q315 0 499.5 -201t184.5 -545t-184.5 -544.5t-499.5 -200.5q-316 0 -500.5 200.5t-184.5 544.5zM342 721q0 -241 114 -383t307 -142t307 142t114 383t-114 383.5t-307 142.5t-307 -142t-114 -384zM384 1546l281 310h196l281 -310h-203 l-174 198h-4l-174 -198h-203zM624 -295q0 58 40.5 98.5t98.5 40.5t98.5 -40.5t40.5 -98.5q0 -57 -40.5 -98t-98.5 -41t-98.5 41t-40.5 98z" />
<glyph unicode="&#x1ed9;" horiz-adv-x="1173" d="M60 547q0 258 142.5 409.5t383.5 151.5q242 0 384.5 -151t142.5 -410q0 -261 -142 -412t-385 -151q-242 0 -384 151t-142 412zM223 1252l270 311h185l270 -311h-202l-157 192h-7l-157 -192h-202zM313 546q0 -171 72.5 -267t200.5 -96q129 0 201.5 95.5t72.5 267.5 q0 171 -72.5 267t-201.5 96q-128 0 -200.5 -96t-72.5 -267zM447 -295q0 58 40.5 98.5t98.5 40.5t98.5 -40.5t40.5 -98.5q0 -57 -40.5 -98t-98.5 -41t-98.5 41t-40.5 98z" />
<glyph unicode="&#x1eda;" horiz-adv-x="1571" d="M78 722q0 343 184 544t497 201q97 0 182 -23.5t133.5 -51.5t102.5 -51.5t96 -23.5q98 0 98 144v171h205v-245q0 -109 -46 -172.5t-125 -63.5q-38 0 -60 11l-4 -4q106 -195 106 -440q0 -341 -185 -541.5t-500 -200.5t-499.5 201t-184.5 545zM342 721q0 -241 114 -383 t307 -142t307 142t114 383t-114 383.5t-307 142.5t-307 -142t-114 -384zM662 1552l231 306h246l-279 -306h-198z" />
<glyph unicode="&#x1edb;" horiz-adv-x="1299" d="M60 543q0 258 141 411.5t378 153.5q87 0 162.5 -23t118 -50.5t87.5 -50.5t78 -23q50 0 74 35t24 110v148h199v-202q0 -121 -64.5 -193.5t-171.5 -72.5q-8 0 -12 1l-2 -1q-2 -2 -3 -2q44 -109 44 -241q0 -258 -142 -408.5t-386 -150.5q-241 0 -383 151t-142 408zM313 546 q0 -171 72.5 -267t200.5 -96q129 0 201.5 96t72.5 267t-72.5 267t-201.5 96q-128 0 -200.5 -96.5t-72.5 -266.5zM483 1258l218 307h245l-262 -307h-201z" />
<glyph unicode="&#x1edc;" horiz-adv-x="1571" d="M78 722q0 343 184 544t497 201q97 0 182 -23.5t133.5 -51.5t102.5 -51.5t96 -23.5q98 0 98 144v171h205v-245q0 -109 -46 -172.5t-125 -63.5q-38 0 -60 11l-4 -4q106 -195 106 -440q0 -341 -185 -541.5t-500 -200.5t-499.5 201t-184.5 545zM342 721q0 -241 114 -383 t307 -142t307 142t114 383t-114 383.5t-307 142.5t-307 -142t-114 -384zM387 1861h246l231 -306h-198z" />
<glyph unicode="&#x1edd;" horiz-adv-x="1299" d="M60 543q0 258 141 411.5t378 153.5q87 0 162.5 -23t118 -50.5t87.5 -50.5t78 -23q50 0 74 35t24 110v148h199v-202q0 -121 -64.5 -193.5t-171.5 -72.5q-8 0 -12 1l-2 -1q-2 -2 -3 -2q44 -109 44 -241q0 -258 -142 -408.5t-386 -150.5q-241 0 -383 151t-142 408zM222 1565 h246l217 -307h-201zM313 546q0 -171 72.5 -267t200.5 -96q129 0 201.5 96t72.5 267t-72.5 267t-201.5 96q-128 0 -200.5 -96.5t-72.5 -266.5z" />
<glyph unicode="&#x1ede;" horiz-adv-x="1571" d="M78 722q0 343 184 544t497 201q97 0 182 -23.5t133.5 -51.5t102.5 -51.5t96 -23.5q98 0 98 144v171h205v-245q0 -109 -46 -172.5t-125 -63.5q-38 0 -60 11l-4 -4q106 -195 106 -440q0 -341 -185 -541.5t-500 -200.5t-499.5 201t-184.5 545zM342 721q0 -241 114 -383 t307 -142t307 142t114 383t-114 383.5t-307 142.5t-307 -142t-114 -384zM587 1784v118q55 25 135 25q100 0 160.5 -49.5t60.5 -133.5q0 -67 -48.5 -124.5t-128.5 -87.5l-76 96q42 13 68 42t26 61q0 31 -26 51t-67 20q-61 0 -104 -18z" />
<glyph unicode="&#x1edf;" horiz-adv-x="1299" d="M60 543q0 258 141 411.5t378 153.5q87 0 162.5 -23t118 -50.5t87.5 -50.5t78 -23q50 0 74 35t24 110v148h199v-202q0 -121 -64.5 -193.5t-171.5 -72.5q-8 0 -12 1l-2 -1q-2 -2 -3 -2q44 -109 44 -241q0 -258 -142 -408.5t-386 -150.5q-241 0 -383 151t-142 408zM313 546 q0 -171 72.5 -267t200.5 -96q129 0 201.5 96t72.5 267t-72.5 267t-201.5 96q-128 0 -200.5 -96.5t-72.5 -266.5zM448 1464v124q65 27 144 27q98 0 157 -53t59 -142q0 -68 -48 -126.5t-131 -92.5l-76 97q49 19 71.5 45.5t22.5 64.5q0 34 -27.5 56t-69.5 22q-52 0 -102 -22z " />
<glyph unicode="&#x1ee0;" horiz-adv-x="1571" d="M78 722q0 343 184 544t497 201q97 0 182 -23.5t133.5 -51.5t102.5 -51.5t96 -23.5q98 0 98 144v171h205v-245q0 -109 -46 -172.5t-125 -63.5q-38 0 -60 11l-4 -4q106 -195 106 -440q0 -341 -185 -541.5t-500 -200.5t-499.5 201t-184.5 545zM342 721q0 -241 114 -383 t307 -142t307 142t114 383t-114 383.5t-307 142.5t-307 -142t-114 -384zM433 1554q0 123 55 193.5t146 70.5q39 0 73 -14.5t58 -35.5t45 -42t42 -35.5t40 -14.5q63 0 65 128h141q0 -121 -56 -193.5t-144 -72.5q-37 0 -70 14.5t-56.5 35.5t-44 42t-42 35.5t-42.5 14.5 q-32 0 -50 -33.5t-19 -92.5h-141z" />
<glyph unicode="&#x1ee1;" horiz-adv-x="1299" d="M60 543q0 258 141 411.5t378 153.5q87 0 162.5 -23t118 -50.5t87.5 -50.5t78 -23q50 0 74 35t24 110v148h199v-202q0 -121 -64.5 -193.5t-171.5 -72.5q-8 0 -12 1l-2 -1q-2 -2 -3 -2q44 -109 44 -241q0 -258 -142 -408.5t-386 -150.5q-241 0 -383 151t-142 408zM259 1274 q0 123 55 193.5t146 70.5q39 0 73 -14.5t58 -35.5t45 -42t42 -35.5t40 -14.5q63 0 65 128h141q0 -121 -56 -193.5t-144 -72.5q-37 0 -70 14.5t-56.5 35.5t-44 42t-42 35.5t-42.5 14.5q-32 0 -50 -33.5t-19 -92.5h-141zM313 546q0 -171 72.5 -267t200.5 -96q129 0 201.5 96 t72.5 267t-72.5 267t-201.5 96q-128 0 -200.5 -96.5t-72.5 -266.5z" />
<glyph unicode="&#x1ee2;" horiz-adv-x="1571" d="M78 722q0 343 184 544t497 201q97 0 182 -23.5t133.5 -51.5t102.5 -51.5t96 -23.5q98 0 98 144v171h205v-245q0 -109 -46 -172.5t-125 -63.5q-38 0 -60 11l-4 -4q106 -195 106 -440q0 -341 -185 -541.5t-500 -200.5t-499.5 201t-184.5 545zM342 721q0 -241 114 -383 t307 -142t307 142t114 383t-114 383.5t-307 142.5t-307 -142t-114 -384zM624 -295q0 58 40.5 98.5t98.5 40.5t98.5 -40.5t40.5 -98.5q0 -57 -40.5 -98t-98.5 -41t-98.5 41t-40.5 98z" />
<glyph unicode="&#x1ee3;" horiz-adv-x="1299" d="M60 543q0 258 141 411.5t378 153.5q87 0 162.5 -23t118 -50.5t87.5 -50.5t78 -23q50 0 74 35t24 110v148h199v-202q0 -121 -64.5 -193.5t-171.5 -72.5q-8 0 -12 1l-2 -1q-2 -2 -3 -2q44 -109 44 -241q0 -258 -142 -408.5t-386 -150.5q-241 0 -383 151t-142 408zM313 546 q0 -171 72.5 -267t200.5 -96q129 0 201.5 96t72.5 267t-72.5 267t-201.5 96q-128 0 -200.5 -96.5t-72.5 -266.5zM447 -295q0 58 40.5 98.5t98.5 40.5t98.5 -40.5t40.5 -98.5q0 -57 -40.5 -98t-98.5 -41t-98.5 41t-40.5 98z" />
<glyph unicode="&#x1ee4;" horiz-adv-x="1441" d="M127 509v934h258v-911q0 -150 88.5 -240.5t246.5 -90.5t247 90.5t89 240.5v911h257v-934q0 -239 -160.5 -386t-432.5 -147q-271 0 -432 147t-161 386zM581 -295q0 58 40.5 98.5t98.5 40.5t98.5 -40.5t40.5 -98.5q0 -57 -40.5 -98t-98.5 -41t-98.5 41t-40.5 98z" />
<glyph unicode="&#x1ee5;" horiz-adv-x="1194" d="M101 392v701h249v-651q0 -118 61.5 -181.5t172.5 -63.5q114 0 184.5 74t70.5 195v627h249v-1093h-239v191h-6q-45 -100 -134.5 -152.5t-213.5 -52.5q-180 0 -287 109t-107 297zM456 -295q0 58 40.5 98.5t98.5 40.5t98.5 -40.5t40.5 -98.5q0 -57 -40.5 -98t-98.5 -41 t-98.5 41t-40.5 98z" />
<glyph unicode="&#x1ee6;" horiz-adv-x="1441" d="M127 509v934h258v-911q0 -150 88.5 -240.5t246.5 -90.5t247 90.5t89 240.5v911h257v-934q0 -239 -160.5 -386t-432.5 -147q-271 0 -432 147t-161 386zM544 1784v118q55 25 135 25q100 0 160.5 -49.5t60.5 -133.5q0 -67 -48.5 -124.5t-128.5 -87.5l-76 96q42 13 68 42 t26 61q0 31 -26 51t-67 20q-60 0 -104 -18z" />
<glyph unicode="&#x1ee7;" horiz-adv-x="1194" d="M101 392v701h249v-651q0 -118 61.5 -181.5t172.5 -63.5q114 0 184.5 74t70.5 195v627h249v-1093h-239v191h-6q-45 -100 -134.5 -152.5t-213.5 -52.5q-180 0 -287 109t-107 297zM457 1464v124q65 27 144 27q98 0 157 -53t59 -142q0 -68 -48 -126.5t-131 -92.5l-76 97 q49 19 71.5 45.5t22.5 64.5q0 34 -27.5 56t-69.5 22q-52 0 -102 -22z" />
<glyph unicode="&#x1ee8;" horiz-adv-x="1658" d="M127 509v934h258v-911q0 -153 90 -242t245 -89t245.5 88.5t90.5 242.5v911h259v-74q40 -29 88 -26q47 2 68 35t21 106v151h199v-204q0 -126 -70 -199.5t-189 -73.5q-30 0 -66 8.5t-53 21.5v-679q0 -241 -162 -387t-431 -146q-268 0 -430.5 146t-162.5 387zM619 1552 l231 306h246l-279 -306h-198z" />
<glyph unicode="&#x1ee9;" horiz-adv-x="1451" d="M101 392v701h249v-651q0 -117 61 -181t173 -64q114 0 184.5 74t70.5 195v627h249v-69q43 -24 84 -18q47 2 67 34t20 105v151h199v-202q0 -128 -66.5 -201t-184.5 -73q-29 0 -66 7t-53 19v-846h-239v191h-6q-45 -100 -134.5 -152.5t-213.5 -52.5q-181 0 -287.5 110 t-106.5 296zM492 1258l218 307h245l-262 -307h-201z" />
<glyph unicode="&#x1eea;" horiz-adv-x="1658" d="M127 509v934h258v-911q0 -153 90 -242t245 -89t245.5 88.5t90.5 242.5v911h259v-74q40 -29 88 -26q47 2 68 35t21 106v151h199v-204q0 -126 -70 -199.5t-189 -73.5q-30 0 -66 8.5t-53 21.5v-679q0 -241 -162 -387t-431 -146q-268 0 -430.5 146t-162.5 387zM344 1861h246 l231 -306h-198z" />
<glyph unicode="&#x1eeb;" horiz-adv-x="1451" d="M101 392v701h249v-651q0 -117 61 -181t173 -64q114 0 184.5 74t70.5 195v627h249v-69q43 -24 84 -18q47 2 67 34t20 105v151h199v-202q0 -128 -66.5 -201t-184.5 -73q-29 0 -66 7t-53 19v-846h-239v191h-6q-45 -100 -134.5 -152.5t-213.5 -52.5q-181 0 -287.5 110 t-106.5 296zM231 1565h246l217 -307h-201z" />
<glyph unicode="&#x1eec;" horiz-adv-x="1658" d="M127 509v934h258v-911q0 -153 90 -242t245 -89t245.5 88.5t90.5 242.5v911h259v-74q40 -29 88 -26q47 2 68 35t21 106v151h199v-204q0 -126 -70 -199.5t-189 -73.5q-30 0 -66 8.5t-53 21.5v-679q0 -241 -162 -387t-431 -146q-268 0 -430.5 146t-162.5 387zM544 1784v118 q55 25 135 25q100 0 160.5 -49.5t60.5 -133.5q0 -67 -48.5 -124.5t-128.5 -87.5l-76 96q42 13 68 42t26 61q0 31 -26 51t-67 20q-60 0 -104 -18z" />
<glyph unicode="&#x1eed;" horiz-adv-x="1451" d="M101 392v701h249v-651q0 -117 61 -181t173 -64q114 0 184.5 74t70.5 195v627h249v-69q43 -24 84 -18q47 2 67 34t20 105v151h199v-202q0 -128 -66.5 -201t-184.5 -73q-29 0 -66 7t-53 19v-846h-239v191h-6q-45 -100 -134.5 -152.5t-213.5 -52.5q-181 0 -287.5 110 t-106.5 296zM457 1464v124q65 27 144 27q98 0 157 -53t59 -142q0 -68 -48 -126.5t-131 -92.5l-76 97q49 19 71.5 45.5t22.5 64.5q0 34 -27.5 56t-69.5 22q-52 0 -102 -22z" />
<glyph unicode="&#x1eee;" horiz-adv-x="1658" d="M127 509v934h258v-911q0 -153 90 -242t245 -89t245.5 88.5t90.5 242.5v911h259v-74q40 -29 88 -26q47 2 68 35t21 106v151h199v-204q0 -126 -70 -199.5t-189 -73.5q-30 0 -66 8.5t-53 21.5v-679q0 -241 -162 -387t-431 -146q-268 0 -430.5 146t-162.5 387zM390 1554 q0 123 55 193.5t146 70.5q39 0 73 -14.5t58 -35.5t45 -42t42 -35.5t40 -14.5q63 0 65 128h141q0 -121 -56 -193.5t-144 -72.5q-37 0 -70 14.5t-56.5 35.5t-44 42t-42 35.5t-42.5 14.5q-32 0 -50 -33.5t-19 -92.5h-141z" />
<glyph unicode="&#x1eef;" horiz-adv-x="1451" d="M101 392v701h249v-651q0 -117 61 -181t173 -64q114 0 184.5 74t70.5 195v627h249v-69q43 -24 84 -18q47 2 67 34t20 105v151h199v-202q0 -128 -66.5 -201t-184.5 -73q-29 0 -66 7t-53 19v-846h-239v191h-6q-45 -100 -134.5 -152.5t-213.5 -52.5q-181 0 -287.5 110 t-106.5 296zM268 1274q0 123 55 193.5t146 70.5q39 0 73 -14.5t58 -35.5t45 -42t42 -35.5t40 -14.5q63 0 65 128h141q0 -121 -56 -193.5t-144 -72.5q-37 0 -70 14.5t-56.5 35.5t-44 42t-42 35.5t-42.5 14.5q-32 0 -50 -33.5t-19 -92.5h-141z" />
<glyph unicode="&#x1ef0;" horiz-adv-x="1658" d="M127 509v934h258v-911q0 -153 90 -242t245 -89t245.5 88.5t90.5 242.5v911h259v-74q40 -29 88 -26q47 2 68 35t21 106v151h199v-204q0 -126 -70 -199.5t-189 -73.5q-30 0 -66 8.5t-53 21.5v-679q0 -241 -162 -387t-431 -146q-268 0 -430.5 146t-162.5 387zM581 -295 q0 58 40.5 98.5t98.5 40.5t98.5 -40.5t40.5 -98.5q0 -57 -40.5 -98t-98.5 -41t-98.5 41t-40.5 98z" />
<glyph unicode="&#x1ef1;" horiz-adv-x="1451" d="M101 392v701h249v-651q0 -117 61 -181t173 -64q114 0 184.5 74t70.5 195v627h249v-69q43 -24 84 -18q47 2 67 34t20 105v151h199v-202q0 -128 -66.5 -201t-184.5 -73q-29 0 -66 7t-53 19v-846h-239v191h-6q-45 -100 -134.5 -152.5t-213.5 -52.5q-181 0 -287.5 110 t-106.5 296zM456 -295q0 58 40.5 98.5t98.5 40.5t98.5 -40.5t40.5 -98.5q0 -57 -40.5 -98t-98.5 -41t-98.5 41t-40.5 98z" />
<glyph unicode="&#x1ef2;" horiz-adv-x="1323" d="M27 1443h283l350 -628h6l349 628h281l-506 -874v-569h-257v569zM285 1861h246l231 -306h-198z" />
<glyph unicode="&#x1ef3;" horiz-adv-x="1096" d="M17 1093h271l262 -878h5l261 878h263l-396 -1131q-70 -201 -170.5 -280.5t-284.5 -79.5q-73 0 -98 5v198q19 -4 68 -4q80 0 126.5 33.5t69.5 110.5l14 51zM185 1565h246l217 -307h-201z" />
<glyph unicode="&#x1ef4;" horiz-adv-x="1323" d="M27 1443h283l350 -628h6l349 628h281l-506 -874v-569h-257v569zM522 -295q0 58 40.5 98.5t98.5 40.5t98.5 -40.5t40.5 -98.5q0 -57 -40.5 -98t-98.5 -41t-98.5 41t-40.5 98z" />
<glyph unicode="&#x1ef5;" horiz-adv-x="1096" d="M17 1093h271l262 -878h5l261 878h263l-396 -1131q-70 -201 -170.5 -280.5t-284.5 -79.5q-73 0 -98 5v198q19 -4 68 -4q80 0 126.5 33.5t69.5 110.5l14 51zM749 -295q0 58 40.5 98.5t98.5 40.5t98.5 -40.5t40.5 -98.5q0 -57 -40.5 -98t-98.5 -41t-98.5 41t-40.5 98z" />
<glyph unicode="&#x1ef6;" horiz-adv-x="1323" d="M27 1443h283l350 -628h6l349 628h281l-506 -874v-569h-257v569zM485 1784v118q55 25 135 25q100 0 160.5 -49.5t60.5 -133.5q0 -67 -48.5 -124.5t-128.5 -87.5l-76 96q42 13 68 42t26 61q0 31 -26 51t-67 20q-61 0 -104 -18z" />
<glyph unicode="&#x1ef7;" horiz-adv-x="1096" d="M17 1093h271l262 -878h5l261 878h263l-396 -1131q-70 -201 -170.5 -280.5t-284.5 -79.5q-73 0 -98 5v198q19 -4 68 -4q80 0 126.5 33.5t69.5 110.5l14 51zM411 1464v124q65 27 144 27q98 0 157 -53t59 -142q0 -68 -48 -126.5t-131 -92.5l-76 97q49 19 71.5 45.5 t22.5 64.5q0 34 -27.5 56t-69.5 22q-52 0 -102 -22z" />
<glyph unicode="&#x1ef8;" horiz-adv-x="1323" d="M27 1443h283l350 -628h6l349 628h281l-506 -874v-569h-257v569zM331 1554q0 123 55 193.5t146 70.5q39 0 73 -14.5t58 -35.5t45 -42t42 -35.5t40 -14.5q63 0 65 128h141q0 -121 -56 -193.5t-144 -72.5q-37 0 -70 14.5t-56.5 35.5t-44 42t-42 35.5t-42.5 14.5 q-32 0 -50 -33.5t-19 -92.5h-141z" />
<glyph unicode="&#x1ef9;" horiz-adv-x="1096" d="M17 1093h271l262 -878h5l261 878h263l-396 -1131q-70 -201 -170.5 -280.5t-284.5 -79.5q-73 0 -98 5v198q19 -4 68 -4q80 0 126.5 33.5t69.5 110.5l14 51zM222 1274q0 123 55 193.5t146 70.5q39 0 73 -14.5t58 -35.5t45 -42t42 -35.5t40 -14.5q63 0 65 128h141 q0 -121 -56 -193.5t-144 -72.5q-37 0 -70 14.5t-56.5 35.5t-44 42t-42 35.5t-42.5 14.5q-32 0 -50 -33.5t-19 -92.5h-141z" />
<glyph unicode="&#x2000;" horiz-adv-x="1079" />
<glyph unicode="&#x2001;" horiz-adv-x="2159" />
<glyph unicode="&#x2002;" horiz-adv-x="1079" />
<glyph unicode="&#x2003;" horiz-adv-x="2159" />
<glyph unicode="&#x2004;" horiz-adv-x="719" />
<glyph unicode="&#x2005;" horiz-adv-x="539" />
<glyph unicode="&#x2006;" horiz-adv-x="359" />
<glyph unicode="&#x2007;" horiz-adv-x="359" />
<glyph unicode="&#x2008;" horiz-adv-x="269" />
<glyph unicode="&#x2009;" horiz-adv-x="431" />
<glyph unicode="&#x200a;" horiz-adv-x="119" />
<glyph unicode="&#x2010;" horiz-adv-x="895" d="M119 464v222h657v-222h-657z" />
<glyph unicode="&#x2011;" horiz-adv-x="895" d="M119 464v222h657v-222h-657z" />
<glyph unicode="&#x2012;" horiz-adv-x="895" d="M119 464v222h657v-222h-657z" />
<glyph unicode="&#x2013;" horiz-adv-x="1024" d="M0 472v226h1024v-226h-1024z" />
<glyph unicode="&#x2014;" horiz-adv-x="2048" d="M0 472v226h2048v-226h-2048z" />
<glyph unicode="&#x2018;" horiz-adv-x="573" d="M87 1443h237l111 -543h-208z" />
<glyph unicode="&#x2019;" horiz-adv-x="573" d="M138 900l111 543h237l-140 -543h-208z" />
<glyph unicode="&#x201a;" horiz-adv-x="573" d="M90 -413l111 561h237l-134 -561h-214z" />
<glyph unicode="&#x201c;" horiz-adv-x="1012" d="M93 1443h237l111 -543h-208zM521 1443h237l112 -543h-209z" />
<glyph unicode="&#x201d;" horiz-adv-x="1012" d="M143 900l111 543h237l-140 -543h-208zM571 900l112 543h237l-141 -543h-208z" />
<glyph unicode="&#x201e;" horiz-adv-x="1012" d="M90 -413l111 561h234l-131 -561h-214zM532 -413l112 561h234l-132 -561h-214z" />
<glyph unicode="&#x2026;" horiz-adv-x="1610" d="M132 133q0 61 41.5 102.5t102.5 41.5q60 0 101.5 -41.5t41.5 -102.5t-41.5 -102.5t-101.5 -41.5q-61 0 -102.5 41.5t-41.5 102.5zM662 133q0 61 42 102.5t102 41.5q61 0 102.5 -41.5t41.5 -102.5t-41.5 -102.5t-102.5 -41.5q-60 0 -102 41.5t-42 102.5zM1191 133 q0 61 41.5 102.5t101.5 41.5q61 0 102.5 -41.5t41.5 -102.5t-41.5 -102.5t-102.5 -41.5q-60 0 -101.5 41.5t-41.5 102.5z" />
<glyph unicode="&#x202f;" horiz-adv-x="431" />
<glyph unicode="&#x2039;" horiz-adv-x="837" d="M121 561v8l349 413h246l-348 -410v-12l348 -412h-249z" />
<glyph unicode="&#x203a;" horiz-adv-x="837" d="M121 148l348 412v12l-348 410h246l349 -413v-8l-346 -413h-249z" />
<glyph unicode="&#x205f;" horiz-adv-x="539" />
<glyph unicode="&#x20ac;" horiz-adv-x="1294" d="M73 490v150h169q-3 39 -3 81t3 81h-169v150h193q42 166 146.5 283t253.5 175.5t332 58.5q129 0 203 -23v-217q-85 18 -199 18q-165 0 -287 -76.5t-177 -218.5h538v-150h-573q-4 -35 -4 -81q0 -29 4 -81h573v-150h-537q54 -143 175 -219t285 -76q141 0 204 17v-219 q-76 -19 -205 -19q-278 0 -472.5 134t-258.5 382h-194z" />
<glyph unicode="&#x2122;" horiz-adv-x="2192" d="M116 1253v190h787v-190h-283v-666h-221v666h-283zM1047 587v856h253l249 -521h16l249 521h252v-856h-198v555h-16l-239 -501h-115l-235 501h-17v-555h-199z" />
<glyph unicode="&#x25fc;" horiz-adv-x="1095" d="M0 0v1095h1095v-1095h-1095z" />
</font>
</defs>
</svg>
